<?xml version="1.0" encoding="utf-8"?>
<!-- Generator: Adobe Illustrator 16.0.0, SVG Export Plug-In . SVG Version: 6.00 Build 0)  -->
<!DOCTYPE svg PUBLIC "-//W3C//DTD SVG 1.1//EN" "http://www.w3.org/Graphics/SVG/1.1/DTD/svg11.dtd">
<svg version="1.1" id="Vrstva_1" xmlns="http://www.w3.org/2000/svg" xmlns:xlink="http://www.w3.org/1999/xlink" x="0px" y="0px"
	 width="60px" height="60px" viewBox="0 0 60 60" enable-background="new 0 0 60 60" xml:space="preserve">
<g>
</g>
<text transform="matrix(1 0 0 1 5.1563 27.7593)" fill="#A7A7A8" font-family="'FrankRuehl'" font-size="40">16</text>
<g>
	<g>
		<line fill="none" stroke="#6D6D6D" stroke-miterlimit="10" x1="5.5" y1="4" x2="5.5" y2="57"/>
		<g>
			<polygon fill="#6D6D6D" points="4,5.816 5.5,4.12 7,5.816 7,4.376 5.5,2.681 4,4.376 			"/>
		</g>
	</g>
</g>
<g>
	<rect x="45" y="13" fill="#A7A7A8" width="5" height="43"/>
	<rect x="45.5" y="12.5" fill="none" stroke="#A7A7A8" stroke-linejoin="round" stroke-miterlimit="10" width="5" height="43"/>
	<rect x="45" y="13" fill="#A7A7A8" width="5" height="43"/>
</g>
<polyline fill="#A7A7A8" stroke="#A7A7A8" stroke-linecap="round" stroke-linejoin="round" stroke-miterlimit="10" points="34.5,30 
	34.5,55.5 39.5,55.5 39.5,24.868 39.5,25 "/>
<line fill="none" stroke="#A7A7A8" stroke-miterlimit="10" x1="39.5" y1="24.868" x2="34.5" y2="30"/>
<rect x="12.5" y="30.5" fill="#A7A7A8" stroke="#A7A7A8" stroke-linecap="round" stroke-linejoin="round" width="5" height="25"/>
<rect x="23.5" y="34.5" fill="#A7A7A8" stroke="#A7A7A8" stroke-linejoin="round" stroke-miterlimit="10" width="5" height="21"/>
<g>
	<g>
		<line fill="none" stroke="#7A7A7A" stroke-miterlimit="10" x1="4" y1="55.5" x2="56" y2="55.5"/>
		<g>
			<polygon fill="#7A7A7A" points="53.865,57 55.562,55.5 53.865,54 55.305,54 57,55.5 55.305,57 			"/>
		</g>
	</g>
</g>
</svg>
