<?xml version="1.0" encoding="utf-8"?>
<!-- Generator: Adobe Illustrator 16.0.0, SVG Export Plug-In . SVG Version: 6.00 Build 0)  -->
<svg version="1.2" baseProfile="tiny" id="Vrstva_1"
	 xmlns="http://www.w3.org/2000/svg" xmlns:xlink="http://www.w3.org/1999/xlink" x="0px" y="0px" width="257px" height="151.5px"
	 viewBox="0 0 257 151.5" xml:space="preserve">
<line fill="none" stroke="#000000" stroke-width="2" stroke-miterlimit="10" x1="10.5" y1="144" x2="18.5" y2="144"/>
<line fill="none" stroke="#000000" stroke-width="2" stroke-miterlimit="10" x1="10.5" y1="111" x2="18.5" y2="111"/>
<line fill="none" stroke="#000000" stroke-width="2" stroke-miterlimit="10" x1="10.5" y1="80" x2="18.5" y2="80"/>
<line fill="none" stroke="#000000" stroke-width="2" stroke-miterlimit="10" x1="10.5" y1="49" x2="18.5" y2="49"/>
<line fill="none" stroke="#000000" stroke-width="2" stroke-miterlimit="10" x1="10.5" y1="18" x2="18.5" y2="18"/>
<line fill="none" stroke="#000000" stroke-width="2" stroke-miterlimit="10" x1="9.5" y1="17" x2="9.5" y2="145"/>
<path fill="#0A7DA5" d="M29.663,86.895c0,0,2.992-5.253,7.48-13.133c2.251-3.936,4.872-8.531,7.734-13.421
	c2.849-4.897,5.888-10.122,8.927-15.347c1.505-2.621,3.01-5.242,4.492-7.822c1.464-2.591,2.928-5.126,4.398-7.547
	c1.488-2.41,2.953-4.724,4.407-6.877c0.722-1.08,1.424-2.131,2.103-3.147c0.697-1.005,1.37-1.977,2.017-2.909
	c1.292-1.866,2.52-3.548,3.608-5.041c1.097-1.487,2.066-2.774,2.884-3.823c1.626-2.103,2.617-3.267,2.617-3.267l0.341,0.21
	c0,0-0.593,1.409-1.737,3.809c-0.568,1.203-1.281,2.648-2.113,4.297c-0.842,1.644-1.791,3.499-2.874,5.492
	c-0.542,0.997-1.105,2.036-1.688,3.111c-0.601,1.064-1.223,2.164-1.861,3.295c-1.268,2.269-2.673,4.619-4.153,7.033
	c-1.499,2.403-3.102,4.853-4.755,7.328c-1.636,2.485-3.297,5.01-4.958,7.535c-3.294,5.067-6.589,10.134-9.677,14.885
	c-3.076,4.759-5.997,9.168-8.495,12.952c-5.012,7.558-8.353,12.596-8.353,12.596L29.663,86.895z"/>
<path fill="#0A7DA5" d="M80.679,4.577c0,0,1.154,1.775,3.062,4.938c0.958,1.579,2.097,3.509,3.388,5.731
	c1.281,2.227,2.728,4.738,4.255,7.504c0.764,1.382,1.56,2.822,2.384,4.313c0.805,1.5,1.638,3.05,2.494,4.645
	c1.723,3.182,3.467,6.574,5.244,10.098c1.757,3.533,3.516,7.213,5.277,10.964c1.781,3.742,3.59,7.544,5.398,11.346
	c3.647,7.588,7.294,15.176,10.714,22.29c3.433,7.107,6.583,13.767,9.29,19.473c5.396,11.419,8.995,19.032,8.995,19.032l-0.357,0.18
	c0,0-3.964-7.429-9.911-18.572c-2.965-5.575-6.432-12.076-10.089-19.071c-3.67-6.987-7.586-14.441-11.501-21.895
	c-1.973-3.719-3.945-7.438-5.887-11.1c-1.96-3.651-3.865-7.258-5.652-10.775c-1.769-3.527-3.451-6.951-4.978-10.232
	c-0.769-1.638-1.517-3.23-2.24-4.771c-0.705-1.55-1.386-3.048-2.04-4.486c-1.309-2.875-2.462-5.534-3.485-7.891
	c-1.014-2.361-1.883-4.427-2.58-6.138c-1.401-3.417-2.138-5.403-2.138-5.403L80.679,4.577z"/>
<path fill="#0A7DA5" d="M137.021,104.529c0,0,3.118-3.644,7.857-9.05c2.363-2.709,5.115-5.875,8.109-9.223
	c2.984-3.358,6.167-6.94,9.35-10.523c1.579-1.803,3.158-3.605,4.713-5.38c1.539-1.789,3.074-3.53,4.604-5.172
	c1.547-1.628,3.063-3.181,4.558-4.6c0.742-0.714,1.465-1.409,2.163-2.081c0.714-0.657,1.403-1.293,2.065-1.903
	c1.323-1.221,2.574-2.304,3.682-3.265c1.116-0.954,2.1-1.774,2.926-2.435c1.646-1.327,2.639-2.036,2.639-2.037l0.291,0.275
	c0,0-0.653,1.03-1.888,2.747c-0.613,0.862-1.378,1.89-2.269,3.056c-0.898,1.159-1.91,2.468-3.056,3.856
	c-0.572,0.695-1.169,1.419-1.786,2.168c-0.632,0.735-1.285,1.494-1.957,2.275c-1.335,1.57-2.801,3.171-4.341,4.805
	c-1.556,1.619-3.209,3.248-4.91,4.884c-1.686,1.65-3.397,3.327-5.11,5.003c-3.4,3.376-6.801,6.752-9.989,9.917
	c-3.177,3.175-6.186,6.099-8.76,8.608c-5.136,5.03-8.601,8.346-8.601,8.346L137.021,104.529z"/>
<path fill="#0A7DA5" d="M189.997,48.885c-0.001,0,1.19,1.288,3.173,3.613c0.994,1.16,2.181,2.584,3.525,4.228
	c1.337,1.65,2.847,3.511,4.446,5.573c0.801,1.031,1.635,2.104,2.498,3.216c0.846,1.124,1.721,2.285,2.619,3.479
	c1.809,2.38,3.649,4.938,5.528,7.601c1.861,2.676,3.732,5.478,5.609,8.341c1.896,2.851,3.82,5.747,5.745,8.644
	c3.878,5.774,7.755,11.548,11.39,16.961c3.647,5.404,7.003,10.482,9.885,14.831c5.748,8.708,9.581,14.514,9.581,14.514l-0.328,0.23
	c0,0-4.167-5.569-10.419-13.924c-3.118-4.183-6.763-9.058-10.615-14.317c-3.865-5.251-7.988-10.853-12.11-16.453
	c-2.075-2.791-4.15-5.582-6.192-8.33c-2.061-2.735-4.064-5.443-5.953-8.099c-1.871-2.668-3.655-5.266-5.284-7.773
	c-0.82-1.25-1.617-2.466-2.389-3.642c-0.754-1.188-1.482-2.336-2.182-3.438c-1.4-2.203-2.641-4.252-3.741-6.068
	c-1.093-1.822-2.031-3.42-2.787-4.748c-1.518-2.651-2.326-4.208-2.327-4.208L189.997,48.885z"/>
<line fill="none" stroke="#4D4D4D" stroke-miterlimit="10" x1="29.5" y1="143.5" x2="244.5" y2="143.5"/>
<path fill="#083A82" d="M159.187,81.181c0,0,0.186-0.175,0.532-0.502c0.356-0.313,0.891-0.762,1.61-1.277
	c0.721-0.512,1.615-1.114,2.702-1.697c1.076-0.604,2.34-1.2,3.766-1.746c1.424-0.547,3.024-1.024,4.762-1.32
	c1.747-0.252,3.63-0.281,5.54-0.064c0.475,0.048,0.953,0.097,1.436,0.146c0.479,0.097,0.96,0.163,1.441,0.239
	c0.968,0.116,1.919,0.396,2.898,0.552c0.524,0.096,0.953,0.25,1.439,0.366c0.477,0.114,0.952,0.211,1.438,0.389
	c0.485,0.154,0.989,0.282,1.474,0.459l1.449,0.563l1.408,0.719c0.439,0.291,0.909,0.559,1.33,0.88
	c0.842,0.644,1.613,1.377,2.278,2.091c1.342,1.466,2.526,2.537,3.975,3.189c1.414,0.652,3.108,0.981,4.558,1.271
	c0.917,0.128,1.487,0.192,2.169,0.173c0.651-0.02,1.243-0.124,1.735-0.329c0.999-0.368,1.656-1.218,2.095-2.195
	c0.438-0.986,0.627-1.971,0.932-2.894c0.052-0.13,0.081-0.234,0.164-0.386c0.038-0.07,0.061-0.128,0.146-0.229
	c0.08-0.088,0.128-0.166,0.304-0.244c0.163-0.081,0.302-0.084,0.427-0.054c0.064,0.011,0.129,0.028,0.183,0.048l0.098,0.062
	c0.141,0.088,0.222,0.175,0.281,0.251c0.264,0.315,0.392,0.57,0.509,0.786c0.207,0.43,0.318,0.659,0.318,0.659l-0.246,0.173
	c0,0-0.182-0.168-0.523-0.482c-0.169-0.146-0.385-0.353-0.62-0.486c-0.111-0.123-0.274,0.003,0.045-0.045
	c0.194-0.13,0.071,0.031,0.092,0.206c-0.035,0.767,0.054,1.901-0.229,3.219c-0.146,0.658-0.367,1.395-0.818,2.107
	c-0.439,0.713-1.104,1.402-1.926,1.88c-0.825,0.475-1.754,0.745-2.687,0.886c-0.461,0.065-0.938,0.102-1.439,0.09
	c-0.538,0.012-0.874-0.033-1.321-0.06c-0.554-0.07-0.933-0.14-1.417-0.213c-0.46-0.067-0.926-0.164-1.399-0.309
	c-0.942-0.236-1.909-0.607-2.84-1.105c-1.903-0.984-3.442-2.721-4.57-4.234c-1.177-1.501-2.266-2.904-3.819-3.997l-1.196-0.761
	c-0.413-0.23-0.845-0.417-1.271-0.629c-0.85-0.392-1.854-0.689-2.735-0.927c-0.935-0.167-1.854-0.415-2.795-0.374
	c-0.467-0.007-0.929-0.024-1.386-0.01c-0.457,0.052-0.911,0.103-1.361,0.154c-1.792,0.219-3.465,0.707-5.052,1.054
	c-1.58,0.41-3.09,0.735-4.465,1.154c-0.694,0.186-1.358,0.374-1.982,0.585c-0.629,0.201-1.226,0.392-1.787,0.57
	c-1.125,0.383-2.106,0.718-2.915,0.993c-1.636,0.577-2.57,0.907-2.57,0.907L159.187,81.181z"/>
<path fill="#083A82" d="M55.264,48.886c1.281,0.665,2.567,1.262,3.853,1.808c0.647,0.266,1.292,0.522,1.938,0.76
	c0.65,0.233,1.305,0.435,1.951,0.65c0.656,0.184,1.313,0.349,1.969,0.498c0.652,0.173,1.318,0.254,1.976,0.356
	c0.663,0.065,1.319,0.164,1.981,0.188l0.496-0.051L69.49,53h0.008c0.016,0-0.11,0-0.053,0h0.017h0.034l0.134,0.104l0.269,0.054
	l0.269,0.028l0.197-0.004c0.134-0.018,0.261,0.011,0.409-0.016c0.592-0.051,1.167-0.212,1.74-0.446c0.568-0.243,1.125-0.579,1.642-1
	c1.026-0.858,1.888-1.993,2.61-3.208c0.729-1.22,1.339-2.516,2.129-3.787c0.391-0.64,0.852-1.2,1.485-1.758
	C81.005,42.414,81.889,42,82.813,42h0.004l0.119-0.062c0.713,0.049,1.433,0.082,2.132,0.237c0.693,0.163,1.39,0.323,2.041,0.585
	c0.664,0.241,1.302,0.516,1.922,0.821c0.625,0.301,1.224,0.624,1.823,0.951c2.367,1.334,4.565,2.786,6.716,4.137
	c0.542,0.34,1.082,0.657,1.624,0.977l0.819,0.455l0.102,0.058l0.109,0.056l0.013,0.008l0.026,0.017l0.052,0.034l0.208,0.133
	l0.418,0.266l0.836,0.533c0.276,0.169,0.56,0.348,0.844,0.612c0.557,0.483,1.132,0.952,1.644,1.446
	c0.476,0.513,0.928,1.045,1.384,1.563c0.41,0.558,0.807,1.123,1.187,1.69c0.345,0.596,0.701,1.175,0.99,1.793
	c0.295,0.614,0.56,1.237,0.765,1.891l-0.268,0.135c-0.415-0.512-0.854-1.007-1.299-1.485c-0.42-0.496-0.922-0.925-1.353-1.396
	l-1.422-1.287c-0.503-0.39-1.011-0.763-1.494-1.155c-0.501-0.348-1.01-0.639-1.497-0.96c-0.128-0.077-0.234-0.161-0.374-0.237
	l-0.445-0.218l-0.89-0.436l-0.445-0.218l-0.223-0.109l-0.056-0.027l-0.028-0.014l-0.014-0.006c-0.088-0.045,0.112,0.057,0.088,0.045
	l-0.007-0.003l-0.12-0.052l-0.955-0.424c-0.62-0.303-1.245-0.606-1.833-0.951c-2.4-1.325-4.494-2.958-6.626-4.386
	c-2.136-1.41-4.289-2.638-6.643-3.261l0.123,0.008c-0.514-0.067-1.034,0.037-1.555,0.333c-0.524,0.289-0.999,0.767-1.438,1.288
	c-0.859,1.072-1.554,2.333-2.262,3.584c-0.707,1.258-1.391,2.559-2.347,3.773c-0.943,1.2-2.292,2.317-3.942,2.769
	c-0.197,0.067-0.431,0.109-0.649,0.151l-0.334,0.058l-0.267,0.027l-0.268,0.027l-0.133,0.014l-0.034,0.105L69.488,56h-0.072
	l-0.576-0.096c-0.771,0.01-1.534-0.127-2.291-0.244c-0.747-0.153-1.5-0.316-2.222-0.546c-0.737-0.187-1.431-0.507-2.131-0.778
	c-0.688-0.301-1.365-0.629-2.009-1.01c-0.649-0.365-1.28-0.764-1.876-1.206c-1.203-0.862-2.316-1.847-3.242-3.004L55.264,48.886z"/>
</svg>
