<?xml version="1.0" encoding="utf-8"?>
<!-- Generator: Adobe Illustrator 16.0.0, SVG Export Plug-In . SVG Version: 6.00 Build 0)  -->
<svg version="1.2" baseProfile="tiny" id="Vrstva_1"
	 xmlns="http://www.w3.org/2000/svg" xmlns:xlink="http://www.w3.org/1999/xlink" x="0px" y="0px" width="140.5px" height="234px"
	 viewBox="0 0 140.5 234" xml:space="preserve">
<g>
	<path fill="#29ABE2" d="M71.394,4.506c-0.012-0.37-0.025-0.733-0.025-1.058C71.378,3.787,71.384,4.141,71.394,4.506z"/>
	<path fill="#29ABE2" d="M138.528,169.883c-0.016-17.696-10.319-28.785-21.335-44.729c-5.228-8.251-16.593-26.824-26.362-50.739
		C80.968,51.047,72.5,22.335,71.5,6.423c0-1.07,0-2.012,0-2.813c0,0.226,0.011,0.456,0,0.687c-0.015-0.291,0-0.574,0-0.848
		c0,0.502,0,1.077,0,1.685c0,0.078-0.033,0.154-0.04,0.233c-0.023-0.3-0.045-0.583-0.053-0.861c0.018,0.54,0.03,1.112,0.031,1.745
		c-0.013,0.108,0.036,0.22,0.054,0.331c-1.046,15.942-9.611,44.54-19.442,67.833c-9.77,23.915-21.196,42.488-26.424,50.739
		c-11.015,15.943-21.35,27.033-21.365,44.729C3.974,206.851,34.393,231.5,71.379,231.5c-0.027,0-0.053,0-0.08,0
		c-0.01,0,0.099,0,0.16,0c0.014,0,0.027,0,0.041,0c0-0.001,0-0.002,0-0.003C108.432,231.758,138.813,206.811,138.528,169.883z"/>
</g>
<g>
	<path fill="#FFFFFF" d="M71.395,65.092c-0.006-0.22-0.013-0.437-0.013-0.63C71.386,64.664,71.389,64.875,71.395,65.092z"/>
	<path fill="#FFFFFF" d="M104.987,163.739c-0.008-10.557-5.173-17.171-10.681-26.68c-2.613-4.922-8.275-16.001-13.16-30.266
		C76.215,92.854,71.5,75.728,71.5,66.236c0-0.639,0-1.201,0-1.679c0,0.135,0.006,0.272,0,0.41c-0.008-0.173,0-0.342,0-0.505
		c0,0.299,0,0.642,0,1.004c0,0.047-0.043,0.092-0.046,0.14c-0.012-0.179-0.036-0.347-0.04-0.514
		c0.009,0.322,0.009,0.664,0.009,1.041c-0.007,0.064,0.015,0.13,0.024,0.197c-0.523,9.51-4.808,26.568-9.724,40.463
		c-4.885,14.265-10.598,25.344-13.212,30.266c-5.507,9.509-10.675,16.127-10.683,26.684C37.685,185.792,52.894,200.5,71.387,200.5
		c-0.014,0-0.026,0-0.04,0c-0.005,0,0.049,0,0.08,0c0.007,0,0.073,0,0.073,0l0,0C89.5,200.656,105.13,185.767,104.987,163.739z"/>
</g>
<path fill="#FFFFFF" d="M136.863,184.853c-10.772,12.762-26.936,21.139-44.237,21.139c-16.707,0-31.776-7.486-42.491-19.491h-5.07
	c11.487,14.395,28.526,23.527,47.561,23.527c18.638,0,35.365-8.754,46.838-22.631L136.863,184.853z"/>
<path fill="#FFFFFF" d="M5.341,185.212c11,12.762,26.887,20.779,44.555,20.779c17.061,0,32.449-7.486,43.391-19.491h5.178
	c-11.73,14.395-29.131,23.527-48.569,23.527c-19.033,0-36.115-8.754-47.831-22.631L5.341,185.212z"/>
<rect x="50.383" y="141.5" fill="none" width="41.617" height="38.019"/>
<text transform="matrix(1 0 0 1 50.3828 177.0313)" fill="#29ABE2" font-family="'SegoeUI'" font-size="48">%</text>
</svg>
