<?xml version="1.0" encoding="utf-8"?>
<!-- Generator: Adobe Illustrator 16.0.0, SVG Export Plug-In . SVG Version: 6.00 Build 0)  -->
<svg version="1.2" baseProfile="tiny" id="Vrstva_1"
	 xmlns="http://www.w3.org/2000/svg" xmlns:xlink="http://www.w3.org/1999/xlink" x="0px" y="0px" width="255.5px" height="266px"
	 viewBox="0 0 255.5 266" xml:space="preserve">
<g>
	<path fill="#E0940E" d="M211,136.371c0,0-0.08,0.464-0.1,1.364c-0.037,0.902-0.033,2.227-0.193,3.987
		c-0.209,3.513-0.709,8.648-2.257,15.05c-0.194,0.8-0.403,1.621-0.608,2.464c-0.245,0.833-0.501,1.686-0.758,2.56
		c-0.228,0.886-0.539,1.766-0.84,2.672c-0.309,0.904-0.592,1.844-0.974,2.767c-1.395,3.743-3.204,7.702-5.497,11.766
		c-2.306,4.054-5.128,8.199-8.564,12.235c-3.479,3.982-7.506,7.938-12.268,11.382c-4.754,3.44-10.147,6.48-16.086,8.784
		c-5.921,2.344-12.403,3.845-19.123,4.519c-1.68,0.178-3.381,0.227-5.086,0.318c-0.854-0.003-1.711-0.006-2.571-0.009l-1.29-0.006
		l-0.265-0.004l-0.153-0.009l-0.306-0.018l-0.613-0.034c-0.818-0.053-1.639-0.105-2.462-0.159c-0.838-0.065-1.76-0.189-2.638-0.285
		c-1.798-0.17-3.501-0.502-5.241-0.788c-3.454-0.68-6.902-1.561-10.273-2.749c-1.703-0.536-3.354-1.249-5.025-1.9
		c-0.818-0.368-1.639-0.737-2.461-1.107c-0.825-0.36-1.635-0.755-2.433-1.181c-12.911-6.503-24.229-16.574-32.581-28.93
		c-8.292-12.394-13.41-27.283-14.098-42.701c-0.016-2.019-0.13-3.698-0.022-5.741c0.026-1.985,0.204-3.905,0.369-5.835
		c0.436-3.847,1.063-7.692,2.049-11.456c1.03-3.746,2.258-7.449,3.815-11.013c1.589-3.544,3.395-6.993,5.474-10.26
		c8.3-13.091,20.411-23.465,33.964-29.643c0.838-0.407,1.688-0.783,2.551-1.123c0.859-0.349,1.712-0.712,2.574-1.045
		c1.743-0.611,3.465-1.271,5.238-1.74c3.508-1.064,7.073-1.804,10.621-2.349c1.782-0.218,3.55-0.481,5.323-0.576
		c0.885-0.059,1.767-0.147,2.647-0.178c0.881-0.02,1.76-0.039,2.636-0.058l0.656-0.01l0.328-0.005l0.164-0.002l0.291,0.005
		l1.222,0.043c0.814,0.028,1.625,0.057,2.434,0.085c1.741,0.147,3.576,0.25,5.259,0.481c1.692,0.224,3.373,0.449,5.02,0.805
		c0.825,0.169,1.652,0.306,2.464,0.502c0.811,0.201,1.617,0.401,2.422,0.601c1.615,0.371,3.169,0.92,4.734,1.37
		c1.539,0.535,3.063,1.074,4.545,1.678c5.939,2.402,11.321,5.512,16.061,9.007c4.744,3.499,8.767,7.476,12.229,11.488
		c3.434,4.051,6.242,8.214,8.55,12.273c2.292,4.071,4.1,8.037,5.493,11.785c0.381,0.924,0.663,1.864,0.971,2.77
		c0.302,0.908,0.61,1.79,0.838,2.676c0.256,0.875,0.506,1.729,0.75,2.563c0.203,0.844,0.402,1.666,0.596,2.467
		c1.538,6.408,2.004,11.561,2.196,15.059c0.151,1.749,0.177,3.096,0.21,4.001c0.016,0.906,0.094,1.373,0.094,1.373V136.371z
		 M210,136.358c0,0-0.086-0.461-0.115-1.355c-0.049-0.893-0.062-2.222-0.241-3.943c-0.259-3.439-0.938-8.514-2.894-14.646
		c-0.926-3.078-2.321-6.366-4.046-9.804c-0.451-0.851-0.893-1.729-1.378-2.602c-0.506-0.86-1.024-1.736-1.55-2.628
		c-1.129-1.737-2.32-3.513-3.666-5.259c-2.663-3.508-5.828-6.961-9.47-10.203c-3.616-3.268-7.743-6.294-12.276-8.98
		c-9.072-5.323-19.847-9.419-31.713-10.555c-1.484-0.174-2.867-0.211-4.35-0.322c-0.809-0.012-1.621-0.025-2.435-0.037l-1.223-0.019
		l-1.014,0.039c-0.762,0.022-1.526,0.044-2.292,0.067c-0.766,0.029-1.53,0.113-2.299,0.166c-1.541,0.083-3.072,0.325-4.618,0.515
		c-3.072,0.496-6.178,1.05-9.229,1.954c-1.542,0.392-3.043,0.942-4.579,1.412l-2.262,0.843c-0.761,0.27-1.51,0.575-2.249,0.91
		c-11.937,5.054-22.94,13.709-30.818,25.041c-7.854,11.291-12.919,25.034-13.574,39.409c-0.114,3.583-0.062,7.188,0.309,10.776
		c0.435,3.574,1.038,7.144,1.982,10.632c0.998,3.467,2.172,6.89,3.654,10.178c1.521,3.266,3.245,6.433,5.216,9.428
		c1.973,2.991,4.167,5.823,6.566,8.442c2.429,2.59,4.985,5.037,7.748,7.195c5.506,4.337,11.598,7.728,17.887,10.116
		c0.779,0.316,1.567,0.603,2.367,0.853c0.793,0.26,1.585,0.52,2.375,0.779c1.608,0.431,3.18,0.928,4.792,1.252
		c3.187,0.78,6.41,1.192,9.575,1.553c1.588,0.121,3.185,0.295,4.7,0.303c0.776,0.017,1.5,0.063,2.309,0.059
		c0.825-0.011,1.647-0.022,2.467-0.034l0.614-0.195l0.307-0.194h0.153c0.075,0-0.102,0.186,0.041,0.184l1.156,0.029
		c0.768-0.045,1.534-0.041,2.297-0.084c1.519-0.166,3.034-0.234,4.522-0.462c5.96-0.816,11.659-2.19,16.969-4.129
		c5.302-1.956,10.258-4.329,14.78-7.066c4.517-2.741,8.638-5.786,12.236-9.084c3.639-3.258,6.791-6.729,9.456-10.24
		c1.345-1.751,2.535-3.529,3.663-5.27c0.525-0.894,1.041-1.771,1.547-2.632c0.485-0.875,0.922-1.753,1.372-2.605
		c1.724-3.443,3.108-6.737,4.028-9.819c1.945-6.138,2.591-11.229,2.833-14.655c0.172-1.71,0.215-3.062,0.258-3.957
		c0.025-0.899,0.109-1.364,0.109-1.364V136.358z"/>
	<path fill="#E0940E" d="M245.014,136.011c-1.38,0.46-2.776,0.895-4.143,1.375c-1.37,0.469-2.735,0.949-4.091,1.461
		c-1.362,0.49-2.698,1.042-4.035,1.581c-1.328,0.562-2.651,1.122-3.944,1.735c-2.58,1.224-5.091,2.592-7.268,4.258
		c-1.05,0.856-2.079,1.746-2.812,2.771c-0.746,1.011-1.321,2.08-1.505,3.2c-0.19,1.118-0.061,2.276,0.294,3.438
		c0.326,1.168,1.012,2.31,1.681,3.43c0.755,1.103,1.574,2.183,2.494,3.215c0.909,1.038,1.891,2.035,2.898,3.013
		c4.082,3.878,8.624,7.416,13.257,10.821l8.111,5.961l-10.123-1.2c-5.645-0.669-11.318-1.234-16.829-1.177
		c-1.373,0.024-2.738,0.06-4.062,0.185c-1.333,0.104-2.616,0.304-3.838,0.566c-1.188,0.296-2.354,0.639-3.234,1.152
		c-0.905,0.495-1.582,1.062-1.996,1.713c-0.406,0.658-0.637,1.478-0.712,2.479c-0.104,0.982,0.069,2.169,0.276,3.347
		c0.503,2.404,1.443,4.927,2.539,7.409c0.549,1.245,1.153,2.484,1.773,3.722c0.644,1.232,1.26,2.476,1.949,3.7
		c1.329,2.462,2.781,4.893,4.234,7.318l7.592,12.678l-12.901-7.368c-4.907-2.803-9.883-5.518-14.9-7.576
		c-2.496-1.015-5.022-1.866-7.365-2.274c-1.141-0.16-2.279-0.284-3.156-0.148c-0.902,0.109-1.56,0.339-2.054,0.669
		c-0.486,0.341-0.927,0.9-1.34,1.713c-0.429,0.781-0.723,1.881-0.972,3.007c-0.218,1.166-0.382,2.401-0.451,3.698
		c-0.089,1.285-0.098,2.622-0.078,3.966c0.101,5.402,0.816,11.011,1.639,16.589l2.397,16.273l-10.289-12.939
		c-0.887-1.114-1.755-2.253-2.654-3.347c-0.893-1.105-1.793-2.198-2.711-3.264c-0.906-1.083-1.848-2.109-2.781-3.142l-1.416-1.515
		l-1.437-1.456c-0.967-0.944-1.946-1.857-2.942-2.683c-0.993-0.839-2.003-1.556-2.999-2.201c-0.985-0.547-1.984-1.106-2.833-1.3
		c-0.861-0.229-1.558-0.268-2.175-0.148c-0.614,0.112-1.269,0.48-1.993,1.055c-0.727,0.543-1.452,1.436-2.155,2.356
		c-1.38,1.948-2.643,4.308-3.741,6.791c-2.208,4.997-3.931,10.452-5.536,15.93l-4.126,14.078l-3.897-14.078
		c-0.38-1.374-0.738-2.764-1.137-4.127c-0.381-1.372-0.772-2.738-1.192-4.086c-0.4-1.361-0.858-2.684-1.303-4.014
		c-0.462-1.318-0.942-2.623-1.461-3.894c-1.037-2.531-2.211-4.974-3.601-7.021c-0.708-0.977-1.443-1.931-2.227-2.562
		c-0.775-0.662-1.533-1.14-2.309-1.324c-0.776-0.19-1.648-0.173-2.643,0.058c-0.99,0.197-2.075,0.763-3.148,1.32
		c-1.073,0.65-2.151,1.374-3.2,2.213c-1.054,0.825-2.082,1.735-3.096,2.676c-4.045,3.81-7.769,8.203-11.386,12.665l-6.589,8.128
		l1.686-10.2c0.926-5.607,1.761-11.248,1.938-16.81c0.04-1.387,0.052-2.771-0.022-4.128c-0.053-1.364-0.206-2.694-0.429-3.984
		c-0.26-1.263-0.569-2.52-1.103-3.558c-0.512-1.054-1.162-1.946-2.002-2.553c-0.845-0.601-1.901-0.95-3.082-1.079
		c-1.172-0.163-2.476-0.016-3.767,0.167c-2.61,0.455-5.254,1.355-7.845,2.403c-1.298,0.524-2.584,1.104-3.866,1.698
		c-1.274,0.617-2.555,1.221-3.813,1.888c-1.267,0.645-2.521,1.321-3.771,2.008c-1.255,0.677-2.48,1.417-3.721,2.122l-5.328,3.027
		l3.106-5.248c2.908-4.915,5.736-9.896,7.96-15.069c1.097-2.584,2.051-5.226,2.564-7.875c0.215-1.313,0.383-2.649,0.227-3.884
		c-0.125-1.239-0.47-2.388-1.11-3.334c-0.646-0.941-1.607-1.67-2.716-2.235c-1.096-0.589-2.393-0.932-3.693-1.224
		c-1.324-0.254-2.683-0.433-4.069-0.511c-1.381-0.099-2.784-0.11-4.188-0.094c-1.406,0.018-2.817,0.091-4.23,0.178
		c-1.414,0.114-2.829,0.202-4.243,0.378c-2.829,0.296-5.656,0.717-8.481,1.141l-6.302,0.943l5.025-3.965
		c4.531-3.575,9-7.254,12.94-11.324c0.976-1.021,1.912-2.072,2.778-3.153c0.876-1.078,1.648-2.201,2.35-3.338
		c0.616-1.153,1.241-2.32,1.5-3.483c0.288-1.159,0.345-2.278,0.106-3.315c-0.23-1.04-0.823-2.01-1.585-2.924
		c-0.743-0.926-1.779-1.729-2.83-2.498c-2.186-1.494-4.709-2.693-7.3-3.757c-5.213-2.109-10.758-3.671-16.32-5.122l-9.373-2.443
		l9.373-2.834c5.5-1.663,10.98-3.441,16.056-5.734c2.52-1.151,4.951-2.442,6.981-3.953c0.968-0.771,1.911-1.566,2.523-2.415
		c0.638-0.841,1.077-1.664,1.207-2.475c0.136-0.813,0.051-1.682-0.235-2.652c-0.253-0.965-0.868-2.011-1.469-3.038
		c-0.694-1.029-1.457-2.056-2.333-3.056c-0.862-1.004-1.811-1.977-2.779-2.944c-3.927-3.853-8.433-7.38-13.005-10.803l-12.076-9.04
		L33.7,88.655c2.806,0.348,5.613,0.694,8.396,0.913c1.396,0.131,2.776,0.21,4.158,0.298c1.375,0.065,2.746,0.117,4.094,0.114
		c1.346-0.004,2.684-0.034,3.968-0.146c1.296-0.091,2.529-0.278,3.688-0.517c1.118-0.271,2.206-0.586,2.963-1.027
		c0.791-0.427,1.313-0.872,1.615-1.341c0.293-0.476,0.485-1.103,0.559-1.976c0.101-0.844-0.051-1.956-0.233-3.069
		c-0.455-2.29-1.348-4.772-2.406-7.227c-2.143-4.933-4.942-9.835-7.831-14.668l-9.287-15.542l15.762,9.066
		c4.88,2.807,9.828,5.523,14.777,7.571c2.46,1.01,4.943,1.851,7.192,2.25c1.088,0.157,2.17,0.276,2.947,0.153
		c0.809-0.096,1.332-0.29,1.7-0.538c0.359-0.256,0.719-0.705,1.089-1.436c0.382-0.693,0.662-1.738,0.898-2.815
		c0.207-1.123,0.366-2.323,0.432-3.596c0.085-1.258,0.092-2.576,0.071-3.903c-0.106-5.338-0.825-10.925-1.651-16.482l-2.91-19.577
		l12.222,15.643c3.496,4.475,7.122,8.854,10.943,12.62c0.957,0.928,1.923,1.823,2.899,2.625c0.974,0.817,1.954,1.506,2.909,2.121
		c0.934,0.512,1.88,1.036,2.621,1.193c0.758,0.195,1.3,0.211,1.757,0.124c0.451-0.082,0.976-0.377,1.617-0.888
		c0.638-0.476,1.32-1.319,1.984-2.195c1.32-1.861,2.51-4.201,3.565-6.654c0.53-1.231,1.024-2.504,1.503-3.794
		c0.462-1.304,0.938-2.601,1.358-3.942c0.439-1.327,0.852-2.675,1.254-4.031c0.419-1.347,0.799-2.723,1.201-4.083l5.334-18.039
		l4.947,18.039c1.502,5.476,3.122,10.929,5.209,15.896c1.044,2.463,2.223,4.816,3.541,6.702c0.665,0.889,1.35,1.747,2,2.243
		c0.653,0.53,1.202,0.85,1.69,0.947c0.492,0.103,1.073,0.09,1.861-0.105c0.772-0.159,1.738-0.684,2.691-1.199
		c0.972-0.617,1.966-1.307,2.952-2.125c0.988-0.803,1.966-1.697,2.932-2.625c3.861-3.764,7.514-8.135,11.038-12.601l11.413-14.46
		l-2.78,18.108c-0.854,5.563-1.603,11.156-1.736,16.532c-0.027,1.337-0.028,2.667,0.053,3.942c0.06,1.288,0.214,2.512,0.42,3.665
		c0.237,1.111,0.519,2.195,0.926,2.952c0.393,0.791,0.802,1.323,1.248,1.646c0.454,0.314,1.074,0.542,1.952,0.656
		c0.852,0.14,1.978,0.024,3.107-0.129c2.325-0.392,4.849-1.229,7.344-2.23c5.017-2.032,10.003-4.724,14.922-7.505l13.233-7.483
		l-7.839,12.878c-2.939,4.829-5.768,9.734-8.013,14.708c-1.103,2.48-2.05,5-2.561,7.406c-0.211,1.179-0.389,2.366-0.288,3.354
		c0.072,1.007,0.3,1.833,0.709,2.501c0.416,0.662,1.099,1.236,2.009,1.738c0.885,0.52,2.055,0.868,3.246,1.168
		c1.225,0.267,2.511,0.472,3.846,0.579c1.326,0.129,2.694,0.168,4.068,0.193c5.518,0.063,11.195-0.498,16.844-1.162l9.722-1.143
		l-7.789,5.719c-4.637,3.404-9.19,6.934-13.274,10.825c-1.008,0.98-1.991,1.979-2.901,3.021c-0.922,1.036-1.744,2.121-2.501,3.23
		c-0.673,1.127-1.361,2.275-1.689,3.457c-0.357,1.175-0.488,2.352-0.292,3.488c0.188,1.139,0.772,2.222,1.529,3.238
		c0.742,1.033,1.778,1.923,2.835,2.781c2.188,1.667,4.706,3.03,7.291,4.249c5.199,2.419,10.704,4.324,16.235,6.091l1.478,0.472
		L245.014,136.011z M242.794,135.526c-0.768-0.187-1.536-0.369-2.3-0.573c-1.415-0.367-2.827-0.745-4.233-1.157
		c-1.411-0.39-2.807-0.845-4.208-1.288c-1.396-0.46-2.784-0.957-4.161-1.5c-2.749-1.094-5.473-2.338-8.036-4.044
		c-1.258-0.894-2.52-1.839-3.576-3.105c-1.059-1.233-1.995-2.731-2.395-4.463c-0.41-1.722-0.299-3.516,0.104-5.141
		c0.383-1.656,1.132-3.079,1.874-4.483c0.808-1.345,1.681-2.63,2.63-3.825c0.941-1.205,1.94-2.339,2.961-3.445l1.555-1.626
		l1.595-1.569c1.083-1.019,2.165-2.042,3.281-3.011c1.105-0.987,2.229-1.946,3.358-2.894c1.125-0.958,2.276-1.87,3.414-2.808
		l1.933,4.576c-5.743,0.948-11.521,1.81-17.521,2.03c-3.005,0.089-6.066,0.024-9.27-0.557c-1.605-0.337-3.249-0.736-4.908-1.579
		c-1.636-0.806-3.321-2.015-4.535-3.75c-1.21-1.731-1.801-3.748-2.001-5.594c-0.231-1.882-0.032-3.582,0.2-5.236
		c0.56-3.256,1.57-6.186,2.688-9.009c0.563-1.411,1.17-2.782,1.791-4.142c0.641-1.343,1.279-2.692,1.965-3.996
		c1.338-2.641,2.772-5.193,4.211-7.745l5.395,5.395c-5.009,3.033-10.082,6.001-15.669,8.474c-2.808,1.218-5.733,2.34-9.071,3.018
		c-1.703,0.29-3.465,0.551-5.483,0.359c-1.974-0.16-4.197-0.75-6.143-2.055c-1.949-1.306-3.325-3.142-4.239-4.896
		c-0.956-1.788-1.422-3.517-1.822-5.202c-0.347-1.671-0.574-3.306-0.687-4.89c-0.134-1.595-0.167-3.146-0.17-4.686
		c0.023-6.143,0.697-12.004,1.455-17.832l8.633,3.647c-0.907,1.181-1.787,2.374-2.719,3.545c-0.92,1.177-1.854,2.349-2.82,3.508
		c-0.946,1.167-1.957,2.311-2.963,3.457l-1.557,1.699l-1.636,1.668c-1.119,1.101-2.276,2.188-3.534,3.238
		c-1.244,1.053-2.62,2.058-4.102,3.007c-0.813,0.443-1.54,0.923-2.446,1.309l-1.331,0.582l-1.473,0.473
		c-2.012,0.564-4.401,0.794-6.767,0.291c-2.383-0.49-4.415-1.691-6.012-2.976c-1.648-1.304-2.8-2.744-3.886-4.168
		c-2.052-2.867-3.482-5.875-4.751-8.746c-2.487-5.746-4.236-11.311-5.886-17.311h10.281c-0.407,2-0.781,2.99-1.214,4.427
		c-0.429,1.434-0.87,2.927-1.348,4.363c-0.454,1.434-0.98,2.902-1.494,4.338c-0.536,1.438-1.098,2.892-1.721,4.333
		c-1.258,2.881-2.677,5.792-4.728,8.683c-1.086,1.438-2.24,2.895-3.901,4.22c-1.609,1.305-3.666,2.531-6.085,3.037
		c-2.401,0.52-4.831,0.294-6.872-0.271l-1.495-0.474l-1.349-0.583c-0.918-0.387-1.652-0.868-2.477-1.313
		c-1.499-0.95-2.889-1.957-4.146-3.01c-1.27-1.049-2.437-2.137-3.567-3.237l-1.65-1.667l-1.57-1.697
		c-1.014-1.145-2.033-2.287-2.986-3.452c-0.975-1.158-1.916-2.328-2.843-3.502c-0.939-1.17-1.825-2.359-2.74-3.539l9.311-3.934
		c0.786,5.834,1.49,11.702,1.542,17.882c0.004,1.549-0.022,3.112-0.15,4.725c-0.107,1.601-0.329,3.258-0.676,4.96
		c-0.4,1.719-0.869,3.487-1.849,5.338c-0.937,1.814-2.362,3.733-4.398,5.106c-2.031,1.371-4.352,1.996-6.396,2.173
		c-2.093,0.209-3.898-0.048-5.644-0.335c-3.414-0.672-6.379-1.789-9.223-2.999c-5.653-2.457-10.765-5.4-15.813-8.407l6.475-6.475
		c2.927,5.094,5.787,10.252,8.148,15.921c1.163,2.85,2.227,5.816,2.843,9.188c0.26,1.721,0.485,3.497,0.254,5.521
		c-0.199,1.98-0.825,4.197-2.151,6.12c-1.329,1.927-3.173,3.267-4.928,4.147c-1.787,0.921-3.512,1.354-5.19,1.72
		c-1.665,0.314-3.291,0.509-4.868,0.59c-1.586,0.102-3.129,0.104-4.66,0.076c-6.107-0.137-11.931-0.958-17.717-1.867l3.027-7.167
		c4.629,3.698,9.213,7.494,13.472,11.929c1.06,1.12,2.093,2.281,3.083,3.522c0.995,1.231,1.928,2.574,2.798,4
		c0.813,1.504,1.636,3.03,2.093,4.902c0.474,1.83,0.631,3.931,0.161,5.977c-0.458,2.06-1.54,3.819-2.717,5.227
		c-1.188,1.45-2.543,2.49-3.888,3.471c-2.723,1.86-5.626,3.178-8.439,4.34C36.487,135.091,31,136.681,25,138.169v-5.277
		c6,1.701,11.36,3.507,16.86,5.973c2.742,1.25,5.507,2.658,8.074,4.535c1.262,0.981,2.547,2.015,3.605,3.387
		c1.054,1.337,1.993,2.948,2.35,4.779c0.368,1.82,0.189,3.673-0.283,5.313c-0.452,1.675-1.261,3.078-2.06,4.457
		c-0.863,1.317-1.785,2.564-2.78,3.717c-0.985,1.164-2.031,2.247-3.083,3.313c-4.246,4.218-8.867,7.863-13.536,11.408l-1.276-3.021
		c2.875-0.375,5.751-0.746,8.653-0.995c1.446-0.143,2.905-0.241,4.36-0.345c1.46-0.08,2.923-0.146,4.396-0.156
		c1.473-0.008,2.951,0.014,4.44,0.129c1.487,0.094,2.986,0.296,4.486,0.597c1.496,0.345,3.013,0.749,4.461,1.524
		c1.437,0.741,2.844,1.798,3.827,3.252c0.979,1.453,1.451,3.148,1.599,4.762c0.176,1.635-0.033,3.188-0.261,4.706
		c-0.558,3.013-1.561,5.821-2.684,8.541c-2.281,5.43-5.113,10.508-8.019,15.521l-2.221-2.221c4.994-2.938,10-5.896,15.417-8.263
		c2.712-1.173,5.518-2.23,8.57-2.846c1.542-0.261,3.126-0.49,4.824-0.321c1.672,0.144,3.459,0.612,5.014,1.631
		c1.554,1.022,2.69,2.497,3.485,3.989c0.83,1.507,1.268,3.063,1.645,4.597c0.331,1.533,0.559,3.063,0.678,4.571
		c0.14,1.513,0.185,3.01,0.199,4.5c0.014,1.49-0.03,2.968-0.088,4.443c-0.085,1.468-0.15,2.941-0.278,4.397
		c-0.213,2.926-0.549,5.819-0.888,8.714l-4.904-2.072c3.503-4.738,7.103-9.435,11.345-13.812c1.072-1.088,2.178-2.16,3.37-3.186
		c1.181-1.032,2.474-2.004,3.855-2.919c1.458-0.856,2.944-1.729,4.792-2.242c1.805-0.53,3.904-0.754,5.986-0.339
		c2.095,0.403,3.918,1.446,5.393,2.601c1.515,1.168,2.616,2.512,3.659,3.849c1.982,2.705,3.416,5.505,4.692,8.307
		c0.633,1.402,1.21,2.811,1.763,4.22c0.531,1.411,1.076,2.822,1.549,4.237c0.498,1.414,0.959,2.764,1.41,4.182
		c0.455,1.418,0.851,3.195,1.279,4.195h-8.023c1.546-6,3.191-11.374,5.559-17.091c1.215-2.851,2.56-5.698,4.552-8.503
		c1.047-1.393,2.158-2.781,3.73-4.039c1.525-1.241,3.452-2.385,5.708-2.859c2.24-0.488,4.516-0.28,6.455,0.251
		c1.988,0.517,3.561,1.397,5.107,2.265c1.457,0.92,2.818,1.898,4.055,2.93c1.25,1.027,2.404,2.096,3.524,3.18l1.637,1.646l1.56,1.68
		c1.008,1.135,2.021,2.268,2.971,3.426c0.97,1.149,1.908,2.313,2.832,3.481c0.937,1.164,1.821,2.35,2.733,3.522l-7.892,3.334
		c-0.79-5.813-1.496-11.658-1.553-17.774c-0.005-1.533,0.019-3.077,0.144-4.663c0.104-1.575,0.321-3.198,0.656-4.856
		c0.389-1.671,0.842-3.384,1.777-5.147c0.894-1.732,2.238-3.541,4.147-4.829c1.904-1.289,4.091-1.878,6.041-2.04
		c1.993-0.196,3.742,0.057,5.435,0.339c3.32,0.662,6.242,1.769,9.05,2.974c5.586,2.446,10.669,5.392,15.689,8.403l-5.31,5.31
		c-1.448-2.545-2.894-5.091-4.241-7.726c-0.69-1.302-1.336-2.647-1.979-3.988c-0.625-1.357-1.236-2.728-1.802-4.137
		c-1.124-2.82-2.142-5.748-2.71-9.006c-0.235-1.655-0.438-3.357-0.211-5.244c0.197-1.85,0.786-3.875,1.998-5.616
		c1.216-1.744,2.906-2.962,4.547-3.774c1.664-0.85,3.312-1.254,4.92-1.596c1.603-0.291,3.178-0.472,4.718-0.54
		c1.547-0.089,3.063-0.087,4.567-0.038c6.008,0.215,11.788,1.072,17.535,2.016l-2.012,4.761c-1.139-0.937-2.292-1.848-3.418-2.806
		c-1.132-0.946-2.256-1.905-3.363-2.892c-1.117-0.969-2.202-1.992-3.286-3.012l-1.597-1.571l-1.557-1.63
		c-1.021-1.108-2.021-2.245-2.964-3.454c-0.951-1.198-1.827-2.488-2.637-3.839c-0.745-1.412-1.498-2.842-1.883-4.512
		c-0.405-1.638-0.518-3.449-0.103-5.189c0.404-1.751,1.35-3.264,2.419-4.503c1.067-1.272,2.337-2.22,3.6-3.114
		c2.576-1.706,5.307-2.945,8.062-4.035c1.38-0.54,2.769-1.035,4.168-1.489c1.403-0.438,2.802-0.888,4.216-1.271
		c1.407-0.406,2.824-0.779,4.242-1.141C241.26,135.888,242.027,135.71,242.794,135.526z"/>
	<g>
		<path fill-rule="evenodd" fill="#0C0A0B" d="M76.29,138.041c-3.039-0.235-6.082-0.471-9.123-0.703c0-2.125,0-4.252,0-6.376
			c0.274-0.636,0.631-1.254,0.811-1.911c1.442-5.244,3.759-10.125,8.332-13.405c3.244-2.328,4.352-5.11,4.604-8.763
			c0.399-5.774,2.393-11.052,6.818-15.171c2.066-1.921,4.438-3.536,6.597-5.232c-2.542-1.836-5.271-3.717-7.876-5.74
			c-0.77-0.598-1.191-1.6-1.796-2.402c-0.352-0.467-0.747-0.903-1.13-1.349c-1.033-1.213-2.39-2.286-3.042-3.665
			c-1.281-2.72-3.749-4.958-3.759-8.217c0-0.232-0.269-0.453-0.356-0.698c-0.593-1.659-1.201-3.312-1.743-4.988
			c-0.343-1.068-0.595-2.164-0.853-3.255c-0.159-0.688-0.38-1.396-0.351-2.086c0.08-1.783,0.302-3.562,0.435-5.344
			c0.141-1.884,1.005-3.325,2.849-4.035c2.642-1.017,5.292-2.032,8.005-2.844c1.484-0.442,3.343-0.056,4.606-0.756
			c3.034-1.684,6.399-1.361,9.598-1.937c1.116-0.201,1.315-0.642,1.428-1.458c2.212,0,4.421,0,6.633,0
			c1.276,0.421,2.525,0.958,3.832,1.24c3.263,0.701,6.57,1.211,9.821,1.964c1.012,0.234,1.905,0.977,2.82,1.535
			c0.518,0.314,0.925,0.971,1.459,1.059c5.04,0.842,7.577,4.454,9.967,8.22c0.807,1.27,1.463,2.627,2.177,3.928
			c0.174-0.055,0.273-0.059,0.297-0.102c0.221-0.404,0.436-0.813,0.638-1.226c2.439-4.964,5.569-8.963,11.397-11.024
			c2.716-0.962,5.355-2.127,8.167-3.041c2.851-0.927,5.61-1.524,8.543-1.793c0.495-0.045,0.952-0.497,1.429-0.76
			c2.072,0,4.146,0,6.218,0c0.178,0.487,0.35,0.976,0.466,1.294c1.508,0.256,2.903,0.592,4.318,0.712
			c2.716,0.229,5.242,0.067,7.922,1.72c2.826,1.744,6.613,2.064,9.992,2.96c2.987,0.792,4.195,2.448,3.929,5.402
			c-0.089,0.975-0.041,1.96-0.021,2.94c0.023,1.297,0.309,2.632,0.083,3.883c-1.011,5.489-3.296,10.465-5.946,15.458
			c-3.39,6.381-9.173,10.124-14.464,14.594c0.171,0.139,0.411,0.381,0.695,0.555c8.396,5.196,12.89,12.477,13.052,22.175
			c0.032,2.02,0.853,3.813,2.682,5.145c5.441,3.965,8.801,9.216,10.093,15.671c0.263,1.313,0.528,2.624,0.792,3.934
			c0,0.798,0,1.596,0,2.394c-0.143,0.388-0.295,0.776-0.427,1.172c-1.116,3.308-1.597,7.007-3.484,9.835
			c-3.305,4.945-5.355,10.234-6.962,15.791c-1.512,5.232-3.142,10.422-6.957,14.646c-0.555,0-1.106,0-1.66,0
			c-0.822-0.344-1.622-0.766-2.475-1.018c-15.015-4.432-29.174-10.865-43.408-17.117c-2.441-1.074-4.817-2.279-7.221-3.426
			c0.855,0.201,1.767,0.283,2.559,0.619c5.989,2.543,11.954,5.133,17.921,7.703c1.795-3.059,2.079-6.805,0.844-10.469
			c-4.128-12.215-21.185-16.37-31.566-7.656c-1.153,0.965-2.143,2.107-3.331,3.289c0.908,0.479,1.445,0.766,1.98,1.049
			c0.004,0.23,0.01,0.463,0.013,0.699c-8.671-3.09-17.296-6.303-26.033-9.211c-4.069-1.357-8.349-2.134-12.534-3.177
			c0.002-0.198,0.007-0.402,0.008-0.604c0.602,0.046,1.204,0.092,1.85,0.141c1.26-6.072,2.216-12.055,0.604-18.133
			c-0.634-2.389-1.401-2.757-3.572-1.464c-6.38,3.795-9.271,9.321-8.906,16.51c0.062,1.2,0.557,1.663,1.705,1.688
			C76.281,137.621,76.287,137.83,76.29,138.041z M184.803,174.863c4.656,1.566,3.906,1.969,5.913-1.887
			c1.946-3.746,3.204-7.855,4.504-11.885c1.619-5.021,3.611-9.771,6.607-14.256c5.866-8.769,4.685-21.866-5.543-30.185
			c-2.867-2.333-4.215-4.823-4.395-8.281c-0.359-6.865-2.929-12.761-8.694-17.119c-1.413-1.065-2.868-2.075-4.279-3.143
			c-2.132-1.614-2.006-2.365,0.441-3.406c0.741-0.315,1.44-0.767,2.068-1.262c1.267-0.995,2.461-2.074,3.7-3.098
			c0.835-0.689,1.813-1.251,2.53-2.035c5.038-5.496,8.406-11.877,10.399-18.907c0.673-2.38,1.405-4.842,0.349-7.391
			c-0.271-0.647,0.079-1.548,0.189-2.325c0.259-1.771-0.45-2.977-2.233-3.532c-4.896-1.521-9.793-3.032-14.698-4.527
			c-0.379-0.115-0.805-0.082-1.304-0.125c-0.326,1.876-1.129,1.948-2.35,0.665c-0.338-0.355-0.87-0.755-1.32-0.763
			c-5.212-0.095-10.423-1.524-15.655,0.214c-1.849,0.612-3.944,0.504-5.906,0.839c-0.853,0.145-1.683,0.514-2.468,0.888
			c-1.567,0.75-3.122,1.532-4.635,2.377c-1.125,0.627-2.457,1.167-3.208,2.108c-1.953,2.451-3.639,5.098-5.423,7.673
			c-0.741,1.068-1.455,2.152-2.18,3.229c-0.752-1.032-1.812-1.967-2.206-3.112c-2.367-6.868-8.41-9.867-14.436-12.882
			c-0.678-0.338-1.608-0.232-2.423-0.287c-0.613-0.042-1.271,0.121-1.845-0.036c-5.313-1.458-10.709-1.911-16.22-1.554
			c-1.762,0.115-3.41,0.041-4.646,1.58c-0.229,0.282-1.653,0.161-1.691,0.023c-0.391-1.488-1.656-0.976-2.004-0.48
			c-1.14,1.625-2.781,1.301-4.283,1.262c-2.667-0.069-4.532,1.765-6.858,2.43c-4.48,1.282-4.497,1.216-4.989,5.746
			c-0.093,0.857-0.286,1.705-0.366,2.562c-0.04,0.439-0.052,0.941,0.124,1.329c1.4,3.066,1.552,6.436,2.958,9.604
			c1.314,2.947,3.056,5.688,4.312,8.651c0.337,0.79,1.334,1.301,1.931,2.014c2.076,2.475,4.227,4.754,7.1,6.555
			c1.528,0.958,2.601,2.617,4.679,2.843c1.335,0.144,1.478,0.845,0.764,1.761c-0.401,0.513-0.915,1.02-1.496,1.327
			c-8.556,4.548-12.778,11.599-13.15,20.893c-0.122,3.043-1.465,5.307-4.038,7.219c-6.563,4.877-9.092,11.687-9.616,19.602
			c1.422,0.1,2.604,0.183,3.77,0.268c0.138-1.751,0.155-3.274,0.392-4.769c1.015-6.34,4.588-10.977,10.414-14.006
			c2.482-1.294,4.637-0.518,5.132,1.978c0.579,2.91,1.051,5.891,1.051,8.84c0.001,3.407-0.561,6.814-0.884,10.268
			c3.402,0.876,6.81,1.754,10.564,2.716c-2.831-3.566-5.198-6.988-5.094-11.237c0.24-9.828,4.6-17.44,13.988-21.759
			c11.335-5.216,24.704-0.348,25.939,13.443c0.778,8.716-3.463,15.727-11.078,20.475c-2.897,1.806-6.399,2.726-9.527,4.007
			c1.937,0.764,4.192,1.652,6.494,2.557c0.409-0.441,0.771-0.83,1.127-1.227c6.579-7.263,17.763-9.15,27.043-4.559
			c8.436,4.176,11.819,11.997,9.427,21.963c0.769,0.328,1.559,0.662,2.519,1.072c2.174-5.461,5.815-9.801,10.32-13.348
			c2.673-2.104,5.792-3.816,8.957-5.18c3.516-1.508,7.656,0.063,8.972,3.189c1.826,4.33,2.977,8.783,1.832,13.566
			C189.209,168.031,187.547,171.66,184.803,174.863z M132.396,123.07c0.038-10.124-8.618-16.948-18.941-14.926
			c-9.162,1.796-16.097,9.344-17.298,18.831c-1.187,9.385,5.67,16.818,15.481,16.779
			C122.403,143.713,132.353,133.799,132.396,123.07z M188.842,158.918c-0.288-1.191-0.731-3.459-1.393-5.668
			c-1.337-4.488-4.416-5.906-8.829-3.904c-7.591,3.447-12.914,9.088-16.516,16.314c-0.607,1.215-0.447,1.838,0.968,2.344
			c5.804,2.084,11.587,4.221,17.325,6.457c1.372,0.535,2.144,0.221,2.997-0.758C186.857,169.748,188.551,165.166,188.842,158.918z"
			/>
		<path fill-rule="evenodd" fill="#FCFCFC" d="M189.502,177.986c3.815-4.225,5.445-9.414,6.957-14.646
			c1.606-5.557,3.657-10.846,6.962-15.791c1.888-2.828,2.368-6.528,3.484-9.835c0.132-0.396,0.284-0.784,0.427-1.172
			c0,13.816,0,27.632,0,41.445C201.388,177.986,195.443,177.986,189.502,177.986z"/>
		<path fill-rule="evenodd" fill="#C2085D" d="M123.145,150.961c-0.535-0.283-1.072-0.57-1.98-1.049
			c1.188-1.182,2.178-2.324,3.331-3.289c10.382-8.713,27.438-4.559,31.566,7.656c1.235,3.664,0.951,7.41-0.844,10.469
			c-5.967-2.57-11.932-5.16-17.921-7.703c-0.792-0.336-1.703-0.418-2.559-0.619l0.055,0.023c-0.368-0.121-0.732-0.248-1.102-0.369
			c-0.742-0.416-1.481-0.834-2.223-1.248C128.695,153.537,125.919,152.252,123.145,150.961z"/>
		<path fill-rule="evenodd" fill="#23151C" d="M123.145,150.961c2.774,1.291,5.551,2.576,8.324,3.871
			c-2.77-1.061-5.542-2.117-8.312-3.172C123.154,151.424,123.148,151.191,123.145,150.961z"/>
		<path fill-rule="evenodd" fill="#260B17" d="M84.598,138.668c-0.001,0.201-0.006,0.405-0.008,0.604
			c-2.765-0.409-5.531-0.819-8.3-1.231c-0.003-0.211-0.009-0.42-0.012-0.631C79.051,137.83,81.825,138.249,84.598,138.668z"/>
		<path fill-rule="evenodd" fill="#0C0A0B" d="M133.691,156.08c0.369,0.121,0.733,0.248,1.102,0.369
			C134.424,156.328,134.061,156.201,133.691,156.08z"/>
		<path fill-rule="evenodd" d="M184.803,174.863c2.744-3.203,4.406-6.832,5.366-10.83c1.145-4.783-0.006-9.236-1.832-13.566
			c-1.315-3.127-5.456-4.697-8.972-3.189c-3.165,1.363-6.284,3.076-8.957,5.18c-4.505,3.547-8.146,7.887-10.32,13.348
			c-0.96-0.41-1.75-0.744-2.519-1.072c2.393-9.967-0.991-17.787-9.427-21.963c-9.28-4.591-20.464-2.704-27.043,4.559
			c-0.355,0.396-0.718,0.785-1.127,1.227c-2.302-0.904-4.558-1.793-6.494-2.557c3.128-1.281,6.63-2.201,9.527-4.007
			c7.615-4.748,11.856-11.759,11.078-20.475c-1.235-13.791-14.604-18.659-25.939-13.443c-9.389,4.318-13.748,11.931-13.988,21.759
			c-0.104,4.249,2.263,7.671,5.094,11.237c-3.755-0.962-7.162-1.84-10.564-2.716c0.323-3.453,0.885-6.86,0.884-10.268
			c0-2.949-0.472-5.93-1.051-8.84c-0.495-2.495-2.649-3.271-5.132-1.978c-5.826,3.029-9.399,7.666-10.414,14.006
			c-0.236,1.494-0.254,3.018-0.392,4.769c-1.166-0.085-2.348-0.168-3.77-0.268c0.524-7.915,3.054-14.725,9.616-19.602
			c2.573-1.912,3.916-4.176,4.038-7.219c0.372-9.294,4.595-16.345,13.15-20.893c0.581-0.307,1.095-0.813,1.496-1.327
			c0.714-0.917,0.571-1.617-0.764-1.761c-2.078-0.226-3.15-1.884-4.679-2.843c-2.873-1.8-5.023-4.08-7.1-6.555
			c-0.597-0.713-1.594-1.224-1.931-2.014c-1.256-2.963-2.997-5.705-4.312-8.651c-1.406-3.167-1.558-6.538-2.958-9.604
			c-0.176-0.388-0.164-0.89-0.124-1.329c0.08-0.856,0.273-1.704,0.366-2.562c0.492-4.529,0.509-4.464,4.989-5.746
			c2.326-0.665,4.191-2.499,6.858-2.43c1.502,0.039,3.144,0.363,4.283-1.262c0.348-0.496,1.613-1.008,2.004,0.48
			c0.038,0.138,1.463,0.259,1.691-0.023c1.236-1.539,2.885-1.465,4.646-1.58c5.511-0.356,10.906,0.096,16.22,1.554
			c0.573,0.157,1.231-0.006,1.845,0.036c0.814,0.055,1.745-0.051,2.423,0.287c6.025,3.015,12.068,6.015,14.436,12.882
			c0.395,1.145,1.454,2.08,2.206,3.112c0.725-1.077,1.438-2.161,2.18-3.229c1.784-2.576,3.47-5.223,5.423-7.673
			c0.751-0.941,2.083-1.48,3.208-2.108c1.513-0.845,3.067-1.627,4.635-2.377c0.785-0.375,1.615-0.744,2.468-0.888
			c1.962-0.334,4.058-0.227,5.906-0.839c5.232-1.738,10.443-0.309,15.655-0.214c0.45,0.008,0.982,0.408,1.32,0.763
			c1.221,1.283,2.023,1.212,2.35-0.665c0.499,0.043,0.925,0.01,1.304,0.125c4.905,1.495,9.802,3.006,14.698,4.527
			c1.783,0.555,2.492,1.761,2.233,3.532c-0.11,0.777-0.46,1.678-0.189,2.325c1.057,2.549,0.324,5.011-0.349,7.391
			c-1.993,7.029-5.361,13.411-10.399,18.907c-0.718,0.784-1.695,1.346-2.53,2.035c-1.239,1.024-2.434,2.103-3.7,3.098
			c-0.628,0.495-1.327,0.947-2.068,1.262c-2.447,1.041-2.573,1.792-0.441,3.406c1.411,1.068,2.866,2.078,4.279,3.143
			c5.766,4.358,8.335,10.254,8.694,17.119c0.18,3.458,1.527,5.948,4.395,8.281c10.228,8.319,11.409,21.416,5.543,30.185
			c-2.996,4.484-4.988,9.234-6.607,14.256c-1.3,4.029-2.558,8.139-4.504,11.885C188.709,176.832,189.459,176.43,184.803,174.863z
			 M150.497,49.79c-0.863-0.674-1.486-1.365-2.275-1.7c-0.457-0.193-1.558,0.008-1.719,0.332c-1.96,3.93-3.994,7.842-5.61,11.906
			c-1.596,4-0.445,7.542,2.972,10.363c2.233,1.844,3.216,1.93,5.7,0.425c4.37-2.65,8.735-5.302,13.113-7.942
			c0.543-0.328,1.128-0.587,1.695-0.879c-0.252,0.768-0.735,1.185-1.261,1.547c-3.526,2.436-7.08,4.84-10.594,7.295
			c-4.027,2.813-4.234,4.548-1.065,8.291c0.219,0.257,0.449,0.506,0.699,0.734c5.253,4.785,11.647,5.978,18.565,5.313
			c0.599-0.056,1.111-0.946,1.662-1.448c1.415-0.636,3.105-1.011,4.816-1.158c1.808-0.156,2.998-0.493,1.424-2.465
			c1.826-0.655,3.448-1.21,5.039-1.826c0.555-0.214,1.477-0.597,1.467-0.88c-0.017-0.572-0.558-1.129-0.923-1.764
			c1.48-0.877,3.01-1.767,4.523-2.679c1.884-1.135,1.869-1.498-0.064-2.56c0.066-0.111,0.107-0.251,0.205-0.329
			c0.789-0.64,1.624-1.236,2.376-1.914c0.582-0.525,1.379-1.103,1.483-1.748c0.075-0.452-0.85-1.055-1.187-1.433
			c0.728-0.775,1.593-1.633,2.378-2.553c0.502-0.589,0.885-1.272,1.322-1.913c-0.721-0.365-1.441-0.73-2.134-1.081
			c3.757-3.825,3.921-4.752,0.79-5.594c0.532-0.947,1.051-1.873,1.574-2.798c1.013-1.805,0.824-2.113-1.378-2.137
			c-1.629-0.018-3.26-0.003-4.943-0.003c0.04-0.377,0.023-0.58,0.088-0.753c0.879-2.352,0.769-2.489-1.746-2.304
			c-1.984,0.146-3.973,0.259-6.134,0.397c0.78-2.321-0.384-2.431-2.079-2.025c-1.241,0.298-2.506,0.514-3.564,0.729
			c-0.086-0.843-0.152-1.506-0.219-2.169c-0.651,0.076-1.333,0.061-1.947,0.247c-1.539,0.467-3.049,1.025-4.454,1.506
			c-0.224-0.792-0.397-1.391-0.568-1.991c-0.629,0.174-1.32,0.241-1.877,0.542c-1.337,0.725-2.613,1.558-3.931,2.358
			c-1.166-2.468-1.172-2.477-3.216-1.018c-0.923,0.661-1.813,1.364-2.817,2.124c-0.182-0.339-0.302-0.557-0.414-0.778
			c-0.986-1.972-1.357-2.013-2.718-0.261C152.566,47.067,151.596,48.35,150.497,49.79z M117.792,46.754
			c-0.958-0.703-1.774-1.292-2.581-1.892c-2.314-1.721-2.313-1.723-3.358,0.866c-1.587-0.902-3.171-1.769-4.716-2.693
			c-0.878-0.528-1.406-0.435-1.597,0.604c-0.071,0.418-0.145,0.837-0.246,1.419c-1.249-0.525-2.306-1-3.385-1.41
			c-1.004-0.379-2.036-0.688-3.39-1.137c0.182,1.254,0.281,1.936,0.394,2.707c-1.313-0.26-2.512-0.505-3.715-0.738
			c-2.333-0.451-2.396-0.394-2.179,1.962c-2.076-0.101-4.138-0.188-6.199-0.308c-2.255-0.131-2.414,0.087-1.499,2.159
			c0.099,0.222,0.087,0.489,0.164,0.964c-2.306,0-4.477,0-7.215,0c0.99,1.939,1.794,3.506,2.636,5.153
			c-0.433,0.048-0.664,0.019-0.83,0.103c-0.789,0.396-1.564,0.822-2.345,1.239c0.466,0.628,0.842,1.355,1.426,1.861
			c0.869,0.752,1.887,1.347,3.131,2.21c-0.747,0.129-1.038,0.124-1.271,0.231c-0.637,0.292-1.251,0.63-1.874,0.951
			c0.379,0.511,0.686,1.091,1.149,1.519c1.029,0.953,2.13,1.829,3.236,2.761c-2.104,1.387-2.114,1.563-0.328,3.031
			c0.938,0.771,1.871,1.548,2.814,2.329c-1.647,1.474-1.621,1.69,0.279,2.825c1.391,0.83,2.783,1.651,4.216,2.499
			c-1.563,1.384-1.506,1.768,0.265,2.473c1.712,0.683,3.44,1.33,5.267,2.032c-1.146,1.734-0.285,2.232,1.401,2.398
			c1.641,0.163,3.261,0.512,4.927,0.784c-0.961,1.795,0.302,2.106,1.644,2.185c4.98,0.294,9.751-0.563,14.245-2.669
			c2.798-1.31,5.026-3.24,6.43-5.962c1.147-2.223,1.008-3.288-0.994-4.833c-4.062-3.137-8.199-6.184-12.383-9.325
			c0.709,0.24,1.498,0.365,2.12,0.745c4.248,2.587,8.496,5.18,12.663,7.883c1.069,0.692,1.854,0.825,2.983,0.208
			c4.085-2.235,5.883-5.895,5.09-10.381c-0.83-4.685-3.446-8.429-6.469-12.03c-1.294-1.54-2.321-1.918-3.536,0.054
			c-1.053-1.174-2.013-2.215-2.938-3.282C119.399,44.153,119.195,44.163,117.792,46.754z M140.217,122.042
			c0,10.335,7.784,19.616,18.539,22.114c10.379,2.406,20.171-4.227,21.27-14.41c1.079-9.957-5.776-19.905-16.226-23.546
			C151.466,101.901,140.218,109.46,140.217,122.042z M137.23,106.779c0.044-0.173,0.088-0.347,0.132-0.521
			c4.593,0.14,10.337-1.151,14.146-3.179c5.614-2.989,6.383-7.22,2.145-11.851c-0.363-0.399-0.74-0.792-1.146-1.151
			c-8.656-7.676-23.78-7.216-31.944,0.965c-3.367,3.378-3.284,7.175,0.401,10.197c1.342,1.099,2.885,2.195,4.533,2.687
			C129.345,105.073,133.311,105.852,137.23,106.779z M163.681,88.127c-2.093,0.353-4.204,0.63-6.261,1.118
			c-0.414,0.097-1.021,1.197-0.861,1.489c0.925,1.674,1.825,3.454,3.16,4.807c2.556,2.59,5.414,4.902,8.12,7.359
			c4.335,3.938,9.161,7.193,14.528,9.701c2.385,1.114,3.932,0.326,4.134-2.213c0.084-1.114,0.05-2.263-0.129-3.364
			C184.531,95.763,176.145,88.867,163.681,88.127z M199.829,134.158c-0.075-0.657-0.173-1.977-0.39-3.283
			c-1.022-6.202-4.352-10.92-10.019-14.062c-2.292-1.271-4.57-0.831-5.12,1.279c-0.849,3.252-1.773,6.653-1.601,9.939
			c0.228,4.392,1.385,8.75,2.323,13.089c0.623,2.868,1.729,5.6,4.172,7.581c1.847,1.502,3.182,1.443,4.844-0.25
			C197.787,144.631,199.796,140.114,199.829,134.158z M86.507,113.25c2.414-0.962,4.849-1.481,6.713-2.762
			c5.327-3.661,10.515-7.524,15.569-11.528c2.376-1.883,4.428-4.182,6.398-6.473c0.633-0.737,0.971-2.199,0.649-3.054
			c-0.269-0.709-1.695-1.405-2.62-1.421c-3.226-0.051-6.542-0.207-9.674,0.4C92.454,90.556,84.47,100.43,86.507,113.25z"/>
		<path fill-rule="evenodd" fill="#C2085D" d="M132.396,123.07c-0.043,10.729-9.992,20.643-20.758,20.684
			c-9.812,0.039-16.668-7.394-15.481-16.779c1.201-9.487,8.136-17.035,17.298-18.831
			C123.777,106.122,132.434,112.946,132.396,123.07z"/>
		<path fill-rule="evenodd" fill="#C2085D" d="M188.842,158.918c-0.291,6.248-1.984,10.83-5.447,14.785
			c-0.854,0.979-1.625,1.293-2.997,0.758c-5.738-2.236-11.521-4.373-17.325-6.457c-1.415-0.506-1.575-1.129-0.968-2.344
			c3.602-7.227,8.925-12.867,16.516-16.314c4.413-2.002,7.492-0.584,8.829,3.904C188.11,155.459,188.554,157.727,188.842,158.918z"
			/>
		<path fill-rule="evenodd" fill="#C1085D" d="M84.598,138.668c-2.772-0.42-5.547-0.839-8.319-1.259
			c-1.148-0.024-1.644-0.487-1.705-1.688c-0.365-7.188,2.526-12.715,8.906-16.51c2.171-1.293,2.938-0.925,3.572,1.464
			c1.611,6.078,0.655,12.061-0.604,18.133C85.802,138.76,85.199,138.714,84.598,138.668z"/>
		<path fill-rule="evenodd" fill="#080A06" d="M150.497,49.79c1.099-1.439,2.069-2.722,3.056-3.991
			c1.36-1.752,1.731-1.711,2.718,0.261c0.112,0.221,0.232,0.438,0.414,0.778c1.005-0.76,1.895-1.463,2.817-2.124
			c2.044-1.459,2.05-1.451,3.216,1.018c1.317-0.8,2.594-1.634,3.931-2.358c0.557-0.301,1.248-0.369,1.877-0.542
			c0.171,0.6,0.345,1.2,0.568,1.991c1.405-0.481,2.915-1.039,4.454-1.506c0.614-0.186,1.296-0.171,1.947-0.247
			c0.066,0.663,0.133,1.326,0.219,2.169c1.059-0.215,2.323-0.431,3.564-0.729c1.695-0.406,2.859-0.296,2.079,2.025
			c2.161-0.138,4.149-0.251,6.134-0.397c2.515-0.185,2.625-0.048,1.746,2.304c-0.064,0.173-0.048,0.376-0.088,0.753
			c1.684,0,3.314-0.015,4.943,0.003c2.202,0.024,2.391,0.332,1.378,2.137c-0.523,0.925-1.042,1.851-1.574,2.798
			c3.131,0.842,2.967,1.77-0.79,5.594c0.692,0.351,1.413,0.715,2.134,1.081c-0.438,0.64-0.82,1.323-1.322,1.913
			c-0.785,0.92-1.65,1.778-2.378,2.553c0.337,0.377,1.262,0.981,1.187,1.433c-0.104,0.645-0.901,1.223-1.483,1.748
			c-0.752,0.678-1.587,1.273-2.376,1.914c-0.098,0.077-0.139,0.218-0.205,0.33c1.934,1.061,1.948,1.424,0.064,2.559
			c-1.514,0.912-3.043,1.802-4.523,2.679c0.365,0.635,0.906,1.192,0.923,1.764c0.01,0.283-0.912,0.666-1.467,0.88
			c-1.591,0.616-3.213,1.171-5.039,1.826c1.574,1.973,0.384,2.31-1.424,2.465c-1.711,0.147-3.401,0.522-4.816,1.158
			c-0.551,0.502-1.063,1.392-1.662,1.448c-6.918,0.665-13.313-0.529-18.565-5.313c-0.25-0.228-0.48-0.477-0.699-0.734
			c-3.169-3.743-2.962-5.478,1.065-8.291c3.514-2.456,7.067-4.86,10.594-7.295c0.525-0.362,1.009-0.779,1.261-1.547
			c-0.567,0.292-1.152,0.551-1.695,0.879c-4.378,2.64-8.743,5.292-13.113,7.942c-2.484,1.505-3.467,1.419-5.7-0.425
			c-3.417-2.821-4.567-6.363-2.972-10.363c1.616-4.064,3.65-7.976,5.61-11.906c0.161-0.324,1.262-0.525,1.719-0.332
			C149.011,48.425,149.634,49.116,150.497,49.79z M172.786,45.553c-1.241,0.391-2.522,0.697-3.717,1.196
			c-1.415,0.592-2.214,0.35-2.187-1.446c-1.358,0.816-2.521,1.412-3.561,2.162c-1.775,1.28-2.131-0.248-2.587-1.226
			c-2.188,0.514-3.253,4.521-6.149,1.251c-1.05,1.337-1.894,2.647-2.974,3.739c-1.828,1.845-2.48-1.16-4.363-0.966
			c-1.525,3.459-3.306,7.047-4.691,10.771c-1.171,3.145-0.324,5.968,2.401,8.253c1.29,1.082,2.307,1.332,3.788,0.283
			c9.29-6.574,19.645-11.248,30.253-15.458c0.823-0.327,1.557-0.656,2.042,0.416c0.465,1.023,0.095,1.569-0.974,1.959
			c-1.479,0.538-2.916,1.195-4.34,1.858c-7.826,3.641-14.421,9.061-21.504,13.776c-3.825,2.547-3.901,3.921-0.51,7.105
			c0.734,0.69,1.567,1.324,2.456,1.81c3.931,2.145,8.148,3.186,12.623,2.894c1.472-3.362,5.096-1.377,7.097-2.784
			c0.474-3.334,4.011-2.211,5.49-3.821c-0.476-3.425,3.626-2.85,4.792-5.021c-1.451-0.738-0.808-1.48,0.126-2.224
			c1.21-0.962,2.404-1.941,3.641-2.943c-2.219-1.432-2.219-1.505-0.348-2.996c0.89-0.708,1.76-1.438,2.58-2.109
			c-0.785-0.471-1.985-0.908-1.952-1.225c0.081-0.759,0.643-1.543,1.192-2.167c0.645-0.728,1.486-1.296,2.327-2.006
			c-2.573-1.009-2.57-1.006-1.389-3.303c0.387-0.754,0.749-1.519,1.262-2.558c-2.365,0-4.406,0-6.636,0
			c0.071-1.018,0.126-1.827,0.181-2.603c-1.834,0-3.579-0.182-5.263,0.051c-1.65,0.23-2.861,0.243-2.914-1.815
			c-1.523,0.302-2.867,0.588-4.218,0.833c-1.168,0.211-1.947-0.059-1.707-1.43c0.013-0.145,0.025-0.288,0.042-0.431
			C172.993,45.437,172.892,45.493,172.786,45.553z"/>
		<path fill-rule="evenodd" fill="#090A07" d="M117.792,46.754c1.403-2.591,1.607-2.601,3.434-0.502
			c0.925,1.067,1.885,2.107,2.938,3.282c1.215-1.972,2.242-1.594,3.536-0.054c3.022,3.601,5.639,7.345,6.469,12.03
			c0.793,4.486-1.005,8.146-5.09,10.381c-1.13,0.618-1.914,0.484-2.983-0.208c-4.167-2.703-8.415-5.296-12.663-7.883
			c-0.622-0.38-1.411-0.505-2.12-0.745c4.184,3.141,8.321,6.188,12.383,9.325c2.002,1.544,2.142,2.61,0.994,4.833
			c-1.403,2.723-3.632,4.652-6.43,5.962c-4.494,2.106-9.265,2.963-14.245,2.669c-1.342-0.079-2.604-0.39-1.644-2.185
			c-1.666-0.272-3.286-0.621-4.927-0.784c-1.687-0.167-2.547-0.665-1.401-2.398c-1.826-0.702-3.555-1.349-5.267-2.032
			c-1.771-0.705-1.827-1.088-0.265-2.473c-1.433-0.848-2.825-1.669-4.216-2.499c-1.9-1.135-1.927-1.351-0.279-2.825
			c-0.943-0.781-1.877-1.558-2.814-2.329c-1.786-1.468-1.775-1.645,0.328-3.031c-1.106-0.932-2.207-1.808-3.236-2.761
			c-0.464-0.428-0.771-1.008-1.149-1.519c0.623-0.32,1.237-0.659,1.874-0.951c0.232-0.107,0.523-0.102,1.271-0.231
			c-1.244-0.864-2.262-1.458-3.131-2.21c-0.584-0.506-0.96-1.233-1.426-1.861c0.78-0.417,1.556-0.843,2.345-1.239
			c0.166-0.084,0.397-0.055,0.83-0.103c-0.842-1.646-1.646-3.214-2.636-5.153c2.738,0,4.909,0,7.215,0
			c-0.077-0.475-0.065-0.742-0.164-0.964c-0.915-2.071-0.756-2.29,1.499-2.159c2.062,0.12,4.123,0.207,6.199,0.308
			c-0.217-2.356-0.154-2.414,2.179-1.962c1.203,0.232,2.401,0.478,3.715,0.738c-0.112-0.771-0.212-1.453-0.394-2.707
			c1.354,0.45,2.386,0.758,3.39,1.137c1.079,0.41,2.136,0.885,3.385,1.41c0.102-0.582,0.175-1,0.246-1.419
			c0.19-1.04,0.719-1.132,1.597-0.604c1.545,0.925,3.129,1.792,4.716,2.693c1.045-2.589,1.044-2.587,3.358-0.866
			C116.018,45.462,116.834,46.051,117.792,46.754z M104.894,84.49c0.842,0.094,1.479,0.328,2.03,0.202
			c2.643-0.609,5.306-1.185,7.879-2.017c3.479-1.124,6.46-2.941,8.242-6.237c0.661-1.229,0.552-2.045-0.642-2.856
			c-5.172-3.519-10.297-7.099-15.467-10.62c-1.97-1.34-4.05-2.531-5.981-3.914c-0.38-0.271-0.535-1.186-0.368-1.67
			c0.1-0.295,1.008-0.447,1.558-0.458c0.449-0.007,0.906,0.287,1.356,0.452c7.792,2.855,14.921,6.859,21.682,11.503
			c2.76,1.896,4.038,1.708,5.965-1.044c0.561-0.803,1.063-1.772,1.178-2.712c0.752-6.019-2.558-10.416-6.402-14.83
			c-1.284,2.083-2.328,1.536-3.425,0.147c-0.827-1.045-1.775-2.003-2.903-3.262c-0.626,2.808-1.902,1.889-3.229,0.833
			c-0.73-0.58-1.506-1.108-2.311-1.698c-2.584,3.297-4.191-0.841-6.227-0.5c-2.115,2.589-4.076-0.168-5.929-0.07
			c-1.684,3.241-4.138,0.165-6.1,0.881c-0.345,1.539-0.345,1.519-2.217,1.497c-1.99-0.025-3.982-0.007-5.98-0.007
			c0.164,2.76,0.164,2.76-2.782,2.76c-1.127,0-2.254,0-3.601,0c0.563,1.092,0.951,1.857,1.347,2.621
			c1.258,2.436,1.215,2.526-1.698,3.08c1.07,0.739,2.012,1.373,2.936,2.033c1.352,0.966,1.285,1.905-0.198,2.656
			c-0.396,0.201-0.845,0.304-1.403,0.498c0.96,0.816,1.776,1.522,2.606,2.217c1.947,1.629,1.947,1.667,0.066,3.036
			c0.604,2.085,4.62,2.127,3.521,5.602c1.175,0.705,2.609,1.618,4.099,2.434c1.117,0.613,1.533,1.294,0.648,2.174
			c1.443,1.725,5.09,0.484,5.122,3.905c0.243,0.071,0.502,0.18,0.769,0.221c1.498,0.231,2.996,0.446,4.492,0.666
			C104.97,82.223,106.327,82.489,104.894,84.49z"/>
		<path fill-rule="evenodd" fill="#0C0709" d="M140.217,122.042c0.001-12.582,11.249-20.141,23.583-15.842
			c10.449,3.641,17.305,13.589,16.226,23.546c-1.099,10.183-10.891,16.816-21.27,14.41
			C148.001,141.659,140.217,132.377,140.217,122.042z M142.195,122.128c0,0.993-0.01,1.989,0.005,2.981
			c0.002,0.265,0.05,0.532,0.126,0.787c2.393,7.975,7.23,13.729,15.747,16.269c8.428,2.518,16.734-1.533,19.472-9.594
			c3.942-11.619-7.268-25.763-20.496-25.92C150.217,106.569,141.429,112.234,142.195,122.128z"/>
		<path fill-rule="evenodd" fill="#0C0609" d="M137.23,106.779c-3.92-0.927-7.886-1.706-11.733-2.854
			c-1.648-0.492-3.191-1.588-4.533-2.687c-3.686-3.021-3.769-6.819-0.401-10.197c8.164-8.181,23.288-8.641,31.944-0.965
			c0.405,0.36,0.782,0.752,1.146,1.151c4.238,4.631,3.47,8.862-2.145,11.851c-3.809,2.028-9.553,3.319-14.146,3.179
			C137.318,106.432,137.274,106.606,137.23,106.779z M137.533,86.278c-6.412-0.017-11.226,2.028-15.319,5.684
			c-3.149,2.813-3.028,5.537,0.252,8.242c0.47,0.386,0.965,0.773,1.509,1.041c9.267,4.549,18.534,4.577,27.631-0.323
			c3.486-1.877,3.866-4.582,1.391-7.651C148.904,88.195,143.145,86.566,137.533,86.278z"/>
		<path fill-rule="evenodd" fill="#0E070A" d="M163.681,88.127c12.464,0.74,20.851,7.636,22.691,18.896
			c0.179,1.102,0.213,2.25,0.129,3.364c-0.202,2.539-1.749,3.327-4.134,2.213c-5.367-2.508-10.193-5.764-14.528-9.701
			c-2.706-2.457-5.564-4.769-8.12-7.359c-1.335-1.353-2.235-3.132-3.16-4.807c-0.159-0.292,0.447-1.392,0.861-1.489
			C159.477,88.757,161.588,88.479,163.681,88.127z M158.77,90.64c1.358,4.761,19.225,19.031,25.508,20.598
			c1.394-4.561-1.44-12.038-6.361-16.142C172.376,90.48,165.886,89.454,158.77,90.64z"/>
		<path fill-rule="evenodd" fill="#0E070A" d="M199.829,134.158c-0.033,5.956-2.042,10.473-5.79,14.293
			c-1.662,1.693-2.997,1.752-4.844,0.25c-2.442-1.98-3.549-4.713-4.172-7.581c-0.938-4.339-2.096-8.697-2.323-13.089
			c-0.173-3.286,0.752-6.688,1.601-9.939c0.55-2.11,2.828-2.55,5.12-1.279c5.667,3.142,8.996,7.859,10.019,14.062
			C199.656,132.181,199.754,133.5,199.829,134.158z M197.957,136.013c-0.089-8.173-2.779-13.793-9.154-17.518
			c-1.282-0.751-2.616-1.179-2.984,0.726c-0.583,3.045-1.442,6.177-1.196,9.196c0.373,4.522,1.412,9.023,2.563,13.44
			c0.497,1.896,1.902,3.603,3.057,5.291c0.781,1.141,1.708,0.971,2.665-0.076C196.116,143.555,198.061,139.592,197.957,136.013z"/>
		<path fill-rule="evenodd" fill="#0B0608" d="M86.507,113.25c-2.037-12.82,5.947-22.693,17.036-24.838
			c3.132-0.607,6.448-0.451,9.674-0.4c0.925,0.017,2.352,0.712,2.62,1.421c0.321,0.854-0.017,2.317-0.649,3.054
			c-1.971,2.291-4.022,4.59-6.398,6.473c-5.055,4.004-10.242,7.867-15.569,11.528C91.355,111.768,88.921,112.288,86.507,113.25z
			 M88.085,111.053c1.68-0.813,3.206-1.294,4.412-2.184c7.107-5.238,14.766-9.861,20.563-16.598c0.535-0.622,0.951-1.34,1.482-2.103
			C100.731,86.94,86.847,96.2,88.085,111.053z"/>
		<path fill-rule="evenodd" fill="#71A227" d="M173.058,45.81c-0.242,1.37,0.537,1.64,1.705,1.429
			c1.351-0.246,2.694-0.531,4.218-0.833c0.053,2.058,1.264,2.046,2.914,1.815c1.684-0.233,3.429-0.051,5.263-0.051
			c-0.055,0.776-0.109,1.585-0.181,2.603c2.229,0,4.271,0,6.636,0c-0.513,1.039-0.875,1.803-1.262,2.558
			c-1.182,2.297-1.185,2.294,1.389,3.303c-0.841,0.71-1.683,1.278-2.327,2.006c-0.55,0.624-1.111,1.408-1.192,2.167
			c-0.033,0.317,1.167,0.754,1.952,1.225c-0.82,0.671-1.69,1.401-2.58,2.109c-1.871,1.49-1.871,1.564,0.348,2.996
			c-1.236,1.002-2.431,1.981-3.641,2.943c-0.934,0.744-1.577,1.486-0.126,2.224c-1.166,2.171-5.268,1.596-4.792,5.021
			c-1.479,1.61-5.017,0.486-5.49,3.821c-2.001,1.406-5.625-0.579-7.097,2.784c-4.475,0.292-8.692-0.749-12.623-2.894
			c-0.889-0.486-1.722-1.12-2.456-1.81c-3.392-3.184-3.315-4.558,0.51-7.105c7.083-4.715,13.678-10.135,21.504-13.776
			c1.424-0.663,2.86-1.321,4.34-1.858c1.068-0.39,1.438-0.936,0.974-1.959c-0.485-1.071-1.219-0.743-2.042-0.416
			c-10.608,4.211-20.963,8.884-30.253,15.458c-1.481,1.049-2.498,0.799-3.788-0.283c-2.726-2.286-3.572-5.108-2.401-8.253
			c1.386-3.723,3.166-7.312,4.691-10.771c1.883-0.194,2.535,2.811,4.363,0.966c1.08-1.091,1.924-2.402,2.974-3.739
			c2.896,3.27,3.961-0.737,6.149-1.251c0.456,0.978,0.812,2.506,2.587,1.226c1.039-0.75,2.202-1.346,3.561-2.162
			c-0.027,1.796,0.771,2.038,2.187,1.446c1.194-0.499,2.476-0.805,3.717-1.196C172.874,45.639,172.967,45.725,173.058,45.81z"/>
		<path fill-rule="evenodd" fill="#71A227" d="M172.786,45.553c0.105-0.06,0.207-0.116,0.312-0.175
			c-0.017,0.144-0.029,0.287-0.041,0.432C172.967,45.725,172.874,45.639,172.786,45.553z"/>
		<path fill-rule="evenodd" fill="#71A227" d="M104.894,84.49c1.434-2.001,0.076-2.267-1.367-2.479
			c-1.496-0.22-2.994-0.435-4.492-0.666c-0.267-0.041-0.525-0.15-0.769-0.221c-0.032-3.421-3.679-2.18-5.122-3.905
			c0.885-0.879,0.469-1.561-0.648-2.174c-1.489-0.816-2.924-1.729-4.099-2.434c1.099-3.475-2.917-3.517-3.521-5.602
			c1.881-1.37,1.881-1.407-0.066-3.036c-0.83-0.694-1.646-1.4-2.606-2.217c0.559-0.194,1.008-0.297,1.403-0.498
			c1.483-0.751,1.55-1.69,0.198-2.656c-0.924-0.661-1.865-1.294-2.936-2.033c2.913-0.554,2.956-0.644,1.698-3.08
			c-0.396-0.764-0.784-1.529-1.347-2.621c1.347,0,2.474,0,3.601,0c2.946,0,2.946,0,2.782-2.76c1.998,0,3.99-0.019,5.98,0.007
			c1.872,0.022,1.872,0.042,2.217-1.497c1.962-0.716,4.416,2.36,6.1-0.881c1.853-0.098,3.813,2.659,5.929,0.07
			c2.035-0.341,3.643,3.797,6.227,0.5c0.805,0.59,1.58,1.118,2.311,1.698c1.327,1.056,2.604,1.975,3.229-0.833
			c1.128,1.259,2.076,2.217,2.903,3.262c1.097,1.389,2.141,1.936,3.425-0.147c3.845,4.415,7.154,8.812,6.402,14.83
			c-0.115,0.94-0.617,1.91-1.178,2.712c-1.927,2.752-3.205,2.941-5.965,1.044c-6.761-4.644-13.89-8.648-21.682-11.503
			c-0.45-0.165-0.907-0.459-1.356-0.452c-0.55,0.011-1.458,0.163-1.558,0.458c-0.167,0.484-0.012,1.4,0.368,1.67
			c1.932,1.383,4.012,2.574,5.981,3.914c5.17,3.521,10.295,7.101,15.467,10.62c1.193,0.811,1.303,1.626,0.642,2.856
			c-1.782,3.295-4.763,5.113-8.242,6.237c-2.573,0.833-5.236,1.408-7.879,2.017C106.372,84.818,105.735,84.584,104.894,84.49z"/>
		<path fill-rule="evenodd" fill="#C2085D" d="M142.195,122.128c-0.767-9.895,8.021-15.56,14.854-15.477
			c13.229,0.157,24.438,14.301,20.496,25.92c-2.737,8.061-11.044,12.112-19.472,9.594c-8.517-2.539-13.354-8.294-15.747-16.269
			c-0.076-0.255-0.124-0.522-0.126-0.787C142.186,124.118,142.195,123.122,142.195,122.128z"/>
		<path fill-rule="evenodd" fill="#C2085D" d="M137.533,86.278c5.611,0.288,11.371,1.917,15.463,6.993
			c2.476,3.069,2.096,5.773-1.391,7.651c-9.097,4.899-18.364,4.872-27.631,0.323c-0.544-0.268-1.039-0.654-1.509-1.041
			c-3.28-2.706-3.401-5.429-0.252-8.242C126.308,88.306,131.121,86.262,137.533,86.278z"/>
		<path fill-rule="evenodd" fill="#C1085D" d="M158.77,90.64c7.116-1.186,13.606-0.159,19.146,4.457
			c4.921,4.104,7.755,11.581,6.361,16.142C177.994,109.67,160.128,95.401,158.77,90.64z"/>
		<path fill-rule="evenodd" fill="#C2085D" d="M197.957,136.013c0.104,3.579-1.841,7.542-5.05,11.059
			c-0.957,1.047-1.884,1.217-2.665,0.076c-1.154-1.688-2.56-3.395-3.057-5.291c-1.151-4.417-2.19-8.918-2.563-13.44
			c-0.246-3.02,0.613-6.151,1.196-9.196c0.368-1.904,1.702-1.477,2.984-0.726C195.178,122.22,197.868,127.84,197.957,136.013z"/>
		<path fill-rule="evenodd" fill="#C1085D" d="M88.085,111.053C86.847,96.2,100.731,86.94,114.542,90.169
			c-0.531,0.763-0.947,1.481-1.482,2.103c-5.797,6.736-13.455,11.359-20.563,16.598C91.291,109.759,89.765,110.24,88.085,111.053z"
			/>
	</g>
	<path fill="#3B7FB2" d="M237.112,202.613c-3.706,2.49-7.598,4.705-11.558,6.795c-3.969,2.074-8.013,4.041-12.198,5.7
		c-1.035,0.442-2.085,0.85-3.146,1.231c-1.059,0.387-2.11,0.797-3.178,1.165c-2.152,0.686-4.287,1.447-6.491,2.003
		c-4.361,1.263-8.869,2.12-13.452,2.616l-3.462,0.251l-0.434,0.031l-0.217,0.016l-0.108,0.008l-0.055,0.037
		c0.059,0.002-0.142,0.033-0.139,0.033h-0.835l-1.679-0.04c-2.477-0.14-4.817-0.387-7.111-0.852
		c-4.618-0.848-9.031-2.269-13.325-3.847c-4.297-1.58-8.461-3.394-12.546-5.282l-12.126-5.701
		c-4.012-1.882-8.012-3.714-12.028-5.377c-4.015-1.657-8.049-3.166-12.097-4.319c-4.043-1.154-8.094-1.996-12.069-2.271
		c-0.499-0.058-0.989-0.036-1.482-0.061l-0.739-0.021l-0.369-0.119l-0.092-0.111h-0.046c0.276,0,0.046,0.108,0.095,0.109
		l-0.209,0.061l-3.341,0.129l-1.67,0.063l-1.553,0.137l-3.08,0.27c-1.024,0.082-2.109,0.266-3.161,0.388
		c-1.06,0.145-2.118,0.245-3.177,0.426c-2.118,0.375-4.237,0.656-6.348,1.119l-3.167,0.64l-3.158,0.729
		c-2.108,0.464-4.199,1.048-6.294,1.585c-4.176,1.162-8.342,2.384-12.461,3.757c-2.058,0.688-4.11,1.395-6.143,2.137
		c-2.007,0.735-4.106,1.524-5.954,2.293l-8.388,3.492l-0.115-9.22l-0.225-18.044l-0.053-4.281l4.053-1.655
		c2.28-0.932,4.357-1.697,6.542-2.488c2.16-0.777,4.329-1.514,6.505-2.229c4.35-1.433,8.757-2.698,13.196-3.886
		c2.232-0.557,4.452-1.148,6.715-1.617l3.383-0.736l3.414-0.646c2.265-0.465,4.588-0.751,6.884-1.124
		c2.317-0.302,4.646-0.572,6.988-0.792l3.539-0.241l1.771-0.112l1.793-0.028l3.586-0.05l0.224-0.003l0.423,0.014l0.417,0.02
		l0.834,0.037l0.835,0.038l0.417,0.02l0.501,0.047c1.331,0.137,2.763,0.258,3.951,0.479l1.858,0.304l1.82,0.381
		c2.431,0.505,4.769,1.174,7.08,1.879c4.6,1.446,8.961,3.216,13.196,5.091c4.231,1.88,8.326,3.883,12.35,5.894
		c8.029,4.035,15.798,8.175,23.58,11.372c3.882,1.587,7.768,2.965,11.563,3.79c1.905,0.463,3.761,0.7,5.594,0.889l1.352,0.058
		l0.675,0.032c0.07,0-0.474,0.01-0.218,0.005l0.052-0.002l0.104-0.004l0.209-0.007l0.417-0.014l3.34-0.113
		c0.272-0.013,0.571-0.013,0.82-0.034l0.709-0.083l1.417-0.157c0.958-0.118,1.857-0.153,2.897-0.362l3.034-0.512
		c1.012-0.165,2.022-0.44,3.034-0.653c2.028-0.407,4.04-1.025,6.061-1.563c1.007-0.294,2.008-0.634,3.012-0.947
		c1.007-0.309,2.008-0.644,3.003-1.01c4.005-1.366,7.952-2.997,11.842-4.752c0.976-0.433,1.943-0.884,2.901-1.354
		c0.967-0.455,1.922-0.927,2.869-1.413c0.957-0.474,1.887-0.976,2.826-1.469c0.907-0.492,1.888-1.033,2.667-1.487l-2.974,4.357
		l3.422-18.003l9.338,6.372c-1.138,0.666-2.113,1.192-3.161,1.76c-1.032,0.539-2.062,1.091-3.101,1.602
		c-1.034,0.526-2.074,1.036-3.122,1.526c-1.042,0.506-2.092,0.991-3.15,1.458c-4.222,1.892-8.507,3.648-12.922,5.119
		c-1.092,0.393-2.199,0.751-3.318,1.083c-1.117,0.337-2.223,0.697-3.348,1.013c-2.271,0.586-4.51,1.239-6.83,1.689
		c-4.58,1.048-9.319,1.666-14.109,1.946l-3.622,0.073l-1.081,0.011l-0.834-0.047l-1.683-0.099c-2.729-0.276-5.142-0.653-7.498-1.256
		c-4.744-1.131-9.158-2.805-13.409-4.64c-8.477-3.733-16.295-8.17-24.113-12.35c-3.905-2.095-7.801-4.141-11.736-6.028
		c-3.939-1.875-7.906-3.628-11.941-5.075c-4.037-1.429-8.153-2.533-12.312-3.078c-0.52-0.09-1.039-0.102-1.559-0.158l-0.781-0.069
		l-0.391-0.035l-0.098,0.117l-0.049,0.121c0.139,0,0.009,0,0.026,0l-0.209-0.131l-3.342-0.146l-1.671-0.073l-1.614,0.023
		l-3.226,0.08c-2.167,0.114-4.362,0.285-6.547,0.456c-2.182,0.252-4.379,0.409-6.558,0.752l-3.278,0.459l-3.268,0.551
		c-2.185,0.346-4.349,0.813-6.524,1.234c-4.33,0.938-8.668,1.902-12.965,3.049c-4.296,1.146-8.578,2.377-12.815,3.773
		c4.054-1.87,8.213-3.512,12.405-5.071c4.192-1.563,8.445-2.976,12.744-4.259c2.159-0.608,4.309-1.261,6.492-1.796l3.27-0.834
		l3.295-0.744c2.191-0.532,4.425-0.884,6.643-1.327c2.234-0.377,4.47-0.692,6.739-0.972l3.444-0.329l1.722-0.155l1.67-0.072
		l3.34-0.302l0.208-0.166h0.297l0.443,0.165l0.888,0.095c0.59,0.021,1.189,0.041,1.774,0.1c4.717,0.289,9.33,1.225,13.788,2.467
		c4.464,1.239,8.765,2.858,12.964,4.606c4.202,1.745,8.306,3.634,12.364,5.537c8.109,3.798,16.054,7.737,24.079,10.761
		c4,1.513,8.017,2.838,11.987,3.595c1.981,0.432,4,0.61,5.705,0.741l1.656,0.027l0.836,0.011c0.057,0.002-0.306-0.006-0.13-0.004
		l0.048-0.004l0.096-0.006l0.191-0.013l0.383-0.025l3.056-0.192c4.085-0.418,8.196-1.063,12.27-2.159
		c2.043-0.464,4.062-1.139,6.087-1.732c1.009-0.322,2.01-0.689,3.015-1.03c1.006-0.336,2.006-0.698,2.998-1.097
		c3.987-1.497,7.913-3.229,11.773-5.085c0.968-0.458,1.927-0.935,2.877-1.428c0.958-0.48,1.904-0.978,2.842-1.488
		c0.947-0.497,1.867-1.024,2.796-1.542c0.898-0.517,1.866-1.08,2.639-1.561l11.578-7.214l-2.24,13.586l-2.982,18.081l-0.466,2.823
		l-2.508,1.535c-1.131,0.691-2.094,1.241-3.132,1.833c-1.022,0.563-2.042,1.139-3.071,1.675c-1.024,0.551-2.056,1.086-3.095,1.601
		c-1.032,0.53-2.074,1.042-3.126,1.533c-4.191,1.993-8.455,3.852-12.854,5.454c-1.087,0.425-2.193,0.811-3.313,1.17
		c-1.116,0.364-2.223,0.752-3.35,1.096c-2.275,0.642-4.521,1.352-6.856,1.858c-1.164,0.261-2.306,0.578-3.489,0.791l-3.549,0.644
		c-1.145,0.239-2.474,0.349-3.726,0.506l-1.903,0.215l-0.952,0.104c-0.305,0.027-0.563,0.03-0.848,0.046l-3.338,0.152l-1.104,0.042
		l-0.994-0.026l-1.988-0.067c-2.601-0.219-5.178-0.538-7.609-1.108c-4.919-1.063-9.465-2.682-13.832-4.443
		c-8.72-3.559-16.715-7.793-24.613-11.736c-3.938-1.987-7.844-3.913-11.75-5.666c-3.904-1.748-7.81-3.341-11.709-4.581
		c-1.948-0.6-3.895-1.168-5.826-1.572c-1.924-0.461-3.918-0.714-5.565-0.911l-0.33-0.041l-0.417-0.024l-0.834-0.048l-0.834-0.048
		l-0.417-0.023l-0.104-0.007l-0.052,0.012c0.404,0.016,0.084,0.023,0.162,0.023h-0.193l-3.096-0.003l-1.548-0.005l-1.564,0.079
		l-3.131,0.173c-2.094,0.174-4.197,0.392-6.299,0.639c-2.105,0.321-4.212,0.546-6.317,0.956c-4.216,0.686-8.417,1.646-12.616,2.62
		c-4.189,1.034-8.374,2.146-12.513,3.421c-2.069,0.636-4.132,1.292-6.179,1.983c-2.019,0.685-4.136,1.425-5.995,2.143l3.999-5.937
		l-0.225,18.044l-8.502-5.729c2.291-0.879,4.386-1.596,6.583-2.336c2.173-0.728,4.354-1.413,6.541-2.078
		c4.371-1.336,8.796-2.49,13.248-3.55c2.238-0.493,4.461-1.028,6.722-1.446l3.379-0.656l3.406-0.564
		c2.259-0.412,4.571-0.644,6.854-0.962c2.31-0.25,4.596-0.464,6.948-0.621l3.59-0.151l1.783-0.063l1.671,0.02l3.342,0.03
		l0.209-0.006h0.199l0.058,0.014l0.116,0.014l0.465,0.033l0.93,0.066c0.617,0.054,1.245,0.066,1.851,0.157
		c4.902,0.559,9.58,1.74,14.032,3.257c4.451,1.532,8.685,3.388,12.808,5.352c4.12,1.97,8.121,4.068,12.071,6.185l11.755,6.312
		c3.91,2.043,7.813,4.032,11.767,5.82c3.956,1.769,7.973,3.354,12.07,4.395c2.044,0.569,4.135,0.895,6.092,1.161l1.66,0.119
		l0.834,0.058l0.718-0.005l3.216-0.014c4.292-0.203,8.636-0.609,12.926-1.49c2.16-0.357,4.283-0.925,6.427-1.418
		c1.065-0.271,2.121-0.587,3.184-0.878c1.064-0.286,2.122-0.6,3.17-0.948c4.218-1.311,8.384-2.833,12.497-4.506
		C229.088,206.49,233.152,204.667,237.112,202.613z"/>
</g>
</svg>
