<?xml version="1.0" encoding="utf-8"?>
<!-- Generator: Adobe Illustrator 16.0.0, SVG Export Plug-In . SVG Version: 6.00 Build 0)  -->
<!DOCTYPE svg PUBLIC "-//W3C//DTD SVG 1.1//EN" "http://www.w3.org/Graphics/SVG/1.1/DTD/svg11.dtd">
<svg version="1.1" id="Vrstva_1" xmlns="http://www.w3.org/2000/svg" xmlns:xlink="http://www.w3.org/1999/xlink" x="0px" y="0px"
	 width="227.027px" height="228.378px" viewBox="0 0 227.027 228.378" enable-background="new 0 0 227.027 228.378"
	 xml:space="preserve">
<g>
	<path fill="#3F3F3F" d="M217.33,95.703h-18.395c-2.052-7-5.285-16.697-9.508-23.776l12.989-13.373
		c3.412-3.408,2.896-9.124-0.516-12.533l-17.487-17.584c-3.405-3.409-8.419-3.455-11.828-0.046L160.74,41.384
		c-6.961-4.144-14.442-7.349-21.442-9.39V13.431c0-4.821-6.253-8.728-11.074-8.728h-24.73c-4.821,0-7.195,3.907-7.195,8.728v18.563
		c-7,2.041-16.422,5.223-23.385,9.367L59.407,28.234c-3.409-3.409-9.127-3.409-12.533,0L29.29,45.722
		c-3.409,3.409-3.456,8.938-0.047,12.343l13.069,13.862c-4.223,7.079-7.48,16.776-9.531,23.776H14.39
		c-4.821,0-9.092,2.013-9.092,6.831v24.731c0,4.82,4.271,11.438,9.092,11.438h18.518c2.042,7,5.206,14.295,9.302,21.188
		l-13.123,12.536c-3.409,3.408-3.921,8.641-0.516,12.05l17.487,17.342c3.409,3.408,9.45,3.334,12.859-0.074l13.866-13.131
		c6.996,4.179,16.514,7.353,23.514,9.407v18.35c0,4.817,2.374,6.332,7.195,6.332h24.73c4.821,0,11.074-1.515,11.074-6.332v-18.35
		c7-2.055,14.577-5.265,21.573-9.446l12.405,12.992c3.412,3.405,8.645,3.405,12.054,0l17.338-17.49
		c3.412-3.409,3.338-8.935-0.067-12.343l-13.055-11.843c4.1-6.894,7.225-14.188,9.266-21.188h18.519
		c4.817,0,5.968-6.617,5.968-11.438v-24.731C223.297,97.716,222.147,95.703,217.33,95.703z M115.86,181.396
		c-37.686,0-68.238-30.549-68.238-68.237c0-37.683,30.552-68.234,68.238-68.234c37.682,0,68.234,30.552,68.234,68.234
		C184.094,150.847,153.542,181.396,115.86,181.396z"/>
	<circle fill="#3F3F3F" cx="115.496" cy="113.9" r="50.685"/>
</g>
</svg>
