<?xml version="1.0" encoding="utf-8"?>
<!-- Generator: Adobe Illustrator 16.0.0, SVG Export Plug-In . SVG Version: 6.00 Build 0)  -->
<svg version="1.2" baseProfile="tiny" id="Vrstva_1"
	 xmlns="http://www.w3.org/2000/svg" xmlns:xlink="http://www.w3.org/1999/xlink" x="0px" y="0px" width="344px" height="349.333px"
	 viewBox="0 0 344 349.333" xml:space="preserve">
<circle fill="#FFFFFF" stroke="#F78100" stroke-width="10" stroke-miterlimit="10" cx="173.504" cy="263.667" r="73.459"/>
<g>
	<line fill="none" stroke="#F78100" stroke-width="3" stroke-miterlimit="10" x1="173.91" y1="264.613" x2="187.098" y2="239.662"/>
	<g>
		<polygon fill="#F78100" points="196.997,220.935 193.832,253.023 186.358,241.062 172.269,241.625 		"/>
	</g>
</g>
<path fill="#F78100" d="M226.831,263.793c0,0,0.001-0.717,0.004-2.059c-0.003-0.326,0.01-0.733-0.006-1.101
	c-0.018-0.36-0.037-0.754-0.058-1.179c-0.021-0.427-0.043-0.887-0.067-1.377c-0.05-0.509-0.103-1.051-0.158-1.623
	c-0.238-2.285-0.652-5.063-1.498-8.168c-0.829-3.106-2.05-6.553-3.82-10.124c-1.761-3.575-4.135-7.233-7.079-10.769
	c-1.494-1.746-3.104-3.49-4.909-5.109c-1.774-1.652-3.725-3.197-5.801-4.639c-4.146-2.894-8.869-5.286-13.942-6.983
	c-2.534-0.862-5.169-1.483-7.841-1.986c-2.679-0.475-5.408-0.72-8.15-0.835c-1.288,0.009-2.88-0.045-4.15,0.053
	c-1.333,0.034-2.703,0.182-4.068,0.318c-2.717,0.353-5.419,0.829-8.042,1.557c-5.249,1.43-10.229,3.599-14.676,6.34
	c-2.227,1.363-4.338,2.849-6.281,4.46c-1.972,1.578-3.757,3.299-5.425,5.04c-3.295,3.523-6.023,7.242-8.11,10.931
	c-2.097,3.685-3.616,7.295-4.697,10.583c-1.099,3.287-1.721,6.261-2.121,8.723c-0.095,0.617-0.186,1.201-0.271,1.751
	c-0.06,0.554-0.116,1.072-0.167,1.555c-0.107,0.966-0.187,1.789-0.207,2.459c-0.07,1.341-0.108,2.056-0.108,2.056
	s-0.001-0.716-0.004-2.06c-0.017-0.673,0.018-1.5,0.072-2.474c0.026-0.487,0.053-1.012,0.083-1.57
	c0.055-0.557,0.114-1.148,0.176-1.774c0.268-2.498,0.73-5.534,1.662-8.929c0.915-3.395,2.259-7.16,4.204-11.058
	c1.935-3.9,4.533-7.89,7.758-11.737c1.633-1.903,3.398-3.799,5.369-5.563c1.941-1.796,4.071-3.478,6.34-5.044
	c4.531-3.145,9.69-5.744,15.231-7.582c2.768-0.933,5.642-1.608,8.556-2.146c1.462-0.229,2.924-0.469,4.45-0.593
	c1.579-0.188,2.854-0.203,4.427-0.295c2.983-0.041,5.979,0.065,8.945,0.425c2.959,0.388,5.901,0.917,8.757,1.716
	c5.716,1.569,11.133,3.945,15.965,6.938c2.419,1.49,4.711,3.111,6.82,4.867c2.138,1.722,4.076,3.594,5.885,5.492
	c3.575,3.836,6.527,7.886,8.788,11.899c2.272,4.011,3.915,7.94,5.082,11.517c1.185,3.576,1.854,6.81,2.284,9.483
	c0.102,0.671,0.198,1.306,0.289,1.902c0.065,0.622,0.126,1.205,0.184,1.747c0.053,0.546,0.102,1.05,0.146,1.512
	c0.041,0.456,0.047,0.799,0.069,1.144c0.07,1.341,0.107,2.056,0.107,2.056L226.831,263.793z"/>
<path fill="#F78100" d="M120.179,263.54c0,0-0.001,0.717-0.004,2.059c0.003,0.326-0.01,0.733,0.006,1.101
	c0.018,0.36,0.037,0.754,0.058,1.179c0.021,0.427,0.043,0.887,0.066,1.377c0.05,0.509,0.103,1.051,0.159,1.623
	c0.239,2.285,0.652,5.063,1.499,8.168c0.829,3.106,2.049,6.553,3.82,10.124c1.761,3.575,4.134,7.233,7.079,10.769
	c1.494,1.746,3.105,3.49,4.909,5.109c1.775,1.652,3.725,3.197,5.801,4.638c4.146,2.895,8.869,5.287,13.942,6.984
	c2.535,0.862,5.169,1.483,7.841,1.986c1.342,0.212,2.689,0.438,4.052,0.551c0.68,0.074,1.36,0.151,2.045,0.173l1.99,0.112
	c2.951,0.036,5.517-0.049,8.282-0.372c2.717-0.353,5.419-0.829,8.041-1.557c5.249-1.43,10.229-3.599,14.677-6.34
	c2.227-1.363,4.338-2.849,6.28-4.46c1.973-1.578,3.758-3.299,5.426-5.04c3.295-3.523,6.023-7.242,8.11-10.931
	c2.098-3.685,3.616-7.295,4.697-10.583c1.099-3.287,1.72-6.261,2.12-8.723c0.096-0.617,0.187-1.201,0.271-1.751
	c0.06-0.554,0.115-1.072,0.168-1.555c0.106-0.966,0.187-1.789,0.206-2.459c0.071-1.341,0.108-2.056,0.108-2.056
	s0.001,0.716,0.004,2.06c0.017,0.673-0.019,1.5-0.072,2.474c-0.025,0.487-0.054,1.012-0.083,1.57
	c-0.056,0.557-0.114,1.148-0.177,1.774c-0.268,2.498-0.729,5.534-1.662,8.929c-0.914,3.396-2.259,7.16-4.204,11.058
	c-1.935,3.9-4.533,7.89-7.757,11.737c-1.634,1.903-3.398,3.799-5.369,5.563c-1.941,1.797-4.071,3.478-6.34,5.044
	c-4.53,3.145-9.69,5.744-15.23,7.583c-2.768,0.932-5.643,1.607-8.557,2.146c-2.88,0.51-6.039,0.777-8.813,0.887l-2.303,0.004
	c-0.748,0.015-1.493-0.027-2.239-0.066c-1.495-0.045-2.98-0.207-4.467-0.361c-2.959-0.388-5.901-0.917-8.757-1.716
	c-5.716-1.569-11.132-3.945-15.964-6.938c-2.419-1.49-4.711-3.111-6.82-4.867c-2.139-1.722-4.077-3.594-5.885-5.492
	c-3.575-3.836-6.527-7.886-8.788-11.899c-2.272-4.011-3.915-7.94-5.082-11.517c-1.186-3.576-1.855-6.81-2.284-9.483
	c-0.102-0.671-0.199-1.306-0.29-1.902c-0.065-0.622-0.126-1.205-0.184-1.747c-0.053-0.546-0.102-1.05-0.147-1.512
	c-0.041-0.456-0.046-0.799-0.068-1.144c-0.071-1.341-0.108-2.056-0.108-2.056L120.179,263.54z"/>
<line fill="none" stroke="#F78100" stroke-miterlimit="10" x1="115.667" y1="264.167" x2="110.667" y2="264.167"/>
<line fill="none" stroke="#F78100" stroke-miterlimit="10" x1="115.667" y1="264.167" x2="231.667" y2="264.167"/>
<line fill="none" stroke="#F78100" stroke-miterlimit="10" x1="237.667" y1="264.167" x2="231.667" y2="264.167"/>
<circle fill="#A05212" stroke="#F78100" stroke-width="2" stroke-miterlimit="10" cx="173.504" cy="263.569" r="5.179"/>
<path fill="#FFFFFF" stroke="#F78100" stroke-width="7" stroke-miterlimit="10" d="M228.83,4.559
	c0,135.943,41.773,245.946,93.397,245.946"/>
<polygon fill="#F78100" stroke="#F78100" stroke-width="7" stroke-miterlimit="10" points="320.161,259.833 320.126,237.79 
	335.575,248.773 "/>
<g>
	<path fill="#FFFFFF" stroke="#F78100" stroke-width="7" stroke-miterlimit="10" d="M118.936,4.559
		c0,135.943-41.773,245.946-93.398,245.946"/>
	<polygon fill="#F78100" stroke="#F78100" stroke-width="10" stroke-miterlimit="10" points="27.604,259.833 27.638,237.79 
		12.189,248.773 	"/>
</g>
<line fill="none" stroke="#F78100" stroke-width="7" stroke-miterlimit="10" x1="174.167" y1="4.667" x2="174.167" y2="152.667"/>
<polygon fill="#F78100" stroke="#F78100" stroke-width="7" stroke-miterlimit="10" points="158.954,148.167 173.667,163.333 
	188.379,148.167 "/>
</svg>
