<?xml version="1.0" encoding="utf-8"?>
<!-- Generator: Adobe Illustrator 16.0.0, SVG Export Plug-In . SVG Version: 6.00 Build 0)  -->
<svg version="1.2" baseProfile="tiny" id="Vrstva_1"
	 xmlns="http://www.w3.org/2000/svg" xmlns:xlink="http://www.w3.org/1999/xlink" x="0px" y="0px" width="202.834px" height="141px"
	 viewBox="0 0 202.834 141" xml:space="preserve">
<line fill="none" stroke="#000000" stroke-width="2" stroke-miterlimit="10" x1="23.5" y1="129.333" x2="31.5" y2="129.333"/>
<line fill="none" stroke="#000000" stroke-width="2" stroke-miterlimit="10" x1="23.5" y1="96.333" x2="31.5" y2="96.333"/>
<line fill="none" stroke="#000000" stroke-width="2" stroke-miterlimit="10" x1="23.5" y1="65.333" x2="31.5" y2="65.333"/>
<line fill="none" stroke="#000000" stroke-width="2" stroke-miterlimit="10" x1="23.5" y1="64.333" x2="31.5" y2="64.333"/>
<line fill="none" stroke="#000000" stroke-width="2" stroke-miterlimit="10" x1="23.5" y1="33.333" x2="31.5" y2="33.333"/>
<line fill="none" stroke="#000000" stroke-width="2" stroke-miterlimit="10" x1="22.5" y1="32.333" x2="22.5" y2="160.333"/>
<rect x="15.5" y="8.333" fill="none" stroke="#000000" stroke-width="2" stroke-miterlimit="10" width="23" height="176"/>
<g>
	<path fill="#0057BF" d="M9.324,58.824c0,0,0.022,0.208,0.063,0.596c0.062,0.382,0.056,0.975,0.225,1.67
		c0.071,0.35,0.149,0.736,0.235,1.158c0.121,0.414,0.251,0.862,0.391,1.341c0.31,0.944,0.736,1.984,1.315,3.052
		c0.272,0.542,0.651,1.054,0.987,1.609c0.406,0.51,0.781,1.069,1.255,1.568c0.904,1.039,2.008,1.98,3.218,2.831
		c1.25,0.8,2.628,1.459,4.094,1.913c0.749,0.167,1.488,0.389,2.261,0.447c0.382,0.044,0.762,0.114,1.15,0.102l1.091,0.022
		c1.765-0.111,3.064-0.398,4.514-0.925c1.385-0.575,2.65-1.31,3.808-2.123c1.125-0.856,2.167-1.755,3.046-2.737
		c0.459-0.472,0.823-1.005,1.218-1.488c0.338-0.521,0.723-1.001,1.002-1.514c0.593-1.009,1.076-1.986,1.441-2.889
		c0.174-0.458,0.337-0.887,0.488-1.284c0.124-0.41,0.238-0.787,0.34-1.127c0.236-0.684,0.295-1.247,0.411-1.627
		c0.095-0.384,0.146-0.589,0.146-0.589l0.003-0.014c0.02-0.081,0.102-0.13,0.183-0.11c0.062,0.016,0.105,0.067,0.113,0.127
		c0,0,0.028,0.211,0.08,0.607c0.022,0.201,0.05,0.448,0.083,0.738c0.037,0.292,0.066,0.63,0.047,1.006
		c-0.006,0.38-0.013,0.802-0.02,1.261c-0.058,0.458-0.12,0.952-0.186,1.48c-0.181,1.052-0.475,2.24-0.977,3.479
		c-0.233,0.628-0.577,1.236-0.886,1.896c-0.392,0.607-0.761,1.271-1.239,1.882c-0.901,1.271-2.114,2.411-3.475,3.443
		c-1.414,0.968-3.025,1.742-4.743,2.25c-1.685,0.46-3.698,0.704-5.27,0.654c-0.136,0.003-0.05,0-0.085,0l-0.021-0.002l-0.042-0.003
		l-0.084-0.007l-0.168-0.014l-0.335-0.028l-0.669-0.058c-0.447-0.02-0.884-0.125-1.322-0.207c-0.882-0.133-1.719-0.437-2.555-0.689
		c-1.637-0.629-3.135-1.478-4.457-2.459c-1.276-1.038-2.428-2.137-3.303-3.351c-0.463-0.583-0.819-1.22-1.202-1.801
		c-0.311-0.626-0.661-1.202-0.901-1.801c-0.515-1.181-0.866-2.307-1.102-3.316c-0.102-0.508-0.196-0.984-0.284-1.423
		c-0.045-0.448-0.086-0.859-0.124-1.231C8.986,60.4,9.051,59.834,9.028,59.44c-0.002-0.391-0.003-0.6-0.003-0.6
		c0-0.083,0.066-0.15,0.149-0.151C9.251,58.689,9.316,58.749,9.324,58.824z"/>
	<path fill="#0057BF" d="M42.324,58.824c0,0,0.022,0.208,0.063,0.599c0.063,0.384,0.056,0.979,0.228,1.677
		c0.072,0.351,0.151,0.739,0.238,1.162c0.123,0.416,0.255,0.865,0.396,1.346c0.315,0.949,0.748,1.99,1.334,3.059
		c0.281,0.541,0.66,1.056,1,1.611c0.417,0.506,0.788,1.072,1.274,1.566c0.911,1.041,2.032,1.975,3.253,2.822
		c1.258,0.8,2.652,1.447,4.126,1.901c0.754,0.165,1.499,0.385,2.276,0.442c0.385,0.045,0.767,0.113,1.158,0.101l1.098,0.022
		c1.771-0.111,3.085-0.396,4.544-0.92c1.395-0.574,2.676-1.298,3.842-2.113c1.137-0.854,2.196-1.744,3.081-2.729
		c0.471-0.467,0.829-1.006,1.235-1.485c0.343-0.522,0.727-1.004,1.015-1.516c0.599-1.011,1.089-1.989,1.459-2.895
		c0.176-0.46,0.341-0.89,0.494-1.288c0.125-0.412,0.239-0.79,0.342-1.132c0.24-0.687,0.297-1.252,0.414-1.633
		c0.095-0.386,0.146-0.592,0.146-0.592l0.003-0.014c0.02-0.081,0.102-0.13,0.183-0.11c0.062,0.016,0.105,0.067,0.113,0.127
		c0,0,0.027,0.212,0.079,0.61c0.022,0.202,0.05,0.45,0.083,0.742c0.038,0.294,0.064,0.633,0.044,1.011
		c-0.006,0.382-0.014,0.806-0.022,1.267c-0.06,0.459-0.124,0.956-0.192,1.486c-0.187,1.056-0.489,2.248-1,3.492
		c-0.242,0.627-0.587,1.238-0.901,1.899c-0.405,0.604-0.769,1.273-1.26,1.88c-0.909,1.273-2.142,2.405-3.514,3.433
		c-1.423,0.966-3.048,1.727-4.771,2.231c-1.694,0.456-3.709,0.693-5.29,0.646c-0.135,0.003-0.049,0-0.085,0l-0.021-0.002
		l-0.042-0.003l-0.084-0.007l-0.168-0.014l-0.336-0.028l-0.671-0.057c-0.449-0.02-0.888-0.123-1.327-0.205
		c-0.885-0.132-1.727-0.433-2.566-0.685c-1.644-0.626-3.157-1.462-4.488-2.443c-1.288-1.033-2.458-2.123-3.342-3.34
		c-0.476-0.578-0.828-1.223-1.222-1.799c-0.316-0.627-0.667-1.206-0.916-1.804c-0.523-1.186-0.881-2.314-1.124-3.327
		c-0.104-0.51-0.201-0.987-0.29-1.429c-0.046-0.45-0.089-0.864-0.127-1.237c-0.102-0.746-0.035-1.313-0.059-1.709
		c-0.002-0.393-0.004-0.603-0.004-0.603c0-0.083,0.066-0.15,0.149-0.151C42.251,58.689,42.316,58.749,42.324,58.824z"/>
	<path fill="#0057BF" d="M75.642,58.824c0,0,0.022,0.207,0.063,0.594c0.061,0.38,0.057,0.97,0.222,1.663
		c0.07,0.348,0.148,0.733,0.233,1.153c0.119,0.413,0.248,0.859,0.385,1.336c0.304,0.941,0.723,1.979,1.296,3.044
		c0.264,0.543,0.643,1.052,0.974,1.607c0.395,0.514,0.774,1.066,1.237,1.57c0.898,1.036,1.982,1.987,3.184,2.84
		c1.239,0.801,2.604,1.472,4.061,1.925c0.744,0.17,1.478,0.393,2.246,0.452c0.381,0.044,0.757,0.116,1.144,0.103l1.083,0.023
		c1.758-0.11,3.044-0.4,4.483-0.932c1.375-0.573,2.626-1.318,3.772-2.132c1.117-0.856,2.139-1.766,3.012-2.744
		c0.866-0.979,1.595-2.001,2.19-3.004c0.587-1.007,1.063-1.982,1.422-2.882c0.173-0.457,0.334-0.884,0.483-1.279
		c0.123-0.409,0.236-0.785,0.338-1.124c0.233-0.682,0.293-1.242,0.408-1.62c0.095-0.382,0.146-0.586,0.146-0.586l0.003-0.014
		c0.02-0.081,0.102-0.13,0.183-0.11c0.062,0.015,0.105,0.067,0.113,0.127c0,0,0.028,0.21,0.08,0.604
		c0.032,0.394,0.16,0.986,0.133,1.736c-0.005,0.379-0.011,0.798-0.017,1.255c-0.043,0.453-0.114,0.943-0.179,1.474
		c-0.175,1.047-0.461,2.231-0.955,3.467c-0.224,0.628-0.567,1.233-0.87,1.893c-0.38,0.61-0.752,1.267-1.218,1.882
		c-0.893,1.268-2.085,2.419-3.437,3.454c-1.403,0.971-3.001,1.759-4.713,2.268c-1.675,0.468-3.687,0.715-5.25,0.665
		c-0.137,0.003-0.05,0-0.086,0l-0.021-0.002l-0.042-0.003l-0.084-0.007l-0.167-0.015l-0.334-0.027l-0.667-0.058
		c-0.446-0.02-0.881-0.128-1.317-0.209c-0.879-0.135-1.712-0.44-2.543-0.698c-1.63-0.629-3.114-1.491-4.425-2.475
		c-1.267-1.039-2.397-2.148-3.265-3.358c-0.451-0.589-0.811-1.218-1.181-1.803c-0.306-0.625-0.655-1.197-0.886-1.797
		c-0.508-1.178-0.851-2.301-1.082-3.306c-0.099-0.508-0.203-0.978-0.278-1.417c-0.044-0.446-0.085-0.855-0.122-1.225
		c-0.095-0.738-0.031-1.301-0.053-1.693c-0.002-0.39-0.003-0.597-0.003-0.597c0-0.083,0.067-0.15,0.149-0.151
		C75.569,58.689,75.634,58.749,75.642,58.824z"/>
	<path fill="#0057BF" d="M108.324,58.824c0,0,0.022,0.208,0.064,0.599c0.063,0.384,0.056,0.979,0.228,1.677
		c0.071,0.351,0.151,0.739,0.237,1.162c0.123,0.416,0.255,0.865,0.396,1.346c0.315,0.948,0.748,1.99,1.335,3.059
		c0.281,0.541,0.66,1.056,1,1.611c0.417,0.506,0.788,1.072,1.273,1.566c0.911,1.041,2.032,1.975,3.253,2.822
		c1.258,0.8,2.652,1.447,4.126,1.901c1.491,0.404,3.046,0.588,4.596,0.563c0.691-0.083,1.688-0.117,2.327-0.306
		c0.71-0.107,1.441-0.389,2.153-0.612c1.395-0.574,2.676-1.298,3.842-2.113c1.137-0.854,2.196-1.744,3.081-2.729
		c0.471-0.467,0.829-1.007,1.235-1.485c0.343-0.522,0.727-1.004,1.015-1.516c0.599-1.011,1.089-1.989,1.459-2.895
		c0.176-0.46,0.341-0.89,0.494-1.288c0.125-0.412,0.239-0.79,0.342-1.132c0.24-0.687,0.297-1.252,0.414-1.633
		c0.095-0.386,0.146-0.592,0.146-0.592l0.003-0.014c0.02-0.081,0.102-0.13,0.183-0.11c0.062,0.016,0.105,0.067,0.113,0.127
		c0,0,0.027,0.212,0.079,0.61c0.022,0.202,0.05,0.45,0.083,0.742c0.038,0.294,0.064,0.633,0.044,1.011
		c-0.006,0.382-0.014,0.806-0.022,1.267c-0.06,0.459-0.124,0.956-0.192,1.486c-0.187,1.056-0.489,2.248-1,3.492
		c-0.242,0.627-0.587,1.238-0.902,1.899c-0.404,0.604-0.769,1.273-1.26,1.88c-0.909,1.273-2.142,2.405-3.514,3.433
		c-1.423,0.966-3.048,1.727-4.772,2.231c-0.882,0.193-1.735,0.432-2.688,0.515c-1,0.156-1.686,0.103-2.665,0.133
		c-1.802-0.088-3.576-0.425-5.238-1.002c-1.644-0.626-3.157-1.462-4.488-2.443c-1.288-1.033-2.458-2.123-3.342-3.34
		c-0.476-0.578-0.828-1.223-1.222-1.799c-0.317-0.627-0.667-1.206-0.916-1.805c-0.523-1.185-0.882-2.313-1.124-3.326
		c-0.104-0.51-0.2-0.987-0.29-1.429c-0.046-0.45-0.089-0.864-0.127-1.237c-0.102-0.746-0.035-1.313-0.059-1.709
		c-0.002-0.393-0.004-0.603-0.004-0.603c0-0.083,0.066-0.15,0.149-0.151C108.251,58.689,108.315,58.749,108.324,58.824z"/>
</g>
<g>
	<path fill="#0057BF" d="M-6.676,86.824c0,0,0.022,0.208,0.063,0.597c0.062,0.383,0.056,0.975,0.225,1.671
		c0.071,0.349,0.149,0.735,0.235,1.157c0.121,0.414,0.251,0.862,0.391,1.341c0.31,0.944,0.736,1.984,1.315,3.052
		c0.272,0.542,0.651,1.054,0.987,1.609c0.406,0.51,0.781,1.069,1.255,1.568c0.904,1.039,2.008,1.98,3.218,2.831
		c1.25,0.8,2.628,1.459,4.094,1.913c0.749,0.167,1.488,0.389,2.261,0.447c0.382,0.044,0.762,0.114,1.15,0.102l1.091,0.022
		c1.765-0.111,3.064-0.398,4.514-0.925c1.385-0.575,2.65-1.31,3.808-2.123c1.125-0.856,2.167-1.755,3.046-2.737
		c0.459-0.472,0.823-1.005,1.218-1.488c0.338-0.521,0.723-1.001,1.002-1.514c0.593-1.009,1.076-1.986,1.441-2.889
		c0.174-0.458,0.337-0.888,0.488-1.284c0.124-0.41,0.238-0.787,0.34-1.128c0.236-0.684,0.295-1.247,0.411-1.626
		c0.095-0.385,0.146-0.589,0.146-0.589l0.003-0.015c0.02-0.081,0.102-0.13,0.183-0.11c0.062,0.016,0.105,0.067,0.113,0.127
		c0,0,0.028,0.212,0.08,0.607c0.022,0.2,0.05,0.447,0.083,0.738c0.037,0.293,0.066,0.63,0.047,1.006
		c-0.006,0.381-0.013,0.803-0.02,1.262c-0.058,0.457-0.12,0.951-0.186,1.479c-0.181,1.052-0.475,2.24-0.977,3.479
		c-0.233,0.628-0.577,1.236-0.886,1.896c-0.392,0.607-0.761,1.271-1.239,1.882c-0.901,1.271-2.114,2.411-3.475,3.443
		c-1.414,0.968-3.025,1.742-4.743,2.25c-1.685,0.46-3.698,0.704-5.27,0.654c-0.136,0.003-0.05,0-0.085,0l-0.021-0.002l-0.042-0.003
		l-0.084-0.007l-0.168-0.014l-0.335-0.028l-0.669-0.058c-0.447-0.02-0.884-0.125-1.322-0.207c-0.882-0.133-1.719-0.437-2.555-0.689
		c-1.637-0.629-3.135-1.478-4.457-2.459c-1.276-1.038-2.428-2.137-3.303-3.351c-0.463-0.583-0.819-1.22-1.202-1.801
		c-0.311-0.626-0.661-1.202-0.901-1.801c-0.515-1.181-0.866-2.307-1.102-3.316c-0.102-0.508-0.196-0.983-0.284-1.423
		c-0.045-0.448-0.086-0.859-0.124-1.231c-0.098-0.741-0.033-1.307-0.056-1.7c-0.002-0.392-0.003-0.6-0.003-0.6
		c0-0.083,0.066-0.151,0.149-0.151C-6.749,86.689-6.684,86.749-6.676,86.824z"/>
	<path fill="#0057BF" d="M26.324,86.824c0,0,0.022,0.209,0.063,0.6c0.063,0.384,0.056,0.979,0.228,1.678
		c0.072,0.351,0.151,0.739,0.238,1.162c0.123,0.415,0.255,0.865,0.396,1.346c0.315,0.948,0.748,1.989,1.334,3.059
		c0.281,0.541,0.66,1.056,1,1.611c0.417,0.506,0.788,1.072,1.274,1.566c0.911,1.041,2.032,1.975,3.253,2.822
		c1.258,0.8,2.652,1.447,4.126,1.901c0.754,0.165,1.499,0.385,2.276,0.442c0.385,0.045,0.767,0.113,1.158,0.101l1.098,0.022
		c1.771-0.111,3.085-0.396,4.544-0.92c1.395-0.574,2.676-1.298,3.842-2.113c1.137-0.854,2.196-1.744,3.081-2.729
		c0.471-0.467,0.829-1.006,1.235-1.485c0.343-0.522,0.727-1.004,1.015-1.516c0.599-1.011,1.089-1.989,1.459-2.895
		c0.176-0.46,0.341-0.89,0.494-1.288c0.125-0.412,0.239-0.79,0.342-1.132c0.24-0.687,0.297-1.252,0.414-1.634
		c0.095-0.386,0.146-0.591,0.146-0.591l0.003-0.015c0.02-0.081,0.102-0.13,0.183-0.11c0.062,0.016,0.105,0.067,0.113,0.127
		c0,0,0.027,0.213,0.079,0.61c0.022,0.201,0.05,0.45,0.083,0.741c0.038,0.295,0.064,0.634,0.044,1.012
		c-0.006,0.383-0.014,0.806-0.022,1.267c-0.06,0.46-0.124,0.956-0.192,1.487c-0.187,1.056-0.489,2.247-1,3.491
		c-0.242,0.627-0.587,1.238-0.901,1.899c-0.405,0.604-0.769,1.273-1.26,1.88c-0.909,1.273-2.142,2.405-3.514,3.433
		c-1.423,0.966-3.048,1.727-4.771,2.231c-1.694,0.456-3.709,0.693-5.29,0.646c-0.135,0.003-0.049,0-0.085,0l-0.021-0.002
		l-0.042-0.003l-0.084-0.007l-0.168-0.014l-0.336-0.028l-0.671-0.057c-0.449-0.02-0.888-0.123-1.327-0.205
		c-0.885-0.132-1.727-0.433-2.566-0.685c-1.644-0.626-3.157-1.462-4.488-2.443c-1.288-1.033-2.458-2.123-3.342-3.34
		c-0.476-0.578-0.828-1.223-1.222-1.799c-0.316-0.627-0.667-1.206-0.916-1.804c-0.523-1.186-0.881-2.314-1.124-3.327
		c-0.104-0.51-0.201-0.987-0.29-1.429c-0.046-0.45-0.089-0.863-0.127-1.237c-0.102-0.745-0.035-1.313-0.059-1.708
		c-0.002-0.394-0.004-0.603-0.004-0.603c0-0.083,0.066-0.151,0.149-0.151C26.251,86.689,26.316,86.749,26.324,86.824z"/>
	<path fill="#0057BF" d="M59.642,86.825c0,0,0.022,0.206,0.063,0.593c0.061,0.381,0.057,0.971,0.222,1.663
		c0.07,0.349,0.148,0.733,0.233,1.153c0.119,0.412,0.248,0.858,0.385,1.336c0.304,0.941,0.723,1.979,1.296,3.044
		c0.264,0.543,0.643,1.052,0.974,1.607c0.395,0.514,0.774,1.066,1.237,1.57c0.898,1.036,1.982,1.987,3.184,2.84
		c1.239,0.801,2.604,1.472,4.061,1.925c0.744,0.17,1.478,0.393,2.246,0.452c0.381,0.044,0.757,0.116,1.144,0.103l1.083,0.023
		c1.758-0.11,3.044-0.4,4.483-0.932c1.375-0.573,2.626-1.318,3.772-2.132c1.117-0.856,2.139-1.766,3.012-2.744
		c0.866-0.979,1.595-2.001,2.19-3.004c0.587-1.007,1.063-1.982,1.422-2.882c0.173-0.457,0.334-0.885,0.483-1.28
		c0.123-0.408,0.236-0.784,0.338-1.123c0.233-0.682,0.293-1.242,0.408-1.62c0.095-0.382,0.146-0.586,0.146-0.586l0.003-0.015
		c0.02-0.081,0.102-0.13,0.183-0.11c0.062,0.016,0.105,0.067,0.113,0.127c0,0,0.028,0.211,0.08,0.604
		c0.032,0.395,0.16,0.986,0.133,1.736c-0.005,0.379-0.011,0.798-0.017,1.255c-0.043,0.453-0.114,0.943-0.179,1.474
		c-0.175,1.047-0.461,2.231-0.955,3.467c-0.224,0.628-0.567,1.233-0.87,1.893c-0.38,0.61-0.752,1.267-1.218,1.882
		c-0.893,1.268-2.085,2.419-3.437,3.454c-1.403,0.971-3.001,1.759-4.713,2.268c-1.675,0.468-3.687,0.715-5.25,0.665
		c-0.137,0.003-0.05,0-0.086,0l-0.021-0.002l-0.042-0.003l-0.084-0.007l-0.167-0.015l-0.334-0.027l-0.667-0.058
		c-0.446-0.02-0.881-0.128-1.317-0.209c-0.879-0.135-1.712-0.44-2.543-0.698c-1.63-0.629-3.114-1.491-4.425-2.475
		c-1.267-1.039-2.397-2.148-3.265-3.358c-0.451-0.589-0.811-1.218-1.181-1.803c-0.306-0.625-0.655-1.197-0.886-1.797
		c-0.508-1.178-0.851-2.301-1.082-3.306c-0.099-0.508-0.203-0.979-0.278-1.418c-0.044-0.445-0.085-0.855-0.122-1.226
		c-0.095-0.737-0.031-1.301-0.053-1.692c-0.002-0.39-0.003-0.598-0.003-0.598c0-0.082,0.067-0.15,0.149-0.15
		C59.569,86.69,59.634,86.749,59.642,86.825z"/>
	<path fill="#0057BF" d="M92.324,86.824c0,0,0.022,0.209,0.064,0.6c0.063,0.384,0.056,0.979,0.228,1.678
		c0.071,0.351,0.151,0.739,0.237,1.162c0.123,0.415,0.255,0.865,0.396,1.346c0.315,0.947,0.748,1.989,1.335,3.059
		c0.281,0.541,0.66,1.056,1,1.611c0.417,0.506,0.788,1.072,1.273,1.566c0.911,1.041,2.032,1.975,3.253,2.822
		c1.258,0.8,2.652,1.447,4.126,1.901c1.491,0.404,3.046,0.588,4.596,0.563c0.691-0.083,1.688-0.117,2.327-0.306
		c0.71-0.107,1.441-0.389,2.153-0.612c1.395-0.574,2.676-1.298,3.842-2.113c1.137-0.854,2.196-1.744,3.081-2.729
		c0.471-0.467,0.829-1.007,1.235-1.485c0.343-0.522,0.727-1.004,1.015-1.516c0.599-1.011,1.089-1.989,1.459-2.895
		c0.176-0.46,0.341-0.89,0.494-1.288c0.125-0.412,0.239-0.79,0.342-1.132c0.24-0.687,0.297-1.252,0.414-1.634
		c0.095-0.386,0.146-0.591,0.146-0.591l0.003-0.015c0.02-0.081,0.102-0.13,0.183-0.11c0.062,0.016,0.105,0.067,0.113,0.127
		c0,0,0.027,0.213,0.079,0.61c0.022,0.201,0.05,0.45,0.083,0.741c0.038,0.295,0.064,0.634,0.044,1.012
		c-0.006,0.383-0.014,0.806-0.022,1.267c-0.06,0.46-0.124,0.956-0.192,1.487c-0.187,1.056-0.489,2.247-1,3.491
		c-0.242,0.627-0.587,1.238-0.902,1.899c-0.404,0.604-0.769,1.273-1.26,1.88c-0.909,1.273-2.142,2.405-3.514,3.433
		c-1.423,0.966-3.048,1.727-4.772,2.231c-0.882,0.193-1.735,0.432-2.688,0.515c-1,0.156-1.686,0.103-2.665,0.133
		c-1.802-0.088-3.576-0.425-5.238-1.002c-1.644-0.626-3.157-1.462-4.488-2.443c-1.288-1.033-2.458-2.123-3.342-3.34
		c-0.476-0.578-0.828-1.223-1.222-1.799c-0.317-0.627-0.667-1.206-0.916-1.805c-0.523-1.185-0.882-2.313-1.124-3.326
		c-0.104-0.51-0.2-0.987-0.29-1.429c-0.046-0.45-0.089-0.863-0.127-1.237c-0.102-0.745-0.035-1.313-0.059-1.708
		c-0.002-0.394-0.004-0.603-0.004-0.603c0-0.083,0.066-0.151,0.149-0.151C92.251,86.689,92.315,86.749,92.324,86.824z"/>
</g>
<g>
	<path fill="#0057BF" d="M10.324,113.824c0,0,0.022,0.208,0.063,0.597c0.062,0.383,0.056,0.975,0.225,1.671
		c0.071,0.349,0.149,0.735,0.235,1.157c0.121,0.414,0.251,0.862,0.391,1.341c0.31,0.944,0.736,1.984,1.315,3.052
		c0.272,0.542,0.651,1.054,0.987,1.609c0.406,0.51,0.781,1.069,1.255,1.568c0.904,1.039,2.008,1.98,3.218,2.831
		c1.25,0.8,2.628,1.459,4.094,1.913c0.749,0.167,1.488,0.389,2.261,0.447c0.382,0.044,0.762,0.114,1.15,0.102l1.091,0.022
		c1.765-0.11,3.064-0.398,4.514-0.925c1.385-0.575,2.65-1.31,3.808-2.123c1.125-0.856,2.167-1.755,3.046-2.737
		c0.459-0.472,0.823-1.005,1.218-1.488c0.338-0.521,0.723-1.001,1.002-1.514c0.593-1.009,1.076-1.986,1.441-2.889
		c0.174-0.458,0.337-0.888,0.488-1.284c0.124-0.41,0.238-0.787,0.34-1.128c0.236-0.684,0.295-1.247,0.411-1.626
		c0.095-0.385,0.146-0.589,0.146-0.589l0.003-0.015c0.02-0.081,0.102-0.13,0.183-0.11c0.062,0.016,0.105,0.067,0.113,0.127
		c0,0,0.028,0.212,0.08,0.607c0.022,0.2,0.05,0.447,0.083,0.738c0.037,0.293,0.066,0.63,0.047,1.006
		c-0.006,0.381-0.013,0.803-0.02,1.262c-0.058,0.457-0.12,0.951-0.186,1.479c-0.181,1.052-0.475,2.24-0.977,3.479
		c-0.233,0.628-0.577,1.236-0.886,1.896c-0.392,0.607-0.761,1.271-1.239,1.882c-0.901,1.271-2.114,2.411-3.475,3.443
		c-1.414,0.968-3.025,1.742-4.743,2.25c-1.685,0.46-3.698,0.704-5.27,0.654c-0.136,0.003-0.05,0-0.085,0l-0.021-0.002l-0.042-0.003
		l-0.084-0.007l-0.168-0.014l-0.335-0.028l-0.669-0.058c-0.447-0.02-0.884-0.125-1.322-0.206c-0.882-0.134-1.719-0.438-2.555-0.69
		c-1.637-0.629-3.135-1.478-4.457-2.459c-1.276-1.038-2.428-2.137-3.303-3.351c-0.463-0.583-0.819-1.22-1.202-1.801
		c-0.311-0.626-0.661-1.202-0.901-1.801c-0.515-1.181-0.866-2.307-1.102-3.316c-0.102-0.508-0.196-0.983-0.284-1.423
		c-0.045-0.448-0.086-0.859-0.124-1.231c-0.098-0.741-0.033-1.307-0.056-1.7c-0.002-0.392-0.003-0.6-0.003-0.6
		c0-0.083,0.066-0.151,0.149-0.151C10.251,113.689,10.316,113.749,10.324,113.824z"/>
	<path fill="#0057BF" d="M43.324,113.824c0,0,0.022,0.209,0.063,0.6c0.063,0.384,0.056,0.979,0.228,1.678
		c0.072,0.351,0.151,0.739,0.238,1.162c0.123,0.415,0.255,0.865,0.396,1.346c0.315,0.948,0.748,1.989,1.334,3.059
		c0.281,0.541,0.66,1.056,1,1.611c0.417,0.506,0.788,1.072,1.274,1.566c0.911,1.041,2.032,1.975,3.253,2.822
		c1.258,0.8,2.652,1.447,4.126,1.901c0.754,0.165,1.499,0.385,2.276,0.442c0.385,0.045,0.767,0.113,1.158,0.101l1.098,0.022
		c1.771-0.111,3.085-0.396,4.544-0.92c1.395-0.574,2.676-1.298,3.842-2.113c1.137-0.854,2.196-1.744,3.081-2.729
		c0.471-0.467,0.829-1.006,1.235-1.485c0.343-0.522,0.727-1.004,1.015-1.516c0.599-1.011,1.089-1.989,1.459-2.895
		c0.176-0.46,0.341-0.89,0.494-1.288c0.125-0.412,0.239-0.79,0.342-1.132c0.24-0.687,0.297-1.252,0.414-1.634
		c0.095-0.386,0.146-0.591,0.146-0.591l0.003-0.015c0.02-0.081,0.102-0.13,0.183-0.11c0.062,0.016,0.105,0.067,0.113,0.127
		c0,0,0.027,0.213,0.079,0.61c0.022,0.201,0.05,0.45,0.083,0.741c0.038,0.295,0.064,0.634,0.044,1.012
		c-0.006,0.383-0.014,0.806-0.022,1.267c-0.06,0.46-0.124,0.956-0.192,1.487c-0.187,1.056-0.489,2.247-1,3.491
		c-0.242,0.627-0.587,1.238-0.901,1.899c-0.405,0.604-0.769,1.273-1.26,1.88c-0.909,1.273-2.142,2.405-3.514,3.433
		c-1.423,0.966-3.048,1.727-4.771,2.231c-1.694,0.456-3.709,0.693-5.29,0.646c-0.135,0.003-0.049,0-0.085,0l-0.021-0.002
		l-0.042-0.003l-0.084-0.007l-0.168-0.014l-0.336-0.028l-0.671-0.057c-0.449-0.02-0.888-0.123-1.327-0.205
		c-0.885-0.132-1.727-0.433-2.566-0.685c-1.644-0.626-3.157-1.462-4.488-2.443c-1.288-1.033-2.458-2.123-3.342-3.34
		c-0.476-0.578-0.828-1.223-1.222-1.799c-0.316-0.627-0.667-1.206-0.916-1.804c-0.523-1.186-0.881-2.314-1.124-3.327
		c-0.104-0.51-0.201-0.987-0.29-1.429c-0.046-0.45-0.089-0.863-0.127-1.237c-0.102-0.745-0.035-1.313-0.059-1.708
		c-0.002-0.394-0.004-0.603-0.004-0.603c0-0.083,0.066-0.151,0.149-0.151C43.251,113.689,43.316,113.749,43.324,113.824z"/>
	<path fill="#0057BF" d="M76.642,113.825c0,0,0.022,0.206,0.063,0.593c0.061,0.381,0.057,0.971,0.222,1.663
		c0.07,0.349,0.148,0.733,0.233,1.153c0.119,0.412,0.248,0.858,0.385,1.336c0.304,0.941,0.723,1.979,1.296,3.044
		c0.264,0.543,0.643,1.052,0.974,1.607c0.395,0.514,0.774,1.066,1.237,1.57c0.898,1.036,1.982,1.987,3.184,2.84
		c1.239,0.801,2.604,1.472,4.061,1.925c0.744,0.17,1.478,0.393,2.246,0.452c0.381,0.044,0.757,0.116,1.144,0.103l1.083,0.023
		c1.758-0.11,3.044-0.401,4.483-0.932c1.375-0.573,2.626-1.318,3.772-2.132c1.117-0.856,2.139-1.766,3.012-2.744
		c0.866-0.979,1.595-2.001,2.19-3.004c0.587-1.007,1.063-1.982,1.422-2.882c0.173-0.457,0.334-0.885,0.483-1.28
		c0.123-0.408,0.236-0.784,0.338-1.123c0.233-0.682,0.293-1.242,0.408-1.62c0.095-0.382,0.146-0.586,0.146-0.586l0.003-0.015
		c0.02-0.081,0.102-0.13,0.183-0.11c0.062,0.016,0.105,0.067,0.113,0.127c0,0,0.028,0.211,0.08,0.604
		c0.032,0.395,0.16,0.986,0.133,1.736c-0.005,0.379-0.011,0.798-0.017,1.255c-0.043,0.453-0.114,0.943-0.179,1.474
		c-0.175,1.047-0.461,2.231-0.955,3.467c-0.224,0.628-0.567,1.233-0.87,1.893c-0.38,0.61-0.752,1.267-1.218,1.882
		c-0.893,1.268-2.085,2.419-3.437,3.454c-1.403,0.971-3.001,1.759-4.713,2.268c-1.675,0.468-3.687,0.715-5.25,0.665
		c-0.137,0.003-0.05,0-0.086,0l-0.021-0.002l-0.042-0.003l-0.084-0.007l-0.167-0.015l-0.334-0.027l-0.667-0.058
		c-0.446-0.02-0.881-0.128-1.317-0.209c-0.879-0.135-1.712-0.44-2.543-0.698c-1.63-0.629-3.114-1.491-4.425-2.475
		c-1.267-1.039-2.397-2.148-3.265-3.358c-0.451-0.589-0.811-1.218-1.181-1.803c-0.306-0.625-0.655-1.197-0.886-1.797
		c-0.508-1.178-0.851-2.301-1.082-3.306c-0.099-0.508-0.203-0.979-0.278-1.418c-0.044-0.445-0.085-0.855-0.122-1.226
		c-0.095-0.737-0.031-1.301-0.053-1.692c-0.002-0.39-0.003-0.598-0.003-0.598c0-0.082,0.067-0.15,0.149-0.15
		C76.569,113.69,76.634,113.749,76.642,113.825z"/>
	<path fill="#0057BF" d="M109.324,113.824c0,0,0.022,0.209,0.064,0.6c0.063,0.384,0.056,0.979,0.228,1.678
		c0.071,0.351,0.151,0.739,0.237,1.162c0.123,0.415,0.255,0.865,0.396,1.346c0.315,0.947,0.748,1.989,1.335,3.059
		c0.281,0.541,0.66,1.056,1,1.611c0.417,0.506,0.788,1.072,1.273,1.566c0.911,1.041,2.032,1.975,3.253,2.822
		c1.258,0.8,2.652,1.447,4.126,1.901c1.491,0.404,3.046,0.588,4.596,0.563c0.691-0.083,1.688-0.117,2.327-0.306
		c0.71-0.107,1.441-0.389,2.153-0.612c1.395-0.574,2.676-1.298,3.842-2.113c1.137-0.854,2.196-1.744,3.081-2.729
		c0.471-0.467,0.829-1.006,1.235-1.485c0.343-0.522,0.727-1.004,1.015-1.516c0.599-1.011,1.089-1.989,1.459-2.895
		c0.176-0.46,0.341-0.89,0.494-1.288c0.125-0.412,0.239-0.79,0.342-1.132c0.24-0.687,0.297-1.252,0.414-1.634
		c0.095-0.386,0.146-0.591,0.146-0.591l0.003-0.015c0.02-0.081,0.102-0.13,0.183-0.11c0.062,0.016,0.105,0.067,0.113,0.127
		c0,0,0.027,0.213,0.079,0.61c0.022,0.201,0.05,0.45,0.083,0.741c0.038,0.295,0.064,0.634,0.044,1.012
		c-0.006,0.383-0.014,0.806-0.022,1.267c-0.06,0.46-0.124,0.956-0.192,1.487c-0.187,1.056-0.489,2.247-1,3.491
		c-0.242,0.627-0.587,1.238-0.902,1.899c-0.404,0.604-0.769,1.273-1.26,1.88c-0.909,1.273-2.142,2.405-3.514,3.433
		c-1.423,0.966-3.048,1.727-4.772,2.231c-0.882,0.193-1.735,0.432-2.688,0.515c-1,0.156-1.686,0.103-2.665,0.133
		c-1.802-0.088-3.576-0.425-5.238-1.002c-1.644-0.626-3.157-1.462-4.488-2.443c-1.288-1.033-2.458-2.123-3.342-3.34
		c-0.476-0.578-0.828-1.223-1.222-1.8c-0.317-0.626-0.667-1.205-0.916-1.804c-0.523-1.185-0.882-2.313-1.124-3.326
		c-0.104-0.51-0.2-0.987-0.29-1.429c-0.046-0.45-0.089-0.863-0.127-1.237c-0.102-0.745-0.035-1.313-0.059-1.708
		c-0.002-0.394-0.004-0.603-0.004-0.603c0-0.083,0.066-0.151,0.149-0.151C109.251,113.689,109.315,113.749,109.324,113.824z"/>
</g>
<g>
	<path fill="#0057BF" d="M76.324,113.824c0,0,0.022,0.208,0.063,0.597c0.062,0.383,0.056,0.975,0.225,1.671
		c0.071,0.349,0.149,0.735,0.235,1.157c0.121,0.414,0.251,0.862,0.391,1.341c0.31,0.944,0.736,1.984,1.315,3.052
		c0.272,0.541,0.651,1.054,0.987,1.609c0.406,0.51,0.781,1.069,1.255,1.568c0.904,1.039,2.007,1.979,3.218,2.831
		c1.25,0.8,2.628,1.459,4.094,1.913c0.75,0.167,1.489,0.389,2.261,0.447c0.383,0.044,0.762,0.114,1.151,0.102l1.09,0.022
		c1.765-0.11,3.064-0.398,4.514-0.925c1.385-0.575,2.651-1.31,3.808-2.123c1.125-0.856,2.167-1.755,3.046-2.736
		c0.459-0.473,0.822-1.006,1.218-1.489c0.338-0.521,0.723-1.001,1.002-1.514c0.593-1.009,1.076-1.986,1.44-2.889
		c0.174-0.458,0.338-0.888,0.489-1.284c0.124-0.41,0.237-0.787,0.34-1.127c0.236-0.685,0.295-1.248,0.411-1.627
		c0.095-0.385,0.146-0.589,0.146-0.589l0.003-0.015c0.02-0.081,0.102-0.13,0.183-0.11c0.062,0.016,0.105,0.067,0.113,0.127
		c0,0,0.028,0.212,0.08,0.607c0.022,0.2,0.05,0.447,0.083,0.738c0.038,0.293,0.066,0.63,0.047,1.006
		c-0.006,0.381-0.012,0.803-0.02,1.262c-0.057,0.457-0.119,0.951-0.186,1.479c-0.181,1.052-0.475,2.24-0.977,3.479
		c-0.233,0.628-0.577,1.236-0.886,1.896c-0.393,0.607-0.761,1.271-1.239,1.882c-0.901,1.271-2.114,2.411-3.475,3.444
		c-1.415,0.967-3.025,1.741-4.743,2.249c-1.685,0.461-3.698,0.704-5.27,0.654c-0.136,0.003-0.05,0-0.085,0l-0.021-0.002
		l-0.042-0.003l-0.084-0.007l-0.168-0.014l-0.335-0.028l-0.669-0.058c-0.447-0.02-0.884-0.125-1.322-0.207
		c-0.882-0.133-1.719-0.437-2.555-0.689c-1.637-0.629-3.135-1.479-4.457-2.459c-1.276-1.038-2.428-2.137-3.303-3.351
		c-0.463-0.583-0.819-1.22-1.202-1.801c-0.311-0.626-0.661-1.202-0.901-1.801c-0.515-1.181-0.866-2.307-1.102-3.316
		c-0.102-0.508-0.196-0.983-0.284-1.423c-0.045-0.448-0.086-0.859-0.124-1.231c-0.098-0.741-0.033-1.307-0.056-1.7
		c-0.002-0.392-0.003-0.6-0.003-0.6c0-0.083,0.066-0.151,0.149-0.151C76.251,113.689,76.316,113.749,76.324,113.824z"/>
	<path fill="#0057BF" d="M109.324,113.824c0,0,0.022,0.209,0.064,0.6c0.063,0.384,0.056,0.979,0.228,1.678
		c0.071,0.351,0.151,0.739,0.237,1.162c0.123,0.415,0.255,0.865,0.396,1.346c0.315,0.947,0.748,1.989,1.335,3.059
		c0.281,0.541,0.66,1.056,1,1.611c0.417,0.506,0.788,1.072,1.273,1.566c0.911,1.041,2.032,1.975,3.253,2.822
		c1.258,0.8,2.652,1.447,4.126,1.901c1.491,0.404,3.046,0.588,4.596,0.563c0.691-0.083,1.688-0.117,2.327-0.306
		c0.71-0.107,1.441-0.389,2.153-0.612c1.395-0.574,2.676-1.298,3.842-2.113c1.137-0.854,2.196-1.744,3.081-2.729
		c0.471-0.467,0.829-1.006,1.235-1.485c0.343-0.522,0.727-1.004,1.015-1.516c0.599-1.011,1.089-1.989,1.459-2.895
		c0.176-0.46,0.341-0.89,0.494-1.288c0.125-0.412,0.239-0.79,0.342-1.132c0.24-0.687,0.297-1.252,0.414-1.634
		c0.095-0.386,0.146-0.591,0.146-0.591l0.003-0.015c0.02-0.081,0.102-0.13,0.183-0.11c0.062,0.016,0.105,0.067,0.113,0.127
		c0,0,0.027,0.213,0.079,0.61c0.022,0.201,0.05,0.45,0.083,0.741c0.038,0.295,0.064,0.634,0.044,1.012
		c-0.006,0.383-0.014,0.806-0.022,1.267c-0.06,0.46-0.124,0.956-0.192,1.487c-0.187,1.056-0.489,2.247-1,3.491
		c-0.242,0.627-0.587,1.238-0.902,1.899c-0.404,0.604-0.769,1.273-1.26,1.88c-0.909,1.273-2.142,2.405-3.514,3.433
		c-1.423,0.966-3.048,1.727-4.772,2.231c-0.882,0.193-1.735,0.432-2.688,0.515c-1,0.156-1.686,0.103-2.665,0.133
		c-1.802-0.088-3.576-0.425-5.238-1.002c-1.644-0.626-3.157-1.462-4.488-2.443c-1.288-1.033-2.458-2.123-3.342-3.34
		c-0.476-0.578-0.828-1.223-1.222-1.8c-0.317-0.626-0.667-1.205-0.916-1.804c-0.523-1.185-0.882-2.313-1.124-3.326
		c-0.104-0.51-0.2-0.987-0.29-1.429c-0.046-0.45-0.089-0.863-0.127-1.237c-0.102-0.745-0.035-1.313-0.059-1.708
		c-0.002-0.394-0.004-0.603-0.004-0.603c0-0.083,0.066-0.151,0.149-0.151C109.251,113.689,109.315,113.749,109.324,113.824z"/>
	<path fill="#0057BF" d="M142.642,113.825c0,0,0.022,0.206,0.063,0.593c0.061,0.381,0.057,0.971,0.222,1.663
		c0.07,0.349,0.148,0.733,0.233,1.153c0.119,0.412,0.248,0.858,0.385,1.336c0.304,0.941,0.723,1.979,1.296,3.044
		c0.264,0.543,0.643,1.052,0.974,1.607c0.395,0.514,0.774,1.066,1.237,1.57c0.897,1.036,1.981,1.987,3.184,2.84
		c1.238,0.801,2.604,1.472,4.061,1.925c0.743,0.17,1.478,0.393,2.246,0.452c0.38,0.044,0.757,0.116,1.143,0.103l1.083,0.023
		c1.759-0.11,3.044-0.401,4.484-0.932c1.375-0.573,2.626-1.318,3.771-2.132c1.117-0.856,2.14-1.766,3.013-2.744
		c0.866-0.979,1.596-2.001,2.19-3.004c0.587-1.007,1.063-1.982,1.423-2.882c0.172-0.457,0.334-0.885,0.482-1.28
		c0.123-0.408,0.236-0.784,0.338-1.123c0.233-0.682,0.294-1.242,0.408-1.62c0.096-0.382,0.146-0.586,0.146-0.586l0.004-0.015
		c0.021-0.081,0.102-0.13,0.183-0.11c0.063,0.016,0.105,0.067,0.114,0.127c0,0,0.027,0.211,0.079,0.604
		c0.032,0.395,0.16,0.986,0.134,1.736c-0.005,0.379-0.011,0.798-0.017,1.255c-0.043,0.453-0.114,0.943-0.18,1.474
		c-0.175,1.047-0.46,2.231-0.954,3.467c-0.224,0.628-0.567,1.233-0.87,1.893c-0.381,0.61-0.753,1.267-1.219,1.882
		c-0.892,1.268-2.084,2.419-3.436,3.454c-1.404,0.971-3.002,1.759-4.714,2.268c-1.675,0.468-3.687,0.715-5.25,0.665
		c-0.138,0.003-0.05,0-0.086,0l-0.021-0.002l-0.042-0.003l-0.083-0.007l-0.168-0.015l-0.334-0.027l-0.667-0.058
		c-0.446-0.02-0.881-0.128-1.317-0.209c-0.879-0.135-1.712-0.44-2.543-0.698c-1.631-0.629-3.113-1.491-4.425-2.475
		c-1.267-1.039-2.397-2.148-3.265-3.358c-0.451-0.589-0.811-1.218-1.181-1.803c-0.306-0.625-0.655-1.197-0.886-1.797
		c-0.508-1.178-0.851-2.301-1.082-3.306c-0.099-0.508-0.203-0.979-0.278-1.418c-0.044-0.445-0.085-0.855-0.122-1.226
		c-0.095-0.737-0.031-1.301-0.053-1.692c-0.002-0.39-0.003-0.598-0.003-0.598c0-0.082,0.067-0.15,0.149-0.15
		C142.569,113.69,142.634,113.749,142.642,113.825z"/>
	<path fill="#0057BF" d="M175.323,113.824c0,0,0.022,0.209,0.064,0.6c0.063,0.384,0.056,0.979,0.228,1.678
		c0.071,0.351,0.151,0.739,0.237,1.162c0.123,0.415,0.255,0.865,0.396,1.346c0.315,0.947,0.748,1.989,1.335,3.059
		c0.281,0.541,0.659,1.056,1,1.611c0.417,0.506,0.788,1.072,1.273,1.566c0.911,1.041,2.032,1.975,3.254,2.822
		c1.257,0.8,2.651,1.447,4.126,1.901c1.491,0.404,3.046,0.588,4.596,0.563c0.69-0.083,1.688-0.117,2.326-0.306
		c0.71-0.107,1.442-0.389,2.154-0.612c1.395-0.574,2.676-1.298,3.842-2.113c1.137-0.854,2.196-1.744,3.081-2.729
		c0.471-0.467,0.829-1.006,1.235-1.485c0.343-0.522,0.727-1.004,1.015-1.516c0.6-1.011,1.089-1.989,1.459-2.895
		c0.176-0.46,0.342-0.89,0.494-1.288c0.125-0.412,0.239-0.79,0.343-1.132c0.239-0.687,0.297-1.252,0.413-1.634
		c0.096-0.386,0.146-0.591,0.146-0.591l0.004-0.015c0.021-0.081,0.102-0.13,0.183-0.11c0.063,0.016,0.106,0.067,0.114,0.127
		c0,0,0.027,0.213,0.078,0.61c0.022,0.201,0.051,0.45,0.083,0.741c0.038,0.295,0.063,0.634,0.045,1.012
		c-0.007,0.383-0.015,0.806-0.022,1.267c-0.06,0.46-0.124,0.956-0.192,1.487c-0.188,1.056-0.489,2.247-1,3.491
		c-0.242,0.627-0.587,1.238-0.901,1.899c-0.404,0.604-0.769,1.273-1.26,1.88c-0.909,1.273-2.143,2.405-3.515,3.433
		c-1.423,0.966-3.048,1.727-4.771,2.231c-0.882,0.193-1.735,0.432-2.688,0.515c-1,0.156-1.687,0.103-2.665,0.133
		c-1.802-0.088-3.576-0.425-5.237-1.002c-1.645-0.626-3.157-1.462-4.488-2.443c-1.287-1.033-2.458-2.123-3.342-3.34
		c-0.476-0.578-0.828-1.223-1.222-1.8c-0.316-0.626-0.667-1.205-0.916-1.804c-0.523-1.185-0.882-2.313-1.124-3.326
		c-0.104-0.51-0.2-0.987-0.29-1.429c-0.046-0.45-0.089-0.863-0.127-1.237c-0.102-0.745-0.035-1.313-0.06-1.708
		c-0.002-0.394-0.003-0.603-0.003-0.603c-0.001-0.083,0.066-0.151,0.148-0.151C175.251,113.689,175.315,113.749,175.323,113.824z"/>
</g>
<g>
	<path fill="#0057BF" d="M109.324,58.824c0,0,0.022,0.208,0.063,0.596c0.062,0.382,0.056,0.975,0.225,1.67
		c0.071,0.35,0.149,0.736,0.235,1.158c0.121,0.414,0.251,0.862,0.391,1.34c0.309,0.945,0.735,1.985,1.315,3.052
		c0.272,0.541,0.651,1.054,0.987,1.608c0.406,0.511,0.781,1.07,1.255,1.569c0.904,1.039,2.008,1.979,3.218,2.831
		c1.249,0.8,2.628,1.459,4.094,1.913c0.75,0.167,1.488,0.389,2.261,0.447c0.383,0.044,0.762,0.114,1.15,0.102l1.091,0.022
		c1.765-0.111,3.064-0.398,4.514-0.925c1.385-0.575,2.65-1.31,3.808-2.123c1.125-0.856,2.167-1.755,3.046-2.736
		c0.459-0.473,0.822-1.006,1.218-1.489c0.338-0.521,0.723-1.001,1.002-1.514c0.593-1.009,1.076-1.986,1.44-2.889
		c0.174-0.458,0.337-0.887,0.489-1.284c0.124-0.411,0.237-0.788,0.34-1.128c0.236-0.684,0.295-1.247,0.411-1.627
		c0.095-0.384,0.146-0.589,0.146-0.589l0.003-0.014c0.02-0.081,0.102-0.13,0.183-0.11c0.062,0.016,0.105,0.067,0.113,0.127
		c0,0,0.028,0.211,0.08,0.607c0.022,0.201,0.05,0.448,0.083,0.738c0.038,0.292,0.066,0.63,0.047,1.006
		c-0.006,0.38-0.012,0.802-0.02,1.261c-0.057,0.458-0.12,0.952-0.186,1.48c-0.181,1.052-0.475,2.24-0.977,3.479
		c-0.233,0.628-0.577,1.236-0.886,1.896c-0.393,0.607-0.761,1.271-1.239,1.882c-0.9,1.271-2.114,2.411-3.475,3.444
		c-1.415,0.967-3.025,1.741-4.743,2.249c-1.685,0.461-3.698,0.704-5.27,0.654c-0.136,0.003-0.05,0-0.086,0l-0.021-0.002
		l-0.042-0.003l-0.084-0.007l-0.168-0.014l-0.335-0.028l-0.669-0.058c-0.447-0.02-0.884-0.125-1.322-0.207
		c-0.882-0.133-1.719-0.437-2.555-0.689c-1.638-0.629-3.135-1.479-4.457-2.459c-1.276-1.038-2.428-2.137-3.303-3.351
		c-0.463-0.583-0.819-1.22-1.201-1.801c-0.312-0.626-0.661-1.202-0.901-1.801c-0.516-1.181-0.866-2.307-1.103-3.316
		c-0.101-0.508-0.196-0.984-0.284-1.423c-0.045-0.448-0.087-0.859-0.125-1.231c-0.098-0.742-0.033-1.307-0.056-1.701
		c-0.002-0.391-0.003-0.6-0.003-0.6c0-0.083,0.066-0.15,0.149-0.151C109.251,58.689,109.315,58.749,109.324,58.824z"/>
	<path fill="#0057BF" d="M142.324,58.824c0,0,0.022,0.208,0.064,0.599c0.063,0.384,0.056,0.979,0.228,1.677
		c0.071,0.351,0.151,0.739,0.237,1.162c0.123,0.416,0.255,0.865,0.396,1.346c0.315,0.948,0.748,1.99,1.335,3.059
		c0.281,0.541,0.66,1.056,1,1.611c0.417,0.506,0.788,1.072,1.273,1.566c0.911,1.041,2.032,1.975,3.254,2.822
		c1.257,0.8,2.651,1.447,4.126,1.901c1.491,0.404,3.046,0.588,4.596,0.563c0.69-0.083,1.688-0.117,2.326-0.306
		c0.71-0.107,1.442-0.389,2.154-0.612c1.395-0.574,2.676-1.298,3.842-2.113c1.137-0.854,2.196-1.744,3.081-2.729
		c0.471-0.467,0.829-1.007,1.235-1.485c0.343-0.522,0.727-1.004,1.015-1.516c0.6-1.011,1.089-1.989,1.459-2.895
		c0.176-0.46,0.342-0.89,0.494-1.288c0.125-0.412,0.239-0.79,0.343-1.132c0.239-0.687,0.297-1.252,0.413-1.633
		c0.096-0.386,0.146-0.592,0.146-0.592l0.004-0.014c0.021-0.081,0.102-0.13,0.183-0.11c0.063,0.016,0.106,0.067,0.114,0.127
		c0,0,0.027,0.212,0.078,0.61c0.022,0.202,0.051,0.45,0.083,0.742c0.038,0.294,0.063,0.633,0.045,1.011
		c-0.007,0.382-0.015,0.806-0.022,1.267c-0.06,0.459-0.124,0.956-0.192,1.486c-0.188,1.056-0.489,2.248-1,3.492
		c-0.242,0.627-0.587,1.238-0.901,1.899c-0.404,0.604-0.769,1.273-1.26,1.88c-0.909,1.273-2.143,2.405-3.515,3.433
		c-1.423,0.966-3.048,1.727-4.771,2.231c-0.882,0.193-1.735,0.432-2.688,0.515c-1,0.156-1.687,0.103-2.665,0.133
		c-1.802-0.088-3.576-0.425-5.237-1.002c-1.645-0.626-3.157-1.462-4.488-2.443c-1.287-1.033-2.458-2.123-3.342-3.34
		c-0.476-0.578-0.828-1.223-1.222-1.799c-0.317-0.627-0.667-1.206-0.916-1.805c-0.523-1.185-0.882-2.313-1.124-3.326
		c-0.104-0.51-0.2-0.987-0.29-1.429c-0.046-0.45-0.089-0.864-0.127-1.237c-0.102-0.746-0.035-1.313-0.059-1.709
		c-0.002-0.393-0.004-0.603-0.004-0.603c0-0.083,0.066-0.15,0.149-0.151C142.251,58.689,142.315,58.749,142.324,58.824z"/>
	<path fill="#0057BF" d="M175.642,58.824c0,0,0.022,0.207,0.063,0.594c0.061,0.38,0.057,0.97,0.222,1.663
		c0.07,0.348,0.148,0.733,0.233,1.153c0.118,0.413,0.247,0.859,0.385,1.336c0.304,0.941,0.723,1.979,1.296,3.044
		c0.264,0.543,0.643,1.052,0.974,1.607c0.395,0.514,0.774,1.066,1.237,1.57c0.897,1.036,1.981,1.987,3.184,2.84
		c1.238,0.801,2.604,1.472,4.061,1.925c0.743,0.17,1.478,0.393,2.246,0.452c0.38,0.044,0.757,0.116,1.143,0.103l1.083,0.023
		c1.759-0.11,3.044-0.4,4.484-0.932c1.375-0.573,2.626-1.318,3.771-2.132c1.117-0.856,2.14-1.766,3.013-2.744
		c0.866-0.979,1.596-2.001,2.19-3.004c0.587-1.007,1.063-1.982,1.423-2.882c0.172-0.457,0.334-0.884,0.482-1.279
		c0.123-0.409,0.236-0.785,0.338-1.124c0.233-0.682,0.294-1.242,0.408-1.62c0.096-0.382,0.146-0.586,0.146-0.586l0.004-0.014
		c0.021-0.081,0.102-0.13,0.183-0.11c0.063,0.015,0.105,0.067,0.114,0.127c0,0,0.027,0.21,0.079,0.604
		c0.032,0.394,0.16,0.986,0.134,1.736c-0.005,0.379-0.011,0.798-0.017,1.255c-0.043,0.453-0.114,0.943-0.18,1.474
		c-0.175,1.047-0.46,2.231-0.954,3.467c-0.224,0.628-0.567,1.233-0.87,1.893c-0.381,0.61-0.753,1.267-1.219,1.882
		c-0.892,1.268-2.084,2.419-3.436,3.454c-1.404,0.971-3.002,1.759-4.714,2.268c-1.675,0.468-3.687,0.715-5.25,0.665
		c-0.138,0.003-0.05,0-0.086,0l-0.021-0.002l-0.042-0.003l-0.083-0.007l-0.168-0.015l-0.334-0.027l-0.667-0.058
		c-0.446-0.02-0.881-0.128-1.317-0.209c-0.879-0.135-1.712-0.44-2.543-0.698c-1.631-0.629-3.113-1.491-4.425-2.475
		c-1.267-1.039-2.397-2.148-3.265-3.358c-0.451-0.589-0.812-1.218-1.182-1.803c-0.306-0.625-0.655-1.197-0.887-1.797
		c-0.508-1.178-0.851-2.301-1.081-3.306c-0.1-0.508-0.203-0.978-0.277-1.417c-0.045-0.446-0.085-0.855-0.122-1.225
		c-0.095-0.738-0.031-1.301-0.054-1.693c-0.001-0.39-0.002-0.597-0.002-0.597c-0.001-0.083,0.066-0.15,0.149-0.151
		C175.569,58.689,175.634,58.749,175.642,58.824z"/>
	<path fill="#0057BF" d="M208.323,58.824c0,0,0.022,0.208,0.064,0.599c0.063,0.384,0.056,0.979,0.228,1.677
		c0.071,0.351,0.151,0.739,0.237,1.162c0.123,0.416,0.255,0.865,0.396,1.346c0.315,0.948,0.748,1.99,1.335,3.059
		c0.281,0.541,0.659,1.056,1,1.611c0.417,0.506,0.788,1.072,1.273,1.566c0.911,1.041,2.032,1.975,3.254,2.822
		c1.257,0.8,2.651,1.447,4.126,1.901c1.491,0.404,3.046,0.588,4.596,0.563c0.69-0.083,1.688-0.117,2.326-0.306
		c0.71-0.107,1.442-0.389,2.154-0.612c1.395-0.574,2.676-1.298,3.842-2.113c1.137-0.854,2.196-1.744,3.081-2.729
		c0.471-0.467,0.829-1.007,1.235-1.485c0.343-0.522,0.727-1.004,1.015-1.516c0.6-1.011,1.089-1.989,1.459-2.895
		c0.176-0.46,0.342-0.89,0.494-1.288c0.125-0.412,0.239-0.79,0.343-1.132c0.239-0.687,0.297-1.252,0.413-1.633
		c0.096-0.386,0.146-0.592,0.146-0.592l0.004-0.014c0.021-0.081,0.102-0.13,0.183-0.11c0.063,0.016,0.106,0.067,0.114,0.127
		c0,0,0.027,0.212,0.078,0.61c0.022,0.202,0.051,0.45,0.083,0.742c0.038,0.294,0.063,0.633,0.045,1.011
		c-0.007,0.382-0.015,0.806-0.022,1.267c-0.06,0.459-0.124,0.956-0.192,1.486c-0.188,1.056-0.489,2.248-1,3.492
		c-0.242,0.627-0.587,1.238-0.901,1.899c-0.404,0.604-0.769,1.273-1.26,1.88c-0.909,1.273-2.143,2.405-3.515,3.433
		c-1.423,0.966-3.048,1.727-4.771,2.231c-0.882,0.193-1.735,0.432-2.688,0.515c-1,0.156-1.687,0.103-2.665,0.133
		c-1.802-0.088-3.576-0.425-5.237-1.002c-1.645-0.626-3.157-1.462-4.488-2.443c-1.287-1.033-2.458-2.123-3.342-3.34
		c-0.476-0.578-0.828-1.223-1.222-1.799c-0.316-0.627-0.667-1.206-0.916-1.805c-0.523-1.185-0.882-2.313-1.124-3.326
		c-0.104-0.51-0.2-0.987-0.29-1.429c-0.046-0.45-0.089-0.864-0.127-1.237c-0.102-0.746-0.035-1.313-0.06-1.709
		c-0.002-0.393-0.003-0.603-0.003-0.603c-0.001-0.083,0.066-0.15,0.148-0.151C208.251,58.689,208.315,58.749,208.323,58.824z"/>
</g>
<g>
	<path fill="#0057BF" d="M93.324,86.824c0,0,0.022,0.208,0.063,0.597c0.062,0.383,0.056,0.975,0.225,1.671
		c0.071,0.349,0.149,0.735,0.235,1.157c0.121,0.414,0.251,0.862,0.391,1.341c0.31,0.944,0.736,1.984,1.315,3.052
		c0.272,0.541,0.651,1.054,0.987,1.608c0.406,0.511,0.781,1.07,1.255,1.569c0.904,1.039,2.007,1.979,3.218,2.831
		c1.25,0.8,2.628,1.459,4.094,1.913c0.75,0.167,1.489,0.389,2.261,0.447c0.383,0.044,0.762,0.114,1.15,0.102l1.091,0.022
		c1.765-0.111,3.064-0.398,4.514-0.925c1.385-0.575,2.651-1.31,3.808-2.123c1.125-0.856,2.167-1.755,3.046-2.737
		c0.459-0.472,0.822-1.005,1.218-1.488c0.338-0.521,0.723-1.001,1.002-1.514c0.593-1.009,1.076-1.986,1.44-2.889
		c0.174-0.458,0.337-0.888,0.489-1.284c0.124-0.41,0.237-0.787,0.34-1.127c0.236-0.685,0.295-1.248,0.411-1.627
		c0.095-0.385,0.146-0.589,0.146-0.589l0.003-0.015c0.02-0.081,0.102-0.13,0.183-0.11c0.062,0.016,0.105,0.067,0.113,0.127
		c0,0,0.028,0.212,0.08,0.607c0.022,0.2,0.05,0.447,0.083,0.738c0.038,0.293,0.066,0.63,0.047,1.006
		c-0.006,0.381-0.012,0.803-0.02,1.262c-0.057,0.457-0.12,0.951-0.186,1.479c-0.181,1.052-0.475,2.24-0.977,3.479
		c-0.233,0.628-0.577,1.236-0.886,1.896c-0.393,0.607-0.761,1.271-1.239,1.882c-0.9,1.271-2.114,2.411-3.475,3.443
		c-1.415,0.968-3.025,1.742-4.743,2.25c-1.685,0.461-3.698,0.704-5.27,0.654c-0.136,0.003-0.05,0-0.085,0l-0.021-0.002l-0.042-0.003
		l-0.084-0.007l-0.168-0.014l-0.335-0.028l-0.669-0.058c-0.447-0.02-0.884-0.125-1.322-0.207c-0.882-0.133-1.719-0.437-2.555-0.689
		c-1.637-0.629-3.135-1.479-4.457-2.459c-1.276-1.038-2.428-2.137-3.303-3.351c-0.463-0.583-0.819-1.22-1.202-1.801
		c-0.311-0.626-0.661-1.202-0.901-1.801c-0.515-1.181-0.866-2.307-1.102-3.316c-0.102-0.508-0.196-0.983-0.284-1.423
		c-0.045-0.448-0.086-0.859-0.124-1.231c-0.098-0.741-0.033-1.307-0.056-1.7c-0.002-0.392-0.003-0.6-0.003-0.6
		c0-0.083,0.066-0.151,0.149-0.151C93.251,86.689,93.316,86.749,93.324,86.824z"/>
	<path fill="#0057BF" d="M126.324,86.824c0,0,0.022,0.209,0.064,0.6c0.063,0.384,0.056,0.979,0.228,1.678
		c0.071,0.351,0.151,0.739,0.237,1.162c0.123,0.415,0.255,0.865,0.396,1.346c0.315,0.947,0.748,1.989,1.335,3.059
		c0.281,0.541,0.66,1.056,1,1.611c0.417,0.506,0.788,1.072,1.273,1.566c0.911,1.041,2.032,1.975,3.253,2.822
		c1.258,0.8,2.652,1.447,4.126,1.901c1.491,0.404,3.046,0.588,4.596,0.563c0.691-0.083,1.688-0.117,2.327-0.306
		c0.71-0.107,1.442-0.389,2.154-0.612c1.395-0.574,2.676-1.298,3.842-2.113c1.137-0.854,2.196-1.744,3.081-2.729
		c0.471-0.467,0.829-1.007,1.235-1.485c0.343-0.522,0.727-1.004,1.015-1.516c0.6-1.011,1.089-1.989,1.459-2.895
		c0.176-0.46,0.342-0.89,0.494-1.288c0.125-0.412,0.239-0.79,0.343-1.132c0.239-0.687,0.297-1.252,0.413-1.634
		c0.096-0.386,0.146-0.591,0.146-0.591l0.004-0.015c0.021-0.081,0.102-0.13,0.183-0.11c0.063,0.016,0.106,0.067,0.114,0.127
		c0,0,0.027,0.213,0.078,0.61c0.022,0.201,0.051,0.45,0.083,0.741c0.038,0.295,0.063,0.634,0.045,1.012
		c-0.007,0.383-0.015,0.806-0.022,1.267c-0.06,0.46-0.124,0.956-0.192,1.487c-0.188,1.056-0.489,2.247-1,3.491
		c-0.242,0.627-0.587,1.238-0.901,1.899c-0.404,0.604-0.769,1.273-1.26,1.88c-0.909,1.273-2.143,2.405-3.515,3.433
		c-1.423,0.966-3.048,1.727-4.771,2.231c-0.882,0.193-1.735,0.432-2.688,0.515c-1,0.156-1.686,0.103-2.665,0.133
		c-1.802-0.088-3.576-0.425-5.238-1.002c-1.644-0.626-3.157-1.462-4.488-2.443c-1.288-1.033-2.458-2.123-3.342-3.34
		c-0.476-0.578-0.828-1.223-1.222-1.799c-0.317-0.627-0.667-1.206-0.916-1.805c-0.523-1.185-0.882-2.313-1.124-3.326
		c-0.104-0.51-0.2-0.987-0.29-1.429c-0.046-0.45-0.089-0.863-0.127-1.237c-0.102-0.745-0.035-1.313-0.059-1.708
		c-0.002-0.394-0.004-0.603-0.004-0.603c0-0.083,0.066-0.151,0.149-0.151C126.251,86.689,126.315,86.749,126.324,86.824z"/>
	<path fill="#0057BF" d="M159.642,86.825c0,0,0.022,0.206,0.063,0.593c0.061,0.381,0.057,0.971,0.222,1.663
		c0.07,0.349,0.148,0.733,0.233,1.153c0.118,0.412,0.247,0.858,0.385,1.336c0.304,0.941,0.723,1.979,1.296,3.044
		c0.264,0.543,0.643,1.052,0.974,1.607c0.395,0.514,0.774,1.066,1.237,1.57c0.897,1.036,1.981,1.987,3.184,2.84
		c1.238,0.801,2.604,1.472,4.061,1.925c0.743,0.17,1.478,0.393,2.246,0.452c0.38,0.044,0.757,0.116,1.143,0.103l1.083,0.023
		c1.759-0.11,3.044-0.4,4.484-0.932c1.375-0.573,2.626-1.318,3.771-2.132c1.117-0.856,2.14-1.766,3.013-2.744
		c0.866-0.979,1.596-2.001,2.19-3.004c0.587-1.007,1.063-1.982,1.423-2.882c0.172-0.457,0.334-0.885,0.482-1.28
		c0.123-0.408,0.236-0.784,0.338-1.123c0.233-0.682,0.294-1.242,0.408-1.62c0.096-0.382,0.146-0.586,0.146-0.586l0.004-0.015
		c0.021-0.081,0.102-0.13,0.183-0.11c0.063,0.016,0.105,0.067,0.114,0.127c0,0,0.027,0.211,0.079,0.604
		c0.032,0.395,0.16,0.986,0.134,1.736c-0.005,0.379-0.011,0.798-0.017,1.255c-0.043,0.453-0.114,0.943-0.18,1.474
		c-0.175,1.047-0.46,2.231-0.954,3.467c-0.224,0.628-0.567,1.233-0.87,1.893c-0.381,0.61-0.753,1.267-1.219,1.882
		c-0.892,1.268-2.084,2.419-3.436,3.454c-1.404,0.971-3.002,1.759-4.714,2.268c-1.675,0.468-3.687,0.715-5.25,0.665
		c-0.138,0.003-0.05,0-0.086,0l-0.021-0.002l-0.042-0.003l-0.083-0.007l-0.168-0.015l-0.334-0.027l-0.667-0.058
		c-0.446-0.02-0.881-0.128-1.317-0.209c-0.879-0.135-1.712-0.44-2.543-0.698c-1.631-0.629-3.113-1.491-4.425-2.475
		c-1.267-1.039-2.397-2.148-3.265-3.358c-0.451-0.589-0.812-1.218-1.182-1.803c-0.306-0.625-0.655-1.197-0.887-1.797
		c-0.508-1.178-0.851-2.301-1.081-3.306c-0.1-0.508-0.203-0.979-0.277-1.418c-0.045-0.445-0.085-0.855-0.122-1.226
		c-0.095-0.737-0.031-1.301-0.054-1.692c-0.001-0.39-0.002-0.598-0.002-0.598c-0.001-0.082,0.066-0.15,0.149-0.15
		C159.569,86.69,159.634,86.749,159.642,86.825z"/>
	<path fill="#0057BF" d="M192.323,86.824c0,0,0.022,0.209,0.064,0.6c0.063,0.384,0.056,0.979,0.228,1.678
		c0.071,0.351,0.151,0.739,0.237,1.162c0.123,0.415,0.255,0.865,0.396,1.346c0.315,0.947,0.748,1.989,1.335,3.059
		c0.281,0.541,0.659,1.056,1,1.611c0.417,0.506,0.788,1.072,1.273,1.566c0.911,1.041,2.032,1.975,3.254,2.822
		c1.257,0.8,2.651,1.447,4.126,1.901c1.491,0.404,3.046,0.588,4.596,0.563c0.69-0.083,1.688-0.117,2.326-0.306
		c0.71-0.107,1.442-0.389,2.154-0.612c1.395-0.574,2.676-1.298,3.842-2.113c1.137-0.854,2.196-1.744,3.081-2.729
		c0.471-0.467,0.829-1.007,1.235-1.485c0.343-0.522,0.727-1.004,1.015-1.516c0.6-1.011,1.089-1.989,1.459-2.895
		c0.176-0.46,0.342-0.89,0.494-1.288c0.125-0.412,0.239-0.79,0.343-1.132c0.239-0.687,0.297-1.252,0.413-1.634
		c0.096-0.386,0.146-0.591,0.146-0.591l0.004-0.015c0.021-0.081,0.102-0.13,0.183-0.11c0.063,0.016,0.106,0.067,0.114,0.127
		c0,0,0.027,0.213,0.078,0.61c0.022,0.201,0.051,0.45,0.083,0.741c0.038,0.295,0.063,0.634,0.045,1.012
		c-0.007,0.383-0.015,0.806-0.022,1.267c-0.06,0.46-0.124,0.956-0.192,1.487c-0.188,1.056-0.489,2.247-1,3.491
		c-0.242,0.627-0.587,1.238-0.901,1.899c-0.404,0.604-0.769,1.273-1.26,1.88c-0.909,1.273-2.143,2.405-3.515,3.433
		c-1.423,0.966-3.048,1.727-4.771,2.231c-0.882,0.193-1.735,0.432-2.688,0.515c-1,0.156-1.687,0.103-2.665,0.133
		c-1.802-0.088-3.576-0.425-5.237-1.002c-1.645-0.626-3.157-1.462-4.488-2.443c-1.287-1.033-2.458-2.123-3.342-3.34
		c-0.476-0.578-0.828-1.223-1.222-1.799c-0.316-0.627-0.667-1.206-0.916-1.805c-0.523-1.185-0.882-2.313-1.124-3.326
		c-0.104-0.51-0.2-0.987-0.29-1.429c-0.046-0.45-0.089-0.863-0.127-1.237c-0.102-0.745-0.035-1.313-0.06-1.708
		c-0.002-0.394-0.003-0.603-0.003-0.603c-0.001-0.083,0.066-0.151,0.148-0.151C192.251,86.689,192.315,86.749,192.323,86.824z"/>
</g>
</svg>
