<?xml version="1.0" encoding="utf-8"?>
<!-- Generator: Adobe Illustrator 16.0.0, SVG Export Plug-In . SVG Version: 6.00 Build 0)  -->
<svg version="1.2" baseProfile="tiny" id="Vrstva_1"
	 xmlns="http://www.w3.org/2000/svg" xmlns:xlink="http://www.w3.org/1999/xlink" x="0px" y="0px" width="139.334px"
	 height="292.666px" viewBox="0 0 139.334 292.666" xml:space="preserve">
<path fill="none" stroke="#000000" stroke-width="5" stroke-miterlimit="10" d="M96.5,163.307V32.236l0,0c0,0,0-0.001,0-0.002
	c0-14.912-12.088-27-27-27c-14.911,0-27,12.087-27,26.998l0,0v131.075c-21,10.185-36.25,32.33-36.25,58.026
	c0,35.347,29.029,64,64.375,64c35.347,0,63.438-28.653,63.438-64C134.063,195.637,118.5,173.491,96.5,163.307z"/>
<path fill="#C41C18" d="M87,170.461v-59.128H53v59.233c-21.445,7.174-36.906,27.408-36.906,51.267
	c0,29.857,24.205,54.063,54.063,54.063c29.857,0,54.063-24.205,54.063-54.063C124.219,197.859,108.607,177.542,87,170.461z"/>
<line fill="none" stroke="#FFFFFF" stroke-width="4" stroke-miterlimit="10" x1="95" y1="146.333" x2="100" y2="146.333"/>
<line fill="none" stroke="#FFFFFF" stroke-width="4" stroke-miterlimit="10" x1="95" y1="121.333" x2="100" y2="121.333"/>
<line fill="none" stroke="#FFFFFF" stroke-width="4" stroke-miterlimit="10" x1="95" y1="96.333" x2="100" y2="96.333"/>
<line fill="none" stroke="#FFFFFF" stroke-width="4" stroke-miterlimit="10" x1="95" y1="71.333" x2="100" y2="71.333"/>
<line fill="none" stroke="#FFFFFF" stroke-width="4" stroke-miterlimit="10" x1="95" y1="46.333" x2="100" y2="46.333"/>
<line fill="none" stroke="#000000" stroke-width="4" stroke-miterlimit="10" x1="99" y1="146.333" x2="104" y2="146.333"/>
<line fill="none" stroke="#000000" stroke-width="4" stroke-miterlimit="10" x1="99" y1="121.333" x2="104" y2="121.333"/>
<line fill="none" stroke="#000000" stroke-width="4" stroke-miterlimit="10" x1="99" y1="96.333" x2="104" y2="96.333"/>
<line fill="none" stroke="#000000" stroke-width="4" stroke-miterlimit="10" x1="99" y1="71.333" x2="104" y2="71.333"/>
<line fill="none" stroke="#000000" stroke-width="4" stroke-miterlimit="10" x1="99" y1="46.333" x2="104" y2="46.333"/>
</svg>
