<?xml version="1.0" encoding="utf-8"?>
<!-- Generator: Adobe Illustrator 16.0.0, SVG Export Plug-In . SVG Version: 6.00 Build 0)  -->
<svg version="1.2" baseProfile="tiny" id="Vrstva_1"
	 xmlns="http://www.w3.org/2000/svg" xmlns:xlink="http://www.w3.org/1999/xlink" x="0px" y="0px" width="400px" height="400px"
	 viewBox="0 0 400 400" xml:space="preserve">
<g>
	<path fill="#4F3099" stroke="#4F3099" stroke-miterlimit="10" d="M189.387,113.69c-57.993,2.482-106.781,33.174-127.165,78.665
		c10.369-1.199,21.404-1.337,32.796-0.25c12.088,1.153,23.507,3.597,33.955,7.046C141.639,152.797,173.898,124.85,189.387,113.69z"
		/>
	<path fill="#4F3099" stroke="#4F3099" stroke-miterlimit="10" d="M203.335,113.69c15.488,11.159,47.748,39.106,60.413,85.461
		c10.449-3.449,21.867-5.893,33.955-7.046c11.393-1.087,22.428-0.949,32.797,0.25C310.116,146.864,261.328,116.173,203.335,113.69z"
		/>
	<path fill="#4F3099" stroke="#4F3099" stroke-miterlimit="10" d="M197.486,113.602c-0.375-0.01-0.986-0.021-0.986-0.034
		c-0.375,0.013-0.75,0.024-1.125,0.034c-19.236,16.86-44.335,44.91-58.434,84.888c13.893-5.656,44.56-7.666,59.56-7.656
		s49.167,3,59.49,7.656C241.892,158.511,216.723,130.461,197.486,113.602z"/>
</g>
<line fill="none" stroke="#4F3099" stroke-width="9" stroke-linecap="round" stroke-linejoin="round" stroke-miterlimit="10" x1="196.5" y1="99" x2="196.5" y2="105"/>
<line fill="none" stroke="#4F3099" stroke-width="9" stroke-linecap="round" stroke-linejoin="round" stroke-miterlimit="10" x1="196.5" y1="200" x2="196.5" y2="287"/>
<path fill="none" stroke="#4F3099" stroke-width="9" stroke-linecap="round" stroke-linejoin="round" stroke-miterlimit="10" d="
	M170.5,287.5c0,9.12,5.814,16.5,13,16.5"/>
<path fill="none" stroke="#4F3099" stroke-width="9" stroke-linecap="round" stroke-linejoin="round" stroke-miterlimit="10" d="
	M196.5,287.5c0,9.12-5.814,16.5-13,16.5"/>
<g>
	<path fill="#29ABE2" d="M150.859,65.641c-0.001-0.056-0.003-0.111-0.003-0.16C150.857,65.532,150.858,65.585,150.859,65.641z"/>
	<path fill="#29ABE2" d="M161.052,90.595c-0.003-2.67-1.588-4.343-3.25-6.749c-0.789-1.245-2.457-4.048-3.932-7.656
		c-1.488-3.526-2.87-7.859-2.87-10.26c0-0.161,0-0.303,0-0.424c0,0.034,0.001,0.069,0,0.104c-0.002-0.044,0-0.086,0-0.128
		c0,0.076,0,0.163,0,0.254c0,0.012-0.067,0.023-0.068,0.035c-0.003-0.045-0.038-0.088-0.039-0.13
		c0.002,0.082-0.011,0.168-0.011,0.263c-0.002,0.017-0.002,0.033,0,0.05c-0.158,2.406-1.454,6.721-2.938,10.236
		c-1.474,3.608-3.201,6.411-3.99,7.656c-1.662,2.406-3.222,4.133-3.225,6.803c-0.043,5.578,4.546,9.352,10.127,9.352
		c-0.004,0-0.008,0-0.012,0c-0.001,0,0.015,0,0.024,0c0.002,0,0.13,0,0.13,0s0-0.108,0-0.108
		C156,99.931,161.095,96.167,161.052,90.595z"/>
</g>
<g>
	<path fill="#FFFFFF" d="M150.86,74.783c-0.001-0.033-0.002-0.066-0.002-0.095C150.858,74.718,150.859,74.75,150.86,74.783z"/>
	<path fill="#FFFFFF" d="M155.929,89.561c-0.001-1.593-0.781-2.537-1.612-3.973c-0.394-0.742-1.186-2.387-1.923-4.54
		c-0.744-2.104-1.394-4.661-1.394-6.093c0-0.096,0-0.181,0-0.253c0,0.021,0,0.042,0,0.062c0-0.026,0-0.052,0-0.076
		c0,0.045,0,0.097,0,0.151c0,0.007-0.068,0.014-0.069,0.021c-0.002-0.027-0.037-0.052-0.037-0.077
		c0.001,0.048-0.014,0.1-0.014,0.157c-0.001,0.01-0.005,0.02-0.004,0.03c-0.079,1.435-0.729,4.009-1.471,6.106
		c-0.737,2.152-1.602,3.824-1.996,4.567c-0.831,1.435-1.611,2.326-1.613,3.919c-0.021,3.327,2.272,5.439,5.063,5.439
		c-0.002,0-0.004,0-0.006,0c-0.001,0,0.007,0,0.012,0c0.001,0,0.011,0,0.011,0l0,0C153.592,95,155.95,92.884,155.929,89.561z"/>
</g>
<g>
	<path fill="#29ABE2" d="M105.859,89.641c-0.001-0.056-0.003-0.111-0.003-0.16C105.857,89.532,105.858,89.585,105.859,89.641z"/>
	<path fill="#29ABE2" d="M116.052,114.595c-0.003-2.67-1.588-4.343-3.25-6.749c-0.789-1.245-2.457-4.048-3.932-7.656
		c-1.488-3.526-2.87-7.859-2.87-10.26c0-0.161,0-0.303,0-0.424c0,0.034,0.001,0.069,0,0.104c-0.002-0.044,0-0.086,0-0.128
		c0,0.076,0,0.163,0,0.254c0,0.012-0.067,0.023-0.068,0.035c-0.003-0.045-0.038-0.088-0.039-0.13
		c0.002,0.082-0.011,0.168-0.011,0.263c-0.002,0.017-0.002,0.033,0,0.05c-0.158,2.406-1.454,6.721-2.938,10.236
		c-1.474,3.608-3.201,6.411-3.99,7.656c-1.662,2.406-3.222,4.133-3.225,6.803c-0.043,5.578,4.546,9.352,10.127,9.352
		c-0.004,0-0.008,0-0.012,0c-0.001,0,0.015,0,0.024,0c0.002,0,0.13,0,0.13,0s0-0.108,0-0.108
		C111,123.931,116.095,120.167,116.052,114.595z"/>
</g>
<g>
	<path fill="#FFFFFF" d="M105.86,98.783c-0.001-0.033-0.002-0.066-0.002-0.095C105.858,98.718,105.859,98.75,105.86,98.783z"/>
	<path fill="#FFFFFF" d="M110.929,113.561c-0.001-1.593-0.781-2.537-1.612-3.973c-0.394-0.742-1.186-2.387-1.923-4.54
		c-0.744-2.104-1.394-4.661-1.394-6.093c0-0.096,0-0.181,0-0.253c0,0.021,0,0.042,0,0.062c0-0.026,0-0.052,0-0.076
		c0,0.045,0,0.097,0,0.151c0,0.007-0.068,0.014-0.069,0.021c-0.002-0.027-0.037-0.052-0.037-0.077
		c0.001,0.048-0.014,0.1-0.014,0.157c-0.001,0.01-0.005,0.02-0.004,0.03c-0.079,1.435-0.729,4.009-1.471,6.106
		c-0.737,2.152-1.602,3.824-1.996,4.567c-0.831,1.435-1.611,2.326-1.613,3.919c-0.021,3.327,2.272,5.439,5.063,5.439
		c-0.002,0-0.004,0-0.006,0c-0.001,0,0.007,0,0.012,0c0.001,0,0.011,0,0.011,0l0,0C108.592,119,110.95,116.884,110.929,113.561z"/>
</g>
<g>
	<path fill="#29ABE2" d="M196.018,47.991c0.008,0,0.015,0.003,0.022,0.003C196.966,47.994,196.01,47.991,196.018,47.991z"/>
	<path fill="#29ABE2" d="M213.282,66h-5.092l2.389-1.989c0.022-0.015,0.044-0.31,0.065-0.325c0.262-0.19,0.374-0.674,0.296-0.982
		c-0.017-0.069-0.042-0.206-0.078-0.27l-0.007-0.055l-0.003-0.028c-0.215-0.37-0.688,0.102-1.061,0.316L205.051,66h-0.121
		l-3.732-1.889l1.462-3.351l0.437-0.577l5.274-1.502c0.414-0.11,0.65-0.578,0.54-0.99l-0.009-0.041
		c-0.11-0.413-0.522-0.653-0.936-0.542l-2.648,0.722l3.6-3.597c0.29-0.29,0.301-0.754,0.033-1.058
		c-0.359-0.323-0.769-0.258-1.059,0.032l-3.6,3.595l0.677-2.694c0.111-0.413-0.151-0.855-0.565-0.966l-0.027-0.014
		c-0.414-0.11-0.809,0.166-0.919,0.579l-1.387,5.313l-0.096,0.096l-3.633,1.678l-1.342-3.5v-0.311l3.034-4.736
		c0.214-0.371-0.034-0.844-0.034-1.058v-0.01c-1-0.213-1.12-0.086-1.334,0.284L197,53.846v-5.083c0-0.025-0.377-0.763-0.96-0.763
		c-0.016,0-0.022,0-0.04,0v0.101c0,0.012-0.067,0.023-0.068,0.035c-0.003-0.045-0.038-0.087-0.039-0.128
		c0.002,0.081-0.011,0.167-0.011,0.26c-0.002,0.017-0.002,0.033,0,0.049c-0.158,2.381-1.454,6.653-2.938,10.132
		c-1.474,3.573-3.201,6.347-3.99,7.579c-1.662,2.381-3.222,4.582-3.225,7.224C185.688,78.774,190.276,83,195.857,83
		c0.005,0,0.008,0,0.012,0c0.002,0,0.647-0.012,0.647-0.012S197,83.031,197,82.313v-5.084l1.502,2.385
		c0.214,0.37,0.752,0.498,1.122,0.283l0.047-0.009c0.371-0.215,0.389-0.688,0.175-1.059L197,74.094v-0.392l1.342-3.5l3.227,1.509
		l0.425,0.4l1.429,5.282c0.11,0.413,0.542,0.658,0.957,0.548l0.021-0.006c0.337-0.09,0.563-0.386,0.576-0.716
		c0.003-0.077-0.006-0.155-0.025-0.231l-0.715-2.66l3.602,3.596c0.29,0.291,0.754,0.3,1.059,0.033
		c0.141-0.157,0.208-0.323,0.215-0.485c0.007-0.208-0.085-0.409-0.249-0.572l-3.6-3.593l2.683,0.691
		c0.414,0.11,0.85-0.145,0.96-0.558l0.011-0.023c0.013-0.051,0.021-0.104,0.023-0.155c0.019-0.356-0.228-0.68-0.59-0.776
		l-5.307-1.397l-0.214-0.214l-1.632-3.089L204.363,67h0.688l4.741,2.374c0.115,0.064,0.238-0.073,0.36-0.07
		c0.003,0,0.005-0.085,0.008-0.085c0.001,0,0.002-0.042,0.004-0.042c0.273,0.004,0.542-0.163,0.688-0.416l0.005-0.021l0.005-0.017
		c0.214-0.372,0.087-0.488-0.283-0.702L208.19,67h5.092c0.076,0,0.819-0.178,0.819-0.565S213.349,66,213.282,66z M199.249,68.263
		l-2.269-0.959L196,69.356v7.701c-0.042,0.001-0.082-0.057-0.125-0.057c0,0-0.01,0-0.011,0c-0.002,0-0.004,0-0.006,0
		c-2.791,0-5.084-2.056-5.063-5.349c0.001-1.577,0.782-2.443,1.613-3.862c0.395-0.736,1.259-2.381,1.996-4.512
		c0.742-2.076,1.392-4.62,1.471-6.041c-0.001-0.01,0.003-0.017,0.004-0.026c0-0.057,0.016-0.107,0.014-0.154
		c0,0.024,0.035,0.049,0.037,0.076c0.001-0.006,0.069-0.012,0.069-0.02v4.528l0.984,2.051l2.146-0.958l-0.898,2.017l2.14,0.748
		l-2.092,0.749L199.249,68.263z"/>
</g>
<path fill="none" stroke="#29ABE2" stroke-miterlimit="10" d="M274.66,84.5h-5.039l2.363-1.571c0.022-0.014,0.044-0.106,0.065-0.121
	c0.259-0.188,0.37-0.567,0.293-0.873c-0.017-0.068-0.042-0.154-0.078-0.217l-0.007-0.029l-0.003-0.015
	c-0.212-0.366-0.681-0.294-1.049-0.082l-4.692,2.908h-0.12l-3.693-1.471l1.446-3.121l0.433-0.472l5.22-1.438
	c0.409-0.109,0.644-0.548,0.534-0.957l-0.009-0.027c-0.109-0.409-0.517-0.641-0.926-0.531l-2.621,0.718l3.563-3.563
	c0.287-0.288,0.298-0.746,0.033-1.047c-0.356-0.32-0.761-0.255-1.048,0.032l-3.563,3.563l0.67-2.67
	c0.11-0.409-0.15-0.848-0.56-0.958l-0.027-0.014c-0.409-0.109-0.8,0.164-0.909,0.574l-1.372,5.266l-0.095,0.095l-3.119,1.664
	l-0.851-3.469v-0.308l2.353-4.694c0.211-0.367-0.08-0.836-0.447-1.048l-0.118-0.01c-0.367-0.211-0.519-0.086-0.73,0.281
	l-1.057,2.362v-5.038c0-0.025-0.387-0.762-0.978-0.765c-0.59-0.002-1.022,0.739-1.022,0.765v5.038l-1.464-2.362
	c-0.213-0.367-0.73-0.493-1.098-0.281l-0.042,0.01c-0.367,0.211-0.406,0.681-0.194,1.048l2.798,4.694v0.42l-1.294,3.357
	l-3.447-1.615l-0.2-0.175l-1.398-5.252c-0.109-0.41-0.518-0.669-0.928-0.56l-0.025,0.01c-0.333,0.089-0.566,0.39-0.58,0.72
	c-0.004,0.076,0.004,0.154,0.024,0.23l0.686,2.655l-3.563-3.563c-0.019-0.018-0.036-0.035-0.056-0.051
	c-0.282-0.244-0.658-0.282-0.992,0.017c-0.124,0.141-0.188,0.318-0.19,0.494c-0.003,0.177,0.055,0.354,0.173,0.499
	c0.017,0.019,0.033,0.038,0.051,0.056l3.563,3.563l-2.635-0.706c-0.408-0.11-0.83,0.133-0.939,0.543l-0.006,0.019
	c-0.02,0.077-0.028,0.154-0.025,0.229c0.014,0.327,0.236,0.622,0.568,0.711l5.236,1.402l0.36,0.361l1.495,3.302l-3.693,1.471h-0.129
	l-4.693-2.914c-0.367-0.212-0.836-0.303-1.048,0.064l-0.003-0.15h-0.007c-0.114,0-0.13,0.534-0.062,0.744
	c0.057,0.178,0.174,0.386,0.342,0.482l0.332,0.379l2.031,1.395h-5.039c-0.006,0-0.768-0.116-0.765,0.455s0.739,0.545,0.765,0.545
	h5.039l-2.363,1.142c-0.366,0.211-0.492,0.858-0.28,0.858h0.01c0.146,1,0.413,0.655,0.685,0.654
	c0.124-0.001,0.249,0.034,0.363-0.031l4.694-2.623h0.688l3.133,1.174l-1.664,3.531l-0.139,0.154l-5.268,1.377
	c-0.41,0.11-0.678,0.51-0.568,0.918l0.006,0.022c0.109,0.409,0.555,0.676,0.964,0.567l2.668-0.672l-3.563,3.563
	c-0.018,0.019-0.051,0.022-0.067,0.041c-0.242,0.283-0.289,0.651,0.01,0.985c0.283,0.249,0.716,0.267,1.004,0.029
	c0.02-0.016,0.051-0.021,0.068-0.039l3.563-3.563l-0.722,2.8c-0.11,0.409,0.125,1.113,0.534,1.113h0.016
	c0.408,0,0.844-0.301,0.953-0.709l1.416-5.313l0.477-0.521l3.143-1.469l1.294,3.335v0.5l-2.81,4.693
	c-0.211,0.367-0.135,0.836,0.23,1.049l-0.007,0.009c0.367,0.213,0.922,0.087,1.135-0.28l1.451-2.363v5.039
	c0,0.406,0.6,0.739,1,0.765c0.479-0.025,1-0.358,1-0.765v-5.039l1.009,2.363c0.213,0.367,0.506,0.493,0.873,0.28l-0.071-0.009
	c0.367-0.213,0.801-0.682,0.589-1.049l-2.399-4.693v-0.389l0.851-3.469l2.955,1.495l0.302,0.396l1.354,5.235
	c0.109,0.409,0.506,0.652,0.916,0.543l0.008-0.006c0.333-0.089,0.548-0.383,0.562-0.71c0.002-0.076-0.008-0.153-0.027-0.229
	l-0.71-2.636l3.563,3.563c0.287,0.288,0.744,0.298,1.046,0.033c0.14-0.156,0.206-0.32,0.213-0.481
	c0.007-0.206-0.084-0.405-0.246-0.566l-3.563-3.562l2.654,0.686c0.41,0.109,0.841-0.144,0.95-0.553l0.011-0.023
	c0.013-0.051,0.021-0.103,0.023-0.153c0.019-0.353-0.226-0.674-0.584-0.77l-5.252-1.385l-0.211-0.212l-1.615-3.458l3.133-1.174
	h0.681l4.692,2.749c0.113,0.063,0.235,0.126,0.356,0.129c0.003,0,0.005,0.015,0.008,0.015c0.001,0,0.002,0.008,0.004,0.008
	c0.271,0.004,0.536-0.137,0.681-0.388l0.005-0.008l0.005-0.011c0.212-0.368,0.086-0.878-0.28-1.09l-2.363-1.404h5.039
	c0.075,0,0.811-0.181,0.811-0.564C275.471,84.551,274.726,84.5,274.66,84.5z M260.779,87.544l-1.999-0.95l-0.742,2.086l-0.742-2.086
	l-1.998,0.95l0.949-1.999l-2.085-0.742l2.085-0.742l-0.949-1.999l1.998,0.95l0.742-2.085l0.742,2.085l1.999-0.95l-0.951,1.999
	l2.086,0.742l-2.086,0.742L260.779,87.544z"/>
<path fill="none" stroke="#29ABE2" stroke-miterlimit="10" d="M327.908,108.5h-5.039l2.363-1.571
	c0.022-0.014,0.044-0.106,0.065-0.121c0.259-0.188,0.37-0.567,0.293-0.873c-0.017-0.068-0.042-0.154-0.078-0.217l-0.007-0.029
	l-0.003-0.015c-0.212-0.366-0.681-0.294-1.049-0.082l-4.692,2.908h-0.12l-3.693-1.471l1.446-3.121l0.433-0.472l5.22-1.438
	c0.409-0.109,0.644-0.548,0.534-0.957l-0.009-0.027c-0.109-0.409-0.517-0.641-0.926-0.531l-2.621,0.718l3.563-3.563
	c0.287-0.288,0.298-0.746,0.033-1.047c-0.356-0.32-0.761-0.255-1.048,0.032l-3.563,3.563l0.67-2.67
	c0.11-0.409-0.15-0.848-0.56-0.958l-0.027-0.014c-0.409-0.109-0.8,0.164-0.909,0.574l-1.372,5.266l-0.095,0.095l-3.243,1.664
	l-0.975-3.469v-0.308l2.477-4.694c0.211-0.367-0.019-0.836-0.385-1.048l-0.088-0.01c-0.367-0.211-0.627-0.086-0.839,0.281
	l-1.165,2.362v-5.038c0-0.025-0.387-0.762-0.978-0.765c-0.59-0.002-1.022,0.739-1.022,0.765v5.038l-1.34-2.362
	c-0.213-0.367-0.668-0.493-1.035-0.281l-0.012,0.01c-0.367,0.211-0.515,0.681-0.303,1.048l2.689,4.694v0.42l-1.17,3.357
	l-3.385-1.615l-0.17-0.175l-1.383-5.252c-0.109-0.41-0.51-0.669-0.92-0.56l-0.021,0.01c-0.333,0.089-0.564,0.39-0.578,0.72
	c-0.004,0.076,0.005,0.154,0.025,0.23l0.686,2.655l-3.563-3.563c-0.019-0.018-0.036-0.035-0.056-0.051
	c-0.282-0.244-0.658-0.282-0.992,0.017c-0.124,0.141-0.188,0.318-0.19,0.494c-0.003,0.177,0.055,0.354,0.173,0.499
	c0.017,0.019,0.033,0.038,0.051,0.056l3.563,3.563l-2.635-0.706c-0.408-0.11-0.83,0.133-0.939,0.543l-0.006,0.019
	c-0.02,0.077-0.028,0.154-0.025,0.229c0.014,0.327,0.236,0.622,0.568,0.711l5.236,1.402l0.36,0.361l1.495,3.302l-3.693,1.471h-0.129
	l-4.693-2.914c-0.367-0.212-0.836-0.303-1.048,0.064l-0.003-0.15h-0.007c-0.114,0-0.13,0.534-0.062,0.744
	c0.057,0.178,0.174,0.386,0.342,0.482l0.332,0.379l2.031,1.395h-5.039c-0.006,0-0.768-0.116-0.765,0.455s0.739,0.545,0.765,0.545
	h5.039l-2.363,1.642c-0.366,0.211-0.492,0.358-0.28,1.358h0.01c0.146,0,0.413,0.155,0.685,0.154
	c0.124-0.001,0.249-0.216,0.363-0.281l4.694-2.873h0.688l3.133,1.174l-1.664,3.531l-0.139,0.154l-5.268,1.377
	c-0.41,0.11-0.678,0.51-0.568,0.918l0.006,0.022c0.109,0.409,0.555,0.676,0.964,0.567l2.668-0.672l-3.563,3.563
	c-0.018,0.019-0.051,0.022-0.067,0.041c-0.242,0.283-0.289,0.651,0.01,0.985c0.283,0.249,0.716,0.267,1.004,0.029
	c0.02-0.016,0.051-0.021,0.068-0.039l3.563-3.563l-0.722,2.8c-0.11,0.409,0.125,1.113,0.534,1.113h0.016
	c0.408,0,0.844-0.301,0.953-0.709l1.416-5.313l0.477-0.521l3.019-1.469l1.17,3.335v0.5l-2.686,4.693
	c-0.211,0.367-0.073,0.836,0.293,1.049l0.023,0.009c0.367,0.213,0.813,0.087,1.026-0.28l1.343-2.363v5.039
	c0,0.406,0.6,0.739,1,0.765c0.479-0.025,1-0.358,1-0.765v-5.039l1.133,2.363c0.213,0.367,0.568,0.493,0.935,0.28l-0.04-0.009
	c0.367-0.213,0.692-0.682,0.48-1.049l-2.508-4.693v-0.389l0.975-3.469l3.018,1.495l0.332,0.396l1.37,5.235
	c0.109,0.409,0.513,0.652,0.923,0.543l0.013-0.006c0.333-0.089,0.55-0.383,0.563-0.71c0.002-0.076-0.007-0.153-0.026-0.229
	l-0.71-2.636l3.563,3.563c0.287,0.288,0.745,0.298,1.047,0.033c0.14-0.156,0.206-0.32,0.213-0.481
	c0.007-0.206-0.084-0.405-0.246-0.566l-3.563-3.562l2.654,0.686c0.41,0.109,0.841-0.144,0.95-0.553l0.011-0.023
	c0.013-0.051,0.021-0.103,0.023-0.153c0.019-0.353-0.226-0.674-0.584-0.77l-5.252-1.385l-0.211-0.212l-1.615-3.458l3.133-1.174
	h0.681l4.692,2.749c0.113,0.063,0.235,0.126,0.356,0.129c0.003,0,0.005,0.015,0.008,0.015c0.001,0,0.002,0.008,0.004,0.008
	c0.271,0.004,0.536-0.137,0.681-0.388l0.005-0.008l0.005-0.011c0.212-0.368,0.086-0.878-0.28-1.09l-2.363-1.404h5.039
	c0.075,0,0.811-0.181,0.811-0.564C328.719,108.551,327.974,108.5,327.908,108.5z M314.027,111.544l-1.999-0.95l-0.742,2.086
	l-0.742-2.086l-1.998,0.95l0.949-1.999l-2.085-0.742l2.085-0.742l-0.949-1.999l1.998,0.95l0.742-2.085l0.742,2.085l1.999-0.95
	l-0.951,1.999l2.086,0.742l-2.086,0.742L314.027,111.544z"/>
</svg>
